<svg width="24" height="24" viewBox="0 0 24 24" fill="none" xmlns="http://www.w3.org/2000/svg">
<path d="M9.09121 5.05585L8.83796 4.48602C8.49683 3.71848 8.32626 3.33471 8.04556 3.06345C7.86028 2.88439 7.64224 2.74269 7.40336 2.64609C7.04147 2.49976 6.6215 2.49976 5.78157 2.49976C4.53091 2.49976 3.90559 2.49976 3.41837 2.80339C3.11954 2.98961 2.83374 3.30577 2.67853 3.62181C2.42545 4.13711 2.48286 4.70483 2.59768 5.84027C3.55041 15.2621 8.73768 20.4493 18.1595 21.4021C19.2949 21.5169 19.8627 21.5743 20.378 21.3212C20.694 21.166 21.0102 20.8802 21.1964 20.5814C21.5 20.0942 21.5 19.4688 21.5 18.2182C21.5 17.3783 21.5 16.9583 21.3537 16.5964C21.2571 16.3575 21.1154 16.1395 20.9363 15.9542C20.6651 15.6735 20.2813 15.5029 19.5138 15.1618L18.9439 14.9085C18.2714 14.6096 17.9351 14.4602 17.5978 14.4318C17.239 14.4016 16.8786 14.4685 16.5546 14.6255C16.2499 14.7731 15.9897 15.0333 15.4693 15.5537C14.9573 16.0657 14.7013 16.3217 14.3679 16.4724C14.0435 16.6191 13.5876 16.6815 13.2357 16.6273C12.8741 16.5716 12.6083 16.4217 12.0767 16.1219C10.1922 15.059 8.94074 13.8075 7.87787 11.9231C7.57806 11.3915 7.42815 11.1257 7.37245 10.7641C7.31825 10.4122 7.38061 9.95626 7.52731 9.63184C7.67807 9.29845 7.93406 9.04245 8.44606 8.53046C8.96647 8.01004 9.22668 7.74984 9.37427 7.44518C9.53127 7.12113 9.59817 6.7608 9.56797 6.40199C9.53958 6.06467 9.39012 5.72839 9.09121 5.05585Z" fill="url(#paint0_linear_112_503)"/>
<defs>
<linearGradient id="paint0_linear_112_503" x1="12" y1="2.49976" x2="12" y2="21.4998" gradientUnits="userSpaceOnUse">
<stop stop-color="#7DD4A2"/>
<stop offset="1" stop-color="#004F22"/>
</linearGradient>
</defs>
</svg>
