<svg width="16" height="16" viewBox="0 0 16 16" fill="none" xmlns="http://www.w3.org/2000/svg">
<path d="M14.1055 11.933L12.1607 2.68688C12.1356 2.56597 12.0868 2.45121 12.0172 2.34922C11.9475 2.24722 11.8584 2.15998 11.755 2.09252C11.6515 2.02506 11.5358 1.97871 11.4144 1.95612C11.2929 1.93353 11.1682 1.93516 11.0475 1.9609L8.30469 2.55036C8.06208 2.60348 7.85026 2.75024 7.71529 2.95872C7.58033 3.1672 7.53314 3.42054 7.58398 3.66364L9.52871 12.9097C9.57205 13.1207 9.68669 13.3103 9.85337 13.4466C10.02 13.583 10.2286 13.6579 10.4439 13.6586C10.5105 13.6585 10.5769 13.6514 10.642 13.6375L13.3848 13.048C13.6277 12.9948 13.8397 12.8477 13.9747 12.6389C14.1097 12.43 14.1567 12.1763 14.1055 11.933ZM8.50098 3.47204C8.50098 3.46852 8.50098 3.46676 8.50098 3.46676L11.2432 2.88083L11.4383 3.81071L8.69609 4.40075L8.50098 3.47204ZM8.88887 5.31598L11.6322 4.72711L11.8279 5.65875L9.08691 6.24821L8.88887 5.31598ZM9.27793 7.16579L12.0213 6.57633L12.8006 10.2818L10.0572 10.8713L9.27793 7.16579ZM13.1885 12.1316L10.4463 12.7175L10.2512 11.7877L12.9934 11.1976L13.1885 12.1263C13.1885 12.1298 13.1885 12.1316 13.1885 12.1316ZM6.62598 2.40856H3.81348C3.56484 2.40856 3.32638 2.50733 3.15056 2.68315C2.97475 2.85896 2.87598 3.09742 2.87598 3.34606V12.7211C2.87598 12.9697 2.97475 13.2082 3.15056 13.384C3.32638 13.5598 3.56484 13.6586 3.81348 13.6586H6.62598C6.87462 13.6586 7.11307 13.5598 7.28889 13.384C7.4647 13.2082 7.56348 12.9697 7.56348 12.7211V3.34606C7.56348 3.09742 7.4647 2.85896 7.28889 2.68315C7.11307 2.50733 6.87462 2.40856 6.62598 2.40856ZM3.81348 3.34606H6.62598V4.28356H3.81348V3.34606ZM3.81348 5.22106H6.62598V10.8461H3.81348V5.22106ZM6.62598 12.7211H3.81348V11.7836H6.62598V12.7211Z" fill="url(#paint0_linear_115_1097)"/>
<defs>
<linearGradient id="paint0_linear_115_1097" x1="8.50083" y1="1.94031" x2="8.50083" y2="13.6586" gradientUnits="userSpaceOnUse">
<stop stop-color="#7DD4A2"/>
<stop offset="1" stop-color="#004F22"/>
</linearGradient>
</defs>
</svg>
