<svg width="16" height="16" viewBox="0 0 16 16" fill="none" xmlns="http://www.w3.org/2000/svg">
<g clip-path="url(#clip0_115_1120)">
<path d="M13.1885 4.75244H2.40723V3.34619C2.40723 3.22187 2.35784 3.10264 2.26993 3.01474C2.18203 2.92683 2.0628 2.87744 1.93848 2.87744C1.81416 2.87744 1.69493 2.92683 1.60702 3.01474C1.51911 3.10264 1.46973 3.22187 1.46973 3.34619V12.7212C1.46973 12.8455 1.51911 12.9647 1.60702 13.0526C1.69493 13.1406 1.81416 13.1899 1.93848 13.1899C2.0628 13.1899 2.18203 13.1406 2.26993 13.0526C2.35784 12.9647 2.40723 12.8455 2.40723 12.7212V10.8462H14.5947V12.7212C14.5947 12.8455 14.6441 12.9647 14.732 13.0526C14.8199 13.1406 14.9392 13.1899 15.0635 13.1899C15.1878 13.1899 15.307 13.1406 15.3949 13.0526C15.4828 12.9647 15.5322 12.8455 15.5322 12.7212V7.09619C15.5322 6.47459 15.2853 5.87845 14.8458 5.43891C14.4062 4.99937 13.8101 4.75244 13.1885 4.75244ZM2.40723 5.68994H6.62598V9.90869H2.40723V5.68994ZM7.56348 9.90869V5.68994H13.1885C13.5614 5.68994 13.9191 5.8381 14.1828 6.10182C14.4466 6.36555 14.5947 6.72323 14.5947 7.09619V9.90869H7.56348Z" fill="url(#paint0_linear_115_1120)"/>
</g>
<defs>
<linearGradient id="paint0_linear_115_1120" x1="8.50098" y1="2.87744" x2="8.50098" y2="13.1899" gradientUnits="userSpaceOnUse">
<stop stop-color="#7DD4A2"/>
<stop offset="1" stop-color="#004F22"/>
</linearGradient>
<clipPath id="clip0_115_1120">
<rect width="15" height="15" fill="white" transform="translate(0.532227 0.533691)"/>
</clipPath>
</defs>
</svg>
