<svg width="22" height="12" viewBox="0 0 22 12" fill="none" xmlns="http://www.w3.org/2000/svg">
<g clip-path="url(#clip0_159_221639)">
<path d="M21.9983 4.26786C22.0006 4.25118 22.0006 4.23432 21.9983 4.21764C22.0005 4.20405 22.0005 4.19019 21.9983 4.17657L21.8353 3.00351C21.8118 2.86317 21.7489 2.73199 21.6537 2.62466L21.6258 2.59271L21.5746 2.5425L18.7532 0.15987L18.8323 0.237471C18.7676 0.161518 18.6863 0.100765 18.5944 0.0596889C18.5026 0.0186121 18.4025 -0.00174501 18.3016 0.000119225H17.4449C17.3056 -0.00258664 17.1694 0.0408342 17.0584 0.123361C16.9419 0.0413313 16.8015 -0.00186744 16.658 0.000119225H15.8013C15.689 -0.00166789 15.5782 0.0256694 15.4801 0.0793713C15.3819 0.133073 15.3001 0.211233 15.2427 0.305934C15.1542 0.441195 15.1209 0.604164 15.1495 0.762378L15.2566 1.50181C15.1857 1.46239 15.1054 1.44193 15.0238 1.44248H10.8755C10.7266 1.4434 10.5812 1.48616 10.4564 1.56571C10.3358 1.63976 10.2389 1.74579 10.1771 1.87153L9.85585 1.60223C9.72941 1.48754 9.56251 1.42537 9.39027 1.42879H2.88141C2.73205 1.43145 2.586 1.47236 2.45775 1.54746C2.28228 1.64815 2.15368 1.81186 2.09924 2.0039L0.0320467 8.78208C-0.00657807 8.89377 -0.0103777 9.01422 0.0211345 9.12804C0.0526466 9.24183 0.118043 9.34389 0.20897 9.42111C0.232663 9.44079 0.257541 9.45909 0.283465 9.47586C0.283465 9.47586 0.241556 9.44847 0.218277 9.42567L3.03972 11.8129C3.15908 11.9206 3.31512 11.9808 3.47734 11.9817H10.0374C10.1873 11.9779 10.3334 11.9354 10.4611 11.8585C10.5334 11.8198 10.598 11.7688 10.652 11.7079L10.6753 11.6759L10.7125 11.6303L10.7405 11.5801L11.0478 11.8402C11.1654 11.9437 11.3181 12.0006 11.4761 12H18.0501C18.1998 11.9951 18.3456 11.9527 18.4738 11.8768C18.5444 11.8357 18.6087 11.785 18.6647 11.7261L18.688 11.6942L18.7252 11.6485C18.745 11.6197 18.7622 11.5891 18.7764 11.5572C18.7916 11.5296 18.8041 11.5005 18.8137 11.4705L20.6993 5.28117V5.22639C20.7016 5.20515 20.7016 5.18373 20.6993 5.16249V5.12142C20.7015 5.1078 20.7015 5.09394 20.6993 5.08032C20.7014 5.05146 20.7014 5.02248 20.6993 4.99359H21.3046C21.3572 4.99833 21.4102 4.99833 21.4628 4.99359H21.5048C21.5388 4.98363 21.5716 4.96983 21.6025 4.95252H21.6491L21.7329 4.88862L21.7701 4.86123L21.8353 4.77906V4.7517L21.8819 4.67409C21.8793 4.659 21.8793 4.64355 21.8819 4.62846C21.8794 4.62105 21.8794 4.61304 21.8819 4.60563C21.8918 4.57887 21.8996 4.55139 21.9052 4.52346C21.903 4.51446 21.903 4.50507 21.9052 4.49607C21.9029 4.48248 21.9029 4.46859 21.9052 4.455C21.9052 4.455 21.9983 4.27698 21.9983 4.26786Z" fill="url(#paint0_linear_159_221639)"/>
<path d="M9.58205 1.94916C9.60677 1.97108 9.62403 1.99989 9.63152 2.03172C9.63904 2.06355 9.63638 2.09686 9.62397 2.12717L7.56144 8.90078C7.53547 8.97473 7.48234 9.03656 7.41245 9.07424C7.35559 9.11153 7.28977 9.13355 7.22154 9.13814H0.666144C0.61016 9.1355 0.557122 9.11276 0.517155 9.07424C0.49338 9.05267 0.476694 9.02465 0.469229 8.99378C0.461764 8.96288 0.463866 8.93051 0.475254 8.90078L2.54244 2.12717C2.56626 2.05229 2.61773 1.98881 2.68677 1.94916C2.74458 1.91455 2.81008 1.89419 2.87766 1.88982H9.43306C9.48861 1.89035 9.54187 1.91156 9.58205 1.94916ZM6.16001 7.53602L7.39382 3.49193H3.9392L2.71005 7.53602H6.16001ZM15.8395 2.01763C15.8619 2.04311 15.8898 2.06332 15.9213 2.07675C15.9527 2.09018 15.9868 2.0965 16.0211 2.09522H16.8731C16.9055 2.09553 16.9375 2.08773 16.966 2.07256C16.9946 2.05739 17.0186 2.03534 17.036 2.0085C17.0512 1.98753 17.0619 1.9638 17.0675 1.93871C17.0731 1.91362 17.0735 1.88768 17.0686 1.86244L16.901 0.657429C16.8851 0.601659 16.8564 0.550161 16.8172 0.506802C16.7948 0.48132 16.7669 0.461112 16.7355 0.447678C16.704 0.434244 16.6699 0.427932 16.6357 0.429207H15.7836C15.7512 0.428898 15.7192 0.436698 15.6907 0.451872C15.6622 0.467046 15.6381 0.489093 15.6207 0.515934C15.5881 0.579834 15.5741 0.620913 15.5881 0.657429L15.7604 1.86244C15.7692 1.92111 15.7969 1.97548 15.8395 2.01763ZM18.5445 0.6483C18.5286 0.592527 18.4999 0.541029 18.4607 0.497673C18.4393 0.472284 18.4122 0.452082 18.3815 0.438624C18.3508 0.425169 18.3174 0.418821 18.2838 0.420078H17.4271C17.3952 0.419187 17.3637 0.426777 17.3358 0.442044C17.3079 0.457311 17.2848 0.479691 17.2689 0.506802C17.2379 0.547296 17.2245 0.598161 17.2316 0.6483L17.4038 1.85331C17.4147 1.91136 17.4421 1.9652 17.483 2.0085C17.5058 2.03348 17.5338 2.05335 17.5651 2.06674C17.5965 2.08013 17.6304 2.08673 17.6646 2.08609H18.5213C18.5531 2.0865 18.5845 2.07871 18.6122 2.06349C18.64 2.04827 18.6633 2.02616 18.6796 1.99937C18.6958 1.97895 18.7071 1.95523 18.7127 1.92995C18.7184 1.90468 18.7182 1.87849 18.7121 1.85331L18.5445 0.6483ZM15.0899 2.47407L15.0061 1.88069H10.8764C10.8115 1.8842 10.7488 1.90469 10.6948 1.94003C10.6605 1.95836 10.6307 1.98377 10.6073 2.01451C10.5841 2.04524 10.5678 2.08056 10.5598 2.11805L10.2153 3.25001C10.2015 3.2783 10.1968 3.31004 10.2018 3.341C10.2068 3.37196 10.2212 3.4007 10.2432 3.42347C10.2824 3.45965 10.3337 3.48074 10.3875 3.48281H15.4065L14.1727 7.5269H9.16769C9.10315 7.52834 9.0403 7.5473 8.98613 7.58165C8.92028 7.62266 8.87218 7.68605 8.8511 7.75967L8.50191 8.89166C8.49052 8.9207 8.48752 8.95226 8.49327 8.98286C8.49904 9.01349 8.51328 9.04193 8.53448 9.06509C8.57253 9.1037 8.62417 9.12656 8.67883 9.12899H15.2529C15.3208 9.12326 15.3864 9.10133 15.4437 9.06509C15.5125 9.02723 15.5641 8.96528 15.5881 8.89166L17.4783 2.70229H15.3506C15.3169 2.70294 15.2834 2.6968 15.2521 2.68424C15.2209 2.67168 15.1926 2.65296 15.1691 2.62926C15.1306 2.58787 15.1033 2.53763 15.0899 2.4832V2.47407Z" fill="white"/>
</g>
<defs>
<linearGradient id="paint0_linear_159_221639" x1="11" y1="0" x2="11" y2="12" gradientUnits="userSpaceOnUse">
<stop stop-color="#887CF8"/>
<stop offset="1" stop-color="#594BEC"/>
</linearGradient>
<clipPath id="clip0_159_221639">
<rect width="22" height="12" fill="white"/>
</clipPath>
</defs>
</svg>
