<svg width="26" height="26" viewBox="0 0 26 26" fill="none" xmlns="http://www.w3.org/2000/svg">
<g clip-path="url(#clip0_159_221664)">
<path d="M12.319 7.19719C12.0631 5.00417 11.7929 2.68869 11.7929 0H14.2071C14.2071 2.65849 13.9382 4.97103 13.6826 7.16651C13.4744 8.9557 13.2753 10.6671 13.2383 12.4247C14.4505 11.1603 15.511 9.81955 16.6218 8.41509C17.9914 6.68349 19.4378 4.85514 21.3388 2.95402L23.046 4.66118C21.1661 6.54101 19.3406 7.98596 17.6075 9.35779L17.6058 9.35903C16.1942 10.4766 14.8437 11.5456 13.5752 12.7617C15.3263 12.7247 17.0242 12.5266 18.8027 12.3191C20.9957 12.0631 23.3113 11.7929 26 11.7929V14.2071C23.3416 14.2071 21.0291 13.9381 18.8337 13.6826L18.8321 13.6825C17.0433 13.4744 15.3323 13.2753 13.5752 13.2383C14.8389 14.4496 16.1789 15.5096 17.5824 16.6197L17.5846 16.6215C19.3163 17.9913 21.1448 19.4375 23.046 21.3388L21.3388 23.046C19.459 21.1662 18.0141 19.3407 16.6425 17.6078L16.6392 17.6033L16.6365 17.5997C15.5204 16.1903 14.4527 14.842 13.2383 13.5752C13.2753 15.3328 13.4744 17.0443 13.6826 18.8335C13.9382 21.029 14.2071 23.3415 14.2071 26H11.7929C11.7929 23.3113 12.0631 20.9958 12.319 18.8028L12.3195 18.7992C12.5268 17.022 12.7247 15.3252 12.7617 13.5752C11.5473 14.842 10.4796 16.1903 9.36351 17.5997L9.36078 17.6033L9.35753 17.6078C7.9859 19.3407 6.54101 21.1662 4.66118 23.046L2.95402 21.3388C4.85523 19.4375 6.68369 17.9913 8.41535 16.6215L8.41756 16.6197C9.82111 15.5096 11.1611 14.4496 12.4247 13.2383C10.6671 13.2754 8.95563 13.4745 7.16631 13.6826C4.97094 13.9381 2.6584 14.2071 0 14.2071V11.7929C2.68869 11.7929 5.00431 12.0631 7.19732 12.3191C8.97578 12.5266 10.6736 12.7247 12.4247 12.7617C11.1558 11.5451 9.80479 10.4758 8.39254 9.35779C6.65944 7.98596 4.83383 6.54101 2.95402 4.66118L4.66118 2.95402C6.5622 4.85514 8.00858 6.68349 9.3782 8.41509C10.489 9.81948 11.5495 11.1602 12.7617 12.4246C12.7247 10.6748 12.5268 8.97799 12.3195 7.20076L12.319 7.19719Z" fill="#FFA589"/>
</g>
<defs>
<clipPath id="clip0_159_221664">
<rect width="26" height="26" fill="white"/>
</clipPath>
</defs>
</svg>
