<svg width="223" height="42" viewBox="0 0 223 42" fill="none" xmlns="http://www.w3.org/2000/svg">
<mask id="mask0_269_188215" style="mask-type:alpha" maskUnits="userSpaceOnUse" x="0" y="0" width="223" height="42">
<rect width="223" height="42" fill="#D9D9D9"/>
</mask>
<g mask="url(#mask0_269_188215)">
<path d="M2.43171 33.5261C1.75621 33.1478 1.3374 32.7425 1.17528 32.3102C0.986142 31.9049 0.891572 31.5672 0.891572 31.297C0.891572 30.5404 1.16177 29.5271 1.70217 28.2572C2.24257 26.9873 2.97211 25.5282 3.89079 23.88C4.80947 22.2317 5.83623 20.5295 6.97107 18.7732C6.02537 18.6921 5.18775 18.6381 4.45821 18.6111C3.75569 18.584 3.02615 18.5705 2.26959 18.5705H1.13475C1.45899 17.7329 1.99939 17.152 2.75595 16.8277C3.53953 16.4765 4.45821 16.3009 5.51199 16.3009C5.97133 16.3009 6.44418 16.3279 6.93054 16.3819C7.4169 16.436 7.91677 16.5035 8.43015 16.5846C9.80817 14.531 11.1997 12.5721 12.6047 10.7077C14.0098 8.81632 15.3203 7.12757 16.5362 5.64147C17.7791 4.15537 18.8329 3.00702 19.6975 2.19642C20.6432 1.25072 21.3862 0.77787 21.9266 0.77787C22.2509 0.77787 22.6157 0.91297 23.021 1.18317C23.4263 1.42635 23.8451 1.7641 24.2774 2.19642C24.0072 2.41258 23.6559 2.98 23.2236 3.89868C22.8183 4.81736 22.3725 5.97922 21.8861 7.38426C21.4268 8.76228 20.9674 10.2754 20.5081 11.9236C20.0488 13.5718 19.6164 15.2606 19.2111 16.9899C18.8329 18.7192 18.5221 20.3674 18.2789 21.9345C18.0628 23.4747 17.9547 24.8257 17.9547 25.9875C17.9547 27.0413 18.0628 27.8519 18.2789 28.4193C18.5221 28.9597 18.9004 29.2299 19.4138 29.2299C20.0893 29.2299 20.8729 28.7571 21.7645 27.8114C22.6832 26.8387 23.6829 25.312 24.7637 23.2315L25.2501 23.7584C24.4395 25.92 23.3857 27.7033 22.0888 29.1083C20.8188 30.5134 19.4813 31.2159 18.0763 31.2159C16.9144 31.2159 16.0768 30.7025 15.5634 29.6758C15.0501 28.622 14.7934 27.2304 14.7934 25.5012C14.7934 24.7176 14.8474 23.853 14.9555 22.9072C15.0636 21.9615 15.2257 20.9213 15.4418 19.7864C14.253 19.5973 13.1722 19.4487 12.1994 19.3406C11.2267 19.2055 10.3216 19.0839 9.48393 18.9758C8.21399 21.3266 6.97107 23.7449 5.75517 26.2307C4.56629 28.6895 3.45847 31.1213 2.43171 33.5261ZM15.7661 18.1652C16.1444 16.463 16.5902 14.7337 17.1036 12.9774C17.617 11.1941 18.1574 9.50533 18.7248 7.91115C19.3192 6.31697 19.8866 4.91193 20.427 3.69603C19.5894 4.23643 18.6437 5.15511 17.5899 6.45207C16.5362 7.72201 15.4148 9.26215 14.2259 11.0725C13.0641 12.8558 11.8617 14.8283 10.6188 16.9899C11.5104 17.152 12.3886 17.3411 13.2532 17.5573C14.1449 17.7734 14.9825 17.9761 15.7661 18.1652ZM35.9364 30.8106C34.9367 30.8106 34.1801 30.5539 33.6667 30.0405C33.1804 29.5542 32.9372 28.9192 32.9372 28.1356C32.9372 27.5952 33.0318 27.0143 33.2209 26.3928C33.4371 25.7714 33.6397 25.1364 33.8288 24.4879C34.018 23.8394 34.1126 23.218 34.1126 22.6235C34.1126 21.921 33.9639 21.4347 33.6667 21.1645C33.3695 20.8943 33.0047 20.7592 32.5724 20.7592C31.7348 20.7592 30.8837 21.0969 30.019 21.7724C29.1544 22.4479 28.3168 23.3125 27.5062 24.3663C26.7226 25.4201 25.9795 26.5009 25.277 27.6087C24.5745 28.7165 23.953 29.7163 23.4126 30.608C22.9533 30.608 22.521 30.5269 22.1157 30.3648C21.6834 30.2027 21.3456 29.9595 21.1024 29.6352C21.1024 29.5001 21.251 29.0813 21.5483 28.3788C21.8185 27.6763 22.1427 26.8252 22.521 25.8254C22.8993 24.8257 23.2235 23.7854 23.4937 22.7046C23.7909 21.6238 23.9395 20.6511 23.9395 19.7864C24.1016 19.5703 24.3583 19.3676 24.7096 19.1785C25.0879 18.9893 25.4797 18.8948 25.885 18.8948C26.6956 18.8948 27.1009 19.2595 27.1009 19.9891C27.1009 20.3944 26.9928 21.0429 26.7766 21.9345C26.5875 22.7992 26.3308 23.7449 26.0066 24.7716C26.7091 23.7178 27.5062 22.6911 28.3978 21.6913C29.2895 20.6646 30.2217 19.827 31.1944 19.1785C32.1941 18.503 33.1804 18.1652 34.1531 18.1652C35.2609 18.1652 36.058 18.557 36.5444 19.3406C37.0577 20.0972 37.3144 20.9348 37.3144 21.8535C37.3144 22.6911 37.1793 23.4612 36.9091 24.1637C36.6389 24.8662 36.3552 25.5417 36.058 26.1902C35.7878 26.8387 35.6527 27.4871 35.6527 28.1356C35.6527 28.676 35.7608 29.0543 35.9769 29.2705C36.2201 29.4596 36.4903 29.5542 36.7875 29.5542C37.463 29.5542 38.1385 29.2434 38.814 28.622C39.5166 28.0005 40.1785 27.2034 40.8 26.2307C41.4485 25.258 42.0159 24.2718 42.5023 23.272L43.0292 23.8394C42.4617 25.1634 41.8133 26.3523 41.0837 27.4061C40.3812 28.4328 39.5976 29.257 38.733 29.8784C37.8954 30.4999 36.9632 30.8106 35.9364 30.8106ZM42.4526 31.9049C41.5879 31.9049 40.8584 31.6212 40.2639 31.0538C39.6425 30.4864 39.3317 29.6217 39.3317 28.4599C39.3317 27.5142 39.5479 26.4874 39.9802 25.3796C40.4125 24.2447 41.007 23.1369 41.7635 22.0561C42.5201 20.9483 43.3712 19.9486 44.3169 19.0569C45.2897 18.1652 46.3164 17.4492 47.3972 16.9088C48.478 16.3684 49.5588 16.0982 50.6396 16.0982C51.7204 16.0982 52.6256 16.3819 53.3551 16.9493C54.1117 17.5168 54.49 18.2733 54.49 19.219C54.49 19.8945 54.2738 20.3674 53.8415 20.6376C53.4362 20.9078 52.9228 21.0294 52.3013 21.0023C52.3554 20.7592 52.3959 20.516 52.4229 20.2728C52.477 20.0296 52.504 19.7864 52.504 19.5433C52.504 18.9488 52.3689 18.4354 52.0987 18.0031C51.8285 17.5438 51.3286 17.3141 50.5991 17.3141C49.8425 17.3141 49.0725 17.5843 48.2889 18.1247C47.5053 18.6381 46.7487 19.3271 46.0192 20.1917C45.3167 21.0564 44.6817 22.0021 44.1143 23.0288C43.5469 24.0286 43.101 25.0148 42.7768 25.9875C42.4526 26.9602 42.2904 27.8384 42.2904 28.622C42.2904 29.6217 42.6282 30.1216 43.3037 30.1216C43.9251 30.1216 44.6006 29.8244 45.3302 29.2299C46.0867 28.6355 46.8433 27.8924 47.5999 27.0008C48.3834 26.0821 49.1265 25.1364 49.829 24.1637C50.5315 23.191 51.153 22.3263 51.6934 21.5698C51.7745 21.4076 51.8555 21.3266 51.9366 21.3266C52.0717 21.3536 52.2743 21.4076 52.5445 21.4887C52.8147 21.5698 53.0579 21.6913 53.2741 21.8535C53.4902 22.0156 53.5983 22.2182 53.5983 22.4614C53.5983 22.7046 53.4767 23.0424 53.2335 23.4747C53.0174 23.88 52.7472 24.3528 52.4229 24.8932C52.1257 25.4066 51.8555 25.9335 51.6123 26.4739C51.3962 27.0143 51.2881 27.5142 51.2881 27.9735C51.2881 28.3788 51.3827 28.7706 51.5718 29.1489C51.788 29.5001 52.1257 29.6758 52.5851 29.6758C53.2876 29.6758 54.2333 29.1624 55.4222 28.1356C56.611 27.0818 57.8134 25.4606 59.0293 23.272L59.5562 23.7989C58.9618 25.258 58.2187 26.5549 57.3271 27.6898C56.4354 28.7976 55.4762 29.6622 54.4494 30.2837C53.4497 30.9052 52.45 31.2159 51.4502 31.2159C50.4235 31.2159 49.6534 30.8917 49.14 30.2432C48.6536 29.6217 48.4105 28.9462 48.4105 28.2167C48.4105 28.0816 48.4105 27.9465 48.4105 27.8114C48.4375 27.6763 48.4645 27.5277 48.4915 27.3655C47.3567 28.8516 46.3164 29.973 45.3707 30.7295C44.425 31.5131 43.4523 31.9049 42.4526 31.9049ZM70.2745 30.8106C69.2748 30.8106 68.5182 30.5539 68.0048 30.0405C67.5185 29.5542 67.2753 28.9192 67.2753 28.1356C67.2753 27.5952 67.3698 27.0143 67.559 26.3928C67.7751 25.7714 67.9778 25.1364 68.1669 24.4879C68.3561 23.8394 68.4506 23.218 68.4506 22.6235C68.4506 21.921 68.302 21.4347 68.0048 21.1645C67.7076 20.8943 67.3428 20.7592 66.9105 20.7592C66.0729 20.7592 65.2218 21.0969 64.3571 21.7724C63.4925 22.4479 62.6549 23.3125 61.8443 24.3663C61.0607 25.4201 60.3176 26.5009 59.6151 27.6087C58.9126 28.7165 58.2911 29.7163 57.7507 30.608C57.2914 30.608 56.8591 30.5269 56.4538 30.3648C56.0214 30.2027 55.6837 29.9595 55.4405 29.6352C55.4405 29.5001 55.5891 29.0813 55.8863 28.3788C56.1565 27.6763 56.4808 26.8252 56.8591 25.8254C57.2373 24.8257 57.5616 23.7854 57.8318 22.7046C58.129 21.6238 58.2776 20.6511 58.2776 19.7864C58.4397 19.5703 58.6964 19.3676 59.0477 19.1785C59.426 18.9893 59.8178 18.8948 60.2231 18.8948C61.0337 18.8948 61.439 19.2595 61.439 19.9891C61.439 20.3944 61.3309 21.0429 61.1147 21.9345C60.9256 22.7992 60.6689 23.7449 60.3446 24.7716C61.0472 23.7178 61.8443 22.6911 62.7359 21.6913C63.6276 20.6646 64.5598 19.827 65.5325 19.1785C66.5322 18.503 67.5185 18.1652 68.4912 18.1652C69.599 18.1652 70.3961 18.557 70.8824 19.3406C71.3958 20.0972 71.6525 20.9348 71.6525 21.8535C71.6525 22.6911 71.5174 23.4612 71.2472 24.1637C70.977 24.8662 70.6933 25.5417 70.3961 26.1902C70.1259 26.8387 69.9908 27.4871 69.9908 28.1356C69.9908 28.676 70.0989 29.0543 70.315 29.2705C70.5582 29.4596 70.8284 29.5542 71.1256 29.5542C71.8011 29.5542 72.4766 29.2434 73.1521 28.622C73.8546 28.0005 74.5166 27.2034 75.1381 26.2307C75.7866 25.258 76.354 24.2718 76.8404 23.272L77.3672 23.8394C76.7998 25.1634 76.1513 26.3523 75.4218 27.4061C74.7193 28.4328 73.9357 29.257 73.0711 29.8784C72.2334 30.4999 71.3013 30.8106 70.2745 30.8106ZM78.2497 31.8644C77.0879 31.8644 76.1692 31.5131 75.4937 30.8106C74.8452 30.1351 74.521 29.1218 74.521 27.7708C74.521 26.609 74.7371 25.1769 75.1694 23.4747C75.6018 21.7454 76.1557 19.9756 76.8312 18.1652C76.588 18.1112 76.3448 18.0707 76.1016 18.0436C75.8585 17.9896 75.6153 17.9221 75.3721 17.841V16.9493C75.6693 16.9764 75.9665 17.0034 76.2638 17.0304C76.561 17.0574 76.8852 17.0844 77.2365 17.1115C77.8039 15.6524 78.4118 14.2473 79.0603 12.8963C79.7088 11.5453 80.3573 10.3429 81.0058 9.28917C81.6542 8.20837 82.2622 7.35724 82.8296 6.73578C83.4241 6.11432 83.9374 5.80359 84.3698 5.80359C84.5859 5.80359 84.7886 5.88465 84.9777 6.04677C85.1939 6.20889 85.3019 6.45207 85.3019 6.77631C85.3019 7.26267 85.0182 8.01923 84.4508 9.04599C83.8834 10.0727 83.1809 11.2886 82.3433 12.6937C81.5327 14.0987 80.7356 15.6118 79.952 17.233C80.1952 17.233 80.4383 17.233 80.6815 17.233C80.9247 17.233 81.1544 17.233 81.3705 17.233C82.3703 17.233 83.3565 17.2195 84.3292 17.1925C85.3019 17.1655 86.2882 17.098 87.2879 16.9899V17.9221C85.8018 18.0572 84.4643 18.1652 83.2754 18.2463C82.0866 18.3274 80.9923 18.3814 79.9925 18.4084C79.8844 18.4084 79.7899 18.4084 79.7088 18.4084C79.6277 18.4084 79.5332 18.4084 79.4251 18.4084C78.8307 19.7864 78.3173 21.2185 77.885 22.7046C77.4526 24.1637 77.2365 25.5957 77.2365 27.0008C77.2365 28.1356 77.4121 28.9462 77.7634 29.4326C78.1146 29.9189 78.682 30.1621 79.4656 30.1621C80.8707 30.1621 82.2487 29.5542 83.5997 28.3383C84.9777 27.0953 86.1936 25.4066 87.2474 23.272L87.7743 23.6773C87.0988 25.2175 86.2612 26.609 85.2614 27.8519C84.2617 29.0948 83.1539 30.0676 81.938 30.7701C80.7491 31.4996 79.5197 31.8644 78.2497 31.8644ZM87.1717 31.9049C86.3071 31.9049 85.5775 31.6212 84.9831 31.0538C84.3616 30.4864 84.0509 29.6217 84.0509 28.4599C84.0509 27.5142 84.2671 26.4874 84.6994 25.3796C85.1317 24.2447 85.7261 23.1369 86.4827 22.0561C87.2393 20.9483 88.0904 19.9486 89.0361 19.0569C90.0088 18.1652 91.0356 17.4492 92.1164 16.9088C93.1972 16.3684 94.278 16.0982 95.3588 16.0982C96.4396 16.0982 97.3447 16.3819 98.0743 16.9493C98.8308 17.5168 99.2091 18.2733 99.2091 19.219C99.2091 19.8945 98.993 20.3674 98.5606 20.6376C98.1553 20.9078 97.642 21.0294 97.0205 21.0023C97.0745 20.7592 97.1151 20.516 97.1421 20.2728C97.1961 20.0296 97.2231 19.7864 97.2231 19.5433C97.2231 18.9488 97.088 18.4354 96.8178 18.0031C96.5476 17.5438 96.0478 17.3141 95.3182 17.3141C94.5617 17.3141 93.7916 17.5843 93.008 18.1247C92.2244 18.6381 91.4679 19.3271 90.7383 20.1917C90.0358 21.0564 89.4009 22.0021 88.8334 23.0288C88.266 24.0286 87.8202 25.0148 87.4959 25.9875C87.1717 26.9602 87.0096 27.8384 87.0096 28.622C87.0096 29.6217 87.3473 30.1216 88.0228 30.1216C88.6443 30.1216 89.3198 29.8244 90.0493 29.2299C90.8059 28.6355 91.5625 27.8924 92.319 27.0008C93.1026 26.0821 93.8456 25.1364 94.5482 24.1637C95.2507 23.191 95.8721 22.3263 96.4125 21.5698C96.4936 21.4076 96.5747 21.3266 96.6557 21.3266C96.7908 21.3536 96.9935 21.4076 97.2637 21.4887C97.5339 21.5698 97.7771 21.6913 97.9932 21.8535C98.2094 22.0156 98.3175 22.2182 98.3175 22.4614C98.3175 22.7046 98.1959 23.0424 97.9527 23.4747C97.7365 23.88 97.4663 24.3528 97.1421 24.8932C96.8449 25.4066 96.5747 25.9335 96.3315 26.4739C96.1153 27.0143 96.0072 27.5142 96.0072 27.9735C96.0072 28.3788 96.1018 28.7706 96.291 29.1489C96.5071 29.5001 96.8449 29.6758 97.3042 29.6758C98.0067 29.6758 98.9524 29.1624 100.141 28.1356C101.33 27.0818 102.533 25.4606 103.748 23.272L104.275 23.7989C103.681 25.258 102.938 26.5549 102.046 27.6898C101.155 28.7976 100.195 29.6622 99.1686 30.2837C98.1688 30.9052 97.1691 31.2159 96.1694 31.2159C95.1426 31.2159 94.3725 30.8917 93.8592 30.2432C93.3728 29.6217 93.1296 28.9462 93.1296 28.2167C93.1296 28.0816 93.1296 27.9465 93.1296 27.8114C93.1566 27.6763 93.1837 27.5277 93.2107 27.3655C92.0758 28.8516 91.0356 29.973 90.0899 30.7295C89.1442 31.5131 88.1714 31.9049 87.1717 31.9049ZM108.874 31.0538C107.928 31.0538 107.171 30.7971 106.604 30.2837C106.064 29.7973 105.793 29.1489 105.793 28.3383C105.793 27.5277 105.982 26.69 106.361 25.8254C106.739 24.9337 107.104 24.0556 107.455 23.191C107.833 22.3263 108.022 21.5563 108.022 20.8807C108.022 20.0972 107.793 19.5027 107.333 19.0974C106.874 18.6651 106.374 18.2868 105.834 17.9626C105.239 19.5027 104.591 20.9888 103.888 22.4209C103.186 23.8259 102.618 24.9067 102.186 25.6633L101.74 24.8122C102.119 24.1096 102.605 23.0964 103.199 21.7724C103.821 20.4214 104.429 18.9083 105.023 17.233C104.753 16.9628 104.618 16.6251 104.618 16.2198C104.618 15.4362 104.834 14.7742 105.266 14.2338C105.726 13.6934 106.091 13.4232 106.361 13.4232C106.685 13.4232 106.874 13.5718 106.928 13.8691C107.009 14.1393 107.05 14.3419 107.05 14.477C107.05 14.6121 106.982 14.8688 106.847 15.2471C106.712 15.6254 106.631 15.8685 106.604 15.9766C106.631 16.3279 106.847 16.6656 107.252 16.9899C107.685 17.2871 108.171 17.6248 108.712 18.0031C109.279 18.3814 109.765 18.8543 110.171 19.4217C110.603 19.9891 110.819 20.7051 110.819 21.5698C110.819 22.3533 110.643 23.1639 110.292 24.0016C109.968 24.8392 109.63 25.6228 109.279 26.3523C108.955 27.0818 108.793 27.7303 108.793 28.2977C108.793 28.7301 108.901 29.0273 109.117 29.1894C109.36 29.3245 109.63 29.392 109.927 29.392C110.576 29.392 111.238 29.2029 111.913 28.8246C112.616 28.4193 113.291 27.9059 113.94 27.2845C114.615 26.663 115.21 26.0145 115.723 25.3391C116.237 24.6365 116.615 23.9881 116.858 23.3936L117.547 23.9205C117.034 25.0553 116.318 26.1767 115.399 27.2845C114.48 28.3923 113.454 29.2975 112.319 30C111.211 30.7025 110.063 31.0538 108.874 31.0538ZM116.839 31.9049C115.975 31.9049 115.245 31.6212 114.651 31.0538C114.029 30.4864 113.719 29.6217 113.719 28.4599C113.719 27.5142 113.935 26.4874 114.367 25.3796C114.799 24.2447 115.394 23.1369 116.15 22.0561C116.907 20.9483 117.758 19.9486 118.704 19.0569C119.676 18.1652 120.703 17.4492 121.784 16.9088C122.865 16.3684 123.946 16.0982 125.026 16.0982C126.107 16.0982 127.012 16.3819 127.742 16.9493C128.498 17.5168 128.877 18.2733 128.877 19.219C128.877 19.8945 128.661 20.3674 128.228 20.6376C127.823 20.9078 127.31 21.0294 126.688 21.0023C126.742 20.7592 126.783 20.516 126.81 20.2728C126.864 20.0296 126.891 19.7864 126.891 19.5433C126.891 18.9488 126.756 18.4354 126.485 18.0031C126.215 17.5438 125.715 17.3141 124.986 17.3141C124.229 17.3141 123.459 17.5843 122.676 18.1247C121.892 18.6381 121.136 19.3271 120.406 20.1917C119.703 21.0564 119.068 22.0021 118.501 23.0288C117.934 24.0286 117.488 25.0148 117.164 25.9875C116.839 26.9602 116.677 27.8384 116.677 28.622C116.677 29.6217 117.015 30.1216 117.69 30.1216C118.312 30.1216 118.987 29.8244 119.717 29.2299C120.474 28.6355 121.23 27.8924 121.987 27.0008C122.77 26.0821 123.513 25.1364 124.216 24.1637C124.918 23.191 125.54 22.3263 126.08 21.5698C126.161 21.4076 126.242 21.3266 126.323 21.3266C126.458 21.3536 126.661 21.4076 126.931 21.4887C127.202 21.5698 127.445 21.6913 127.661 21.8535C127.877 22.0156 127.985 22.2182 127.985 22.4614C127.985 22.7046 127.864 23.0424 127.62 23.4747C127.404 23.88 127.134 24.3528 126.81 24.8932C126.513 25.4066 126.242 25.9335 125.999 26.4739C125.783 27.0143 125.675 27.5142 125.675 27.9735C125.675 28.3788 125.769 28.7706 125.959 29.1489C126.175 29.5001 126.513 29.6758 126.972 29.6758C127.674 29.6758 128.62 29.1624 129.809 28.1356C130.998 27.0818 132.2 25.4606 133.416 23.272L133.943 23.7989C133.349 25.258 132.606 26.5549 131.714 27.6898C130.822 28.7976 129.863 29.6622 128.836 30.2837C127.836 30.9052 126.837 31.2159 125.837 31.2159C124.81 31.2159 124.04 30.8917 123.527 30.2432C123.04 29.6217 122.797 28.9462 122.797 28.2167C122.797 28.0816 122.797 27.9465 122.797 27.8114C122.824 27.6763 122.851 27.5277 122.878 27.3655C121.743 28.8516 120.703 29.973 119.758 30.7295C118.812 31.5131 117.839 31.9049 116.839 31.9049ZM133.191 41.3484C132.516 41.3484 131.908 41.1593 131.367 40.781C130.827 40.4027 130.557 39.8218 130.557 39.0382C130.557 38.1736 130.787 37.4035 131.246 36.728C131.705 36.0525 132.313 35.4175 133.07 34.8231C133.826 34.2557 134.677 33.7153 135.623 33.2019C136.569 32.7155 137.528 32.2427 138.501 31.7833C138.852 30.8376 139.217 29.7568 139.595 28.5409C139.973 27.325 140.325 26.0551 140.649 24.7311C139.784 26.0551 138.866 27.2034 137.893 28.1761C136.92 29.1489 135.88 29.6352 134.772 29.6352C134.259 29.6352 133.745 29.5271 133.232 29.311C132.718 29.0678 132.286 28.703 131.935 28.2167C131.611 27.7303 131.449 27.0953 131.449 26.3118C131.449 25.5822 131.57 24.7176 131.813 23.7179C132.083 22.7181 132.408 21.7454 132.786 20.7997C133.164 19.827 133.556 19.0299 133.961 18.4084C134.394 17.787 134.758 17.4762 135.056 17.4762C135.191 17.4762 135.407 17.5303 135.704 17.6384C136.001 17.7194 136.285 17.841 136.555 18.0031C136.826 18.1652 136.974 18.3409 137.001 18.53C136.758 18.8813 136.488 19.3811 136.191 20.0296C135.893 20.6511 135.596 21.3536 135.299 22.1372C135.029 22.9208 134.799 23.6773 134.61 24.4069C134.421 25.1364 134.326 25.7714 134.326 26.3118C134.326 26.7711 134.421 27.1494 134.61 27.4466C134.826 27.7438 135.191 27.8924 135.704 27.8924C136.245 27.8924 136.826 27.6493 137.447 27.1629C138.095 26.6495 138.73 26.0145 139.352 25.258C139.973 24.4744 140.554 23.6503 141.095 22.7857C141.149 22.5425 141.203 22.2453 141.257 21.894C141.338 21.5427 141.419 21.1915 141.5 20.8402C141.608 20.4349 141.811 20.0026 142.108 19.5433C142.432 19.0839 142.932 18.8543 143.608 18.8543C143.77 18.8543 143.918 18.8678 144.053 18.8948C144.215 18.8948 144.391 18.9218 144.58 18.9758C144.58 19.4082 144.445 20.2188 144.175 21.4076C143.932 22.5695 143.567 23.934 143.081 25.5012C142.621 27.0413 142.081 28.622 141.459 30.2432C142.675 29.7568 143.891 28.9732 145.107 27.8924C146.35 26.7846 147.35 25.2715 148.106 23.3531L148.674 23.8394C148.268 25.1364 147.647 26.2712 146.809 27.244C145.999 28.2167 145.08 29.0543 144.053 29.7568C143.027 30.4593 142 31.0403 140.973 31.4996C140.271 33.2289 139.5 34.8366 138.663 36.3227C137.825 37.8358 136.947 39.0517 136.028 39.9704C135.11 40.8891 134.164 41.3484 133.191 41.3484ZM132.908 39.9704C133.34 39.9704 134.029 39.43 134.975 38.3492C135.92 37.2954 136.92 35.5121 137.974 32.9992C136.947 33.5396 135.961 34.0935 135.015 34.6609C134.096 35.2554 133.353 35.8904 132.786 36.5659C132.219 37.2414 131.935 37.9844 131.935 38.795C131.935 39.0382 132.002 39.2949 132.138 39.5651C132.3 39.8353 132.556 39.9704 132.908 39.9704ZM148.13 31.9049C147.265 31.9049 146.536 31.6212 145.941 31.0538C145.32 30.4864 145.009 29.6217 145.009 28.4599C145.009 27.5142 145.225 26.4874 145.657 25.3796C146.09 24.2447 146.684 23.1369 147.441 22.0561C148.197 20.9483 149.048 19.9486 149.994 19.0569C150.967 18.1652 151.994 17.4492 153.074 16.9088C154.155 16.3684 155.236 16.0982 156.317 16.0982C157.398 16.0982 158.303 16.3819 159.032 16.9493C159.789 17.5168 160.167 18.2733 160.167 19.219C160.167 19.8945 159.951 20.3674 159.519 20.6376C159.113 20.9078 158.6 21.0294 157.979 21.0023C158.033 20.7592 158.073 20.516 158.1 20.2728C158.154 20.0296 158.181 19.7864 158.181 19.5433C158.181 18.9488 158.046 18.4354 157.776 18.0031C157.506 17.5438 157.006 17.3141 156.276 17.3141C155.52 17.3141 154.75 17.5843 153.966 18.1247C153.183 18.6381 152.426 19.3271 151.696 20.1917C150.994 21.0564 150.359 22.0021 149.792 23.0288C149.224 24.0286 148.778 25.0148 148.454 25.9875C148.13 26.9602 147.968 27.8384 147.968 28.622C147.968 29.6217 148.305 30.1216 148.981 30.1216C149.602 30.1216 150.278 29.8244 151.007 29.2299C151.764 28.6355 152.521 27.8924 153.277 27.0008C154.061 26.0821 154.804 25.1364 155.506 24.1637C156.209 23.191 156.83 22.3263 157.371 21.5698C157.452 21.4076 157.533 21.3266 157.614 21.3266C157.749 21.3536 157.952 21.4076 158.222 21.4887C158.492 21.5698 158.735 21.6913 158.951 21.8535C159.167 22.0156 159.276 22.2182 159.276 22.4614C159.276 22.7046 159.154 23.0424 158.911 23.4747C158.695 23.88 158.424 24.3528 158.1 24.8932C157.803 25.4066 157.533 25.9335 157.29 26.4739C157.073 27.0143 156.965 27.5142 156.965 27.9735C156.965 28.3788 157.06 28.7706 157.249 29.1489C157.465 29.5001 157.803 29.6758 158.262 29.6758C158.965 29.6758 159.91 29.1624 161.099 28.1356C162.288 27.0818 163.491 25.4606 164.707 23.272L165.233 23.7989C164.639 25.258 163.896 26.5549 163.004 27.6898C162.113 28.7976 161.153 29.6622 160.127 30.2837C159.127 30.9052 158.127 31.2159 157.127 31.2159C156.101 31.2159 155.331 30.8917 154.817 30.2432C154.331 29.6217 154.088 28.9462 154.088 28.2167C154.088 28.0816 154.088 27.9465 154.088 27.8114C154.115 27.6763 154.142 27.5277 154.169 27.3655C153.034 28.8516 151.994 29.973 151.048 30.7295C150.102 31.5131 149.13 31.9049 148.13 31.9049Z" fill="white"/>
</g>
</svg>
