<svg width="24" height="24" viewBox="0 0 24 24" fill="none" xmlns="http://www.w3.org/2000/svg">
<path fill-rule="evenodd" clip-rule="evenodd" d="M0.0832201 3.91006C0 4.35114 0 4.88066 0 5.9397V14.4C0 18.9255 0 21.1882 1.40589 22.5941C2.81178 24 5.07452 24 9.6 24H14.4C18.9255 24 21.1882 24 22.5941 22.5941C24 21.1882 24 18.9255 24 14.4V11.7575C24 8.59864 24 7.01922 23.0766 5.9926C22.9917 5.89816 22.9018 5.80829 22.8074 5.72336C21.7808 4.8 20.2014 4.8 17.0425 4.8H16.5941C15.2097 4.8 14.5175 4.8 13.8724 4.61613C13.5181 4.51513 13.1765 4.37365 12.8545 4.19451C12.2684 3.8684 11.7789 3.37894 10.8 2.4L10.1397 1.7397C9.81159 1.41159 9.64754 1.24754 9.47513 1.10462C8.73183 0.488442 7.81998 0.110744 6.85869 0.0208503C6.63572 0 6.40371 0 5.9397 0C4.88066 0 4.35114 0 3.91006 0.0832201C1.96837 0.449568 0.449568 1.96837 0.0832201 3.91006Z" fill="url(#paint0_linear_88_76495)"/>
<defs>
<linearGradient id="paint0_linear_88_76495" x1="12" y1="0" x2="12" y2="24" gradientUnits="userSpaceOnUse">
<stop stop-color="#7DD4A2"/>
<stop offset="1" stop-color="#004F22"/>
</linearGradient>
</defs>
</svg>
