<svg width="24" height="24" viewBox="0 0 24 24" fill="none" xmlns="http://www.w3.org/2000/svg">
<path d="M5.17235 2.68505C5.71697 2.32114 6.28882 2.00552 6.88134 1.74017C8.56198 0.987519 9.4023 0.611192 10.5202 1.33546C11.6382 2.05973 11.6382 3.2478 11.6382 5.62394V7.46154C11.6382 9.77156 11.6382 10.9266 12.3558 11.6442C13.0734 12.3618 14.2284 12.3618 16.5384 12.3618H18.376C20.7522 12.3618 21.9403 12.3618 22.6645 13.4797C23.3888 14.5977 23.0125 15.438 22.2598 17.1186C21.9945 17.7112 21.6788 18.283 21.3149 18.8276C20.0361 20.7415 18.2185 22.2332 16.0919 23.1141C13.9653 23.9949 11.6253 24.2254 9.36767 23.7764C7.11009 23.3273 5.03637 22.2189 3.40874 20.5912C1.78112 18.9636 0.67269 16.8899 0.223629 14.6323C-0.225432 12.3747 0.00504246 10.0347 0.885907 7.90809C1.76677 5.78149 3.25846 3.96386 5.17235 2.68505Z" fill="url(#paint0_linear_88_76392)"/>
<path d="M23.8265 5.70861C22.832 3.18412 20.8198 1.17191 18.2953 0.177392C16.4068 -0.566581 14.7046 1.14419 14.7046 3.17395V8.07423C14.7046 8.75082 15.2531 9.2993 15.9297 9.2993H20.8299C22.8597 9.2993 24.5705 7.59711 23.8265 5.70861Z" fill="url(#paint1_linear_88_76392)"/>
<defs>
<linearGradient id="paint0_linear_88_76392" x1="11.5266" y1="0.946777" x2="11.5266" y2="24" gradientUnits="userSpaceOnUse">
<stop stop-color="#7DD4A2"/>
<stop offset="1" stop-color="#004F22"/>
</linearGradient>
<linearGradient id="paint1_linear_88_76392" x1="19.3542" y1="0" x2="19.3542" y2="9.2993" gradientUnits="userSpaceOnUse">
<stop stop-color="#7DD4A2"/>
<stop offset="1" stop-color="#004F22"/>
</linearGradient>
</defs>
</svg>
