<svg width="154" height="117" viewBox="0 0 154 117" fill="none" xmlns="http://www.w3.org/2000/svg">
<g clip-path="url(#clip0_434_365184)">
<path d="M154 4.28049C154 5.41574 153.549 6.5045 152.747 7.30725C151.945 8.11 150.857 8.56098 149.722 8.56098C148.588 8.56098 147.5 8.11 146.697 7.30725C145.895 6.5045 145.444 5.41574 145.444 4.28049C145.444 3.14523 145.895 2.05647 146.697 1.25373C147.5 0.450979 148.588 0 149.722 0C150.857 0 151.945 0.450979 152.747 1.25373C153.549 2.05647 154 3.14523 154 4.28049Z" fill="white"/>
<path fill-rule="evenodd" clip-rule="evenodd" d="M39.213 116.412C17.556 116.412 0 98.8449 0 77.1742V2.85352H14.2593V77.1742C14.2593 83.7965 16.8883 90.1476 21.568 94.8303C26.2478 99.513 32.5948 102.144 39.213 102.144C53.1671 102.144 64.1667 91.3826 64.1667 77.7621H78.4259V99.1645C78.4259 100.111 78.8015 101.018 79.47 101.687C80.1386 102.356 81.0453 102.732 81.9907 102.732C82.9362 102.732 83.8429 102.356 84.5114 101.687C85.18 101.018 85.5555 100.111 85.5555 99.1645V73.8383C82.9656 74.3673 80.2905 74.3132 77.7239 73.6801C75.1574 73.0469 72.7638 71.8504 70.7164 70.1773C68.669 68.5042 67.0192 66.3964 65.8863 64.0066C64.7535 61.6167 64.1661 59.0047 64.1667 56.3596V20.6889C64.1667 15.9586 66.0445 11.4222 69.3872 8.07737C72.7299 4.73259 77.2635 2.85352 81.9907 2.85352C86.718 2.85352 91.2516 4.73259 94.5943 8.07737C97.9369 11.4222 99.8148 15.9586 99.8148 20.6889V99.1645C99.8148 100.111 100.19 101.018 100.859 101.687C101.527 102.356 102.434 102.732 103.38 102.732C104.325 102.732 105.232 102.356 105.9 101.687C106.569 101.018 106.944 100.111 106.944 99.1645V20.6889C106.944 15.9586 108.822 11.4222 112.165 8.07737C115.508 4.73259 120.041 2.85352 124.769 2.85352C129.496 2.85352 134.029 4.73259 137.372 8.07737C140.715 11.4222 142.593 15.9586 142.593 20.6889V99.1645C142.593 102.477 141.671 105.724 139.931 108.541C138.19 111.359 135.7 113.636 132.74 115.117C129.779 116.598 126.465 117.225 123.168 116.928C119.871 116.63 116.722 115.42 114.074 113.433C110.992 115.753 107.237 117.006 103.38 117C99.5221 117.006 95.7677 115.753 92.6852 113.433C90.5399 115.043 88.0594 116.147 85.4284 116.665C82.7973 117.182 80.0834 117.099 77.4889 116.422C74.8943 115.744 72.4859 114.49 70.443 112.752C68.4001 111.014 66.7753 108.838 65.6896 106.384C58.6854 112.654 49.3684 116.412 39.213 116.412ZM124.769 102.732C122.801 102.732 121.204 101.134 121.204 99.1645V20.6889C121.204 19.7428 121.579 18.8355 122.248 18.1666C122.916 17.4976 123.823 17.1218 124.769 17.1218C125.714 17.1218 126.621 17.4976 127.289 18.1666C127.958 18.8355 128.333 19.7428 128.333 20.6889V99.1645C128.333 101.134 126.736 102.732 124.769 102.732ZM85.5555 56.3596C85.5555 57.3057 85.18 58.213 84.5114 58.8819C83.8429 59.5509 82.9362 59.9267 81.9907 59.9267C81.0453 59.9267 80.1386 59.5509 79.47 58.8819C78.8015 58.213 78.4259 57.3057 78.4259 56.3596V20.6889C78.4259 19.7428 78.8015 18.8355 79.47 18.1666C80.1386 17.4976 81.0453 17.1218 81.9907 17.1218C82.9362 17.1218 83.8429 17.4976 84.5114 18.1666C85.18 18.8355 85.5555 19.7428 85.5555 20.6889V56.3596Z" fill="white"/>
<path fill-rule="evenodd" clip-rule="evenodd" d="M21.3887 77.7621C21.3887 82.4923 23.2666 87.0288 26.6092 90.3736C29.9519 93.7183 34.4855 95.5974 39.2127 95.5974C43.94 95.5974 48.4736 93.7183 51.8163 90.3736C55.1589 87.0288 57.0368 82.4923 57.0368 77.7621V20.6889C57.0368 15.9586 55.1589 11.4222 51.8163 8.07737C48.4736 4.73259 43.94 2.85352 39.2127 2.85352C34.4855 2.85352 29.9519 4.73259 26.6092 8.07737C23.2666 11.4222 21.3887 15.9586 21.3887 20.6889V77.7621ZM39.2127 81.3291C37.245 81.3291 35.6479 79.7311 35.6479 77.7621V20.6889C35.6479 19.7428 36.0235 18.8355 36.692 18.1666C37.3606 17.4976 38.2673 17.1218 39.2127 17.1218C40.1582 17.1218 41.0649 17.4976 41.7334 18.1666C42.402 18.8355 42.7776 19.7428 42.7776 20.6889V77.7621C42.7776 79.7311 41.1805 81.3291 39.2127 81.3291Z" fill="white"/>
</g>
<defs>
<clipPath id="clip0_434_365184">
<rect width="154" height="117" fill="white"/>
</clipPath>
</defs>
</svg>
