<svg width="100" height="87" viewBox="0 0 100 87" fill="none" xmlns="http://www.w3.org/2000/svg">
<rect x="0.5" y="0.5" width="99" height="86" rx="15.5" fill="url(#paint0_linear_433_379264)" stroke="#1B1B1B"/>
<g clip-path="url(#clip0_433_379264)">
<rect x="30" y="24" width="40" height="40" rx="16" fill="url(#paint1_linear_433_379264)"/>
<path d="M49.9994 24C61.0454 24 69.9994 32.954 69.9994 44V58C69.9994 59.5913 69.3673 61.1174 68.2421 62.2426C67.1169 63.3679 65.5907 64 63.9994 64H50.9994V55.226C50.9994 53.224 51.1214 51.15 52.1714 49.446C52.9232 48.2248 53.9288 47.1796 55.12 46.3813C56.3112 45.5829 57.6602 45.0501 59.0754 44.819L59.4584 44.757C59.6163 44.703 59.7534 44.601 59.8505 44.4653C59.9475 44.3296 59.9997 44.1669 59.9997 44C59.9997 43.8331 59.9475 43.6704 59.8505 43.5347C59.7534 43.399 59.6163 43.297 59.4584 43.243L59.0754 43.181C57.0076 42.8432 55.0981 41.8644 53.6166 40.3829C52.135 38.9013 51.1562 36.9918 50.8184 34.924L50.7564 34.541C50.7025 34.3831 50.6005 34.246 50.4647 34.149C50.329 34.0519 50.1663 33.9997 49.9994 33.9997C49.8326 33.9997 49.6699 34.0519 49.5341 34.149C49.3984 34.246 49.2964 34.3831 49.2424 34.541L49.1804 34.924C48.9494 36.3393 48.4166 37.6883 47.6182 38.8795C46.8199 40.0707 45.7746 41.0763 44.5534 41.828C42.8494 42.878 40.7754 43 38.7734 43H30.0234C30.5464 32.419 39.2894 24 49.9994 24Z" fill="#F06225"/>
<path d="M30 45H38.774C40.776 45 42.85 45.122 44.554 46.172C45.886 46.9928 47.0072 48.114 47.828 49.446C48.878 51.15 49 53.224 49 55.226V64H36C34.4087 64 32.8826 63.3679 31.7574 62.2426C30.6321 61.1174 30 59.5913 30 58V45ZM70 26C70 26.5304 69.7893 27.0391 69.4142 27.4142C69.0391 27.7893 68.5304 28 68 28C67.4696 28 66.9609 27.7893 66.5858 27.4142C66.2107 27.0391 66 26.5304 66 26C66 25.4696 66.2107 24.9609 66.5858 24.5858C66.9609 24.2107 67.4696 24 68 24C68.5304 24 69.0391 24.2107 69.4142 24.5858C69.7893 24.9609 70 25.4696 70 26Z" fill="#F06225"/>
</g>
<defs>
<linearGradient id="paint0_linear_433_379264" x1="50" y1="87" x2="50" y2="-42.7136" gradientUnits="userSpaceOnUse">
<stop/>
<stop offset="1" stop-color="#001F0D"/>
</linearGradient>
<linearGradient id="paint1_linear_433_379264" x1="50" y1="64" x2="50" y2="4.36158" gradientUnits="userSpaceOnUse">
<stop/>
<stop offset="1" stop-color="#001F0D"/>
</linearGradient>
<clipPath id="clip0_433_379264">
<rect x="30" y="24" width="40" height="40" rx="16" fill="white"/>
</clipPath>
</defs>
</svg>
