<svg width="138" height="86" viewBox="0 0 138 86" fill="none" xmlns="http://www.w3.org/2000/svg">
<g clip-path="url(#clip0_434_365207)">
<path d="M129.181 10.5713C129.181 10.6716 129.181 10.7969 129.156 10.8721C129.026 11.8498 129.026 12.8275 129.104 13.8303C129.156 14.0809 129.207 14.3316 129.414 14.5322C129.75 14.9082 130.267 14.833 130.474 14.3818C130.578 14.1562 130.578 13.9305 130.526 13.7049C130.267 12.7523 130.216 11.7495 130.19 10.7718C130.19 10.7217 130.19 10.6465 130.19 10.5713C130.474 10.5462 130.733 10.5212 130.966 10.5212C131.147 10.4961 131.302 10.471 131.431 10.3958C131.819 10.1953 131.819 9.76911 131.405 9.56855C131.25 9.49334 131.043 9.46826 130.862 9.46826C130.216 9.49334 129.569 9.49334 128.923 9.49334C128.69 9.49334 128.457 9.51841 128.224 9.54347C128.095 9.56855 127.94 9.56855 127.837 9.64376C127.656 9.71895 127.552 9.8443 127.552 10.0198C127.578 10.1953 127.656 10.2955 127.837 10.3708C127.94 10.446 128.069 10.471 128.199 10.471C128.509 10.4961 128.845 10.5462 129.181 10.5713ZM136.293 11.7245C136.293 11.7495 136.319 11.7746 136.319 11.7746C136.422 12.4515 136.526 13.1033 136.603 13.755C136.629 13.9807 136.655 14.1812 136.81 14.3567C137.147 14.7829 137.664 14.7327 137.897 14.2815C138 14.0559 138.026 13.8303 137.974 13.5796C137.819 12.8275 137.741 12.0754 137.586 11.3484C137.483 10.8972 137.354 10.471 137.224 10.0699C137.147 9.81924 136.966 9.64374 136.655 9.61868C136.345 9.56855 136.112 9.71895 135.983 9.94458C135.828 10.1451 135.698 10.3457 135.595 10.5713C135.414 10.9724 135.259 11.3735 135.052 11.7495C135.026 11.8498 135 11.925 134.948 12.0002C134.923 11.9501 134.897 11.925 134.897 11.925C134.56 11.2983 134.25 10.6716 133.914 10.0699C133.862 10.0198 133.836 9.96964 133.811 9.91951C133.655 9.69389 133.474 9.56855 133.19 9.56855C132.931 9.59361 132.724 9.74403 132.595 9.96964C132.543 10.0699 132.543 10.1451 132.517 10.2454C132.414 11.0476 132.285 11.8498 132.181 12.652C132.13 13.1033 132.104 13.5545 132.104 14.0057C132.078 14.106 132.104 14.2314 132.155 14.3316C132.207 14.5322 132.362 14.6575 132.569 14.6826C132.828 14.7077 133.009 14.6325 133.086 14.4319C133.164 14.2815 133.19 14.1562 133.216 14.0308C133.319 13.5796 133.397 13.1534 133.474 12.7272C133.526 12.4765 133.552 12.276 133.63 12.0002C133.681 12.1005 133.733 12.1757 133.785 12.2509C134.017 12.5518 134.25 12.8526 134.535 13.1033C134.819 13.3038 135.052 13.2787 135.285 13.0531C135.336 13.003 135.362 12.9779 135.414 12.9278C135.647 12.5768 135.931 12.2259 136.164 11.8749C136.216 11.8247 136.242 11.7746 136.293 11.7245Z" fill="white"/>
<path d="M76.7057 11.0635C76.5259 11.5399 76.4916 11.8832 76.5746 12.1684C76.6663 12.5564 76.9042 12.6834 77.2271 12.5847C80.2647 11.8566 86.9256 13.9233 89.3917 14.4994C89.9732 14.6203 90.4464 13.8925 90.0495 13.24C89.4703 12.6081 82.8124 9.90269 80.272 9.75518C79.2763 9.70063 77.4961 9.45311 76.7057 11.0635Z" fill="white"/>
<path d="M102.738 2.30602C103.061 2.48715 103.242 2.65993 103.332 2.85298C103.465 3.10621 103.394 3.28142 103.171 3.37082C101.163 4.32077 98.4911 8.41048 97.4126 9.82097C97.1512 10.1454 96.5481 9.95689 96.457 9.4233C96.4758 8.81997 98.8442 4.38173 100.166 3.1729C100.686 2.70094 101.544 1.77489 102.738 2.30602Z" fill="white"/>
<path d="M86.7474 0.292783C87.1363 0.0086369 87.5405 -0.0909364 87.7469 0.0937228C90.7764 2.60521 92.3829 6.58238 93.3777 10.2234C93.4151 10.3082 93.4175 10.4299 93.3875 10.5569C93.3751 10.6655 93.2933 10.7801 93.1634 10.8688C93.0246 10.9668 92.9051 10.9966 92.8489 10.9122C91.5212 9.16158 83.9377 2.35018 86.7474 0.292783Z" fill="white"/>
<path d="M22.5945 43.836C23.3206 43.312 24.11 42.8757 24.9453 42.5372C25.8192 42.295 26.7507 42.3351 27.599 42.6517C28.4471 42.9684 29.1661 43.544 29.6467 44.2918C30.0767 45.0376 30.2449 45.8988 30.1262 46.7455C30.0075 47.592 29.6083 48.3784 28.9885 48.986C28.508 49.4786 27.9625 49.9076 27.3666 50.2621C24.7103 51.9257 22.0303 53.4979 19.3505 55.1614C18.8021 55.5777 18.2204 55.9512 17.6109 56.278C16.6838 56.7262 15.6243 56.8462 14.6155 56.6174C13.6068 56.3887 12.7123 55.8252 12.0867 55.0248C11.619 54.458 11.2243 53.8382 10.9113 53.1789C8.37248 48.0062 5.73966 42.8562 3.29487 37.5922C2.1665 35.3136 1.24971 32.6929 0.35643 30.1636C-0.0300458 29.4286 -0.105516 28.5767 0.14609 27.7886C0.397696 27.0005 0.956527 26.3387 1.70371 25.9439C2.4509 25.5491 3.32748 25.4525 4.14704 25.6746C4.9666 25.8966 5.66449 26.4198 6.09225 27.1328C7.40709 28.8266 8.571 30.6258 9.57137 32.5108C12.1102 37.0682 14.5315 41.6256 16.9762 46.0464C17.1186 46.2907 17.2756 46.5264 17.4464 46.7528C19.2865 46.0028 21.0172 45.0222 22.5945 43.836Z" fill="white"/>
<path d="M48.8443 42.2461C43.0381 48.8315 33.3059 47.168 28.4164 38.6911C24.9372 32.6753 24.3261 22.7399 31.8956 16.4734C33.5119 15.1614 35.4447 14.2677 37.5137 13.8756C40.0506 13.5231 42.6375 13.9569 44.9046 15.1151C47.1718 16.2733 49.0032 18.0966 50.1374 20.3245C54.2746 27.6165 53.687 36.9137 48.8443 42.2461ZM46.4936 26.8873C45.8767 25.0953 44.6393 23.5655 42.991 22.5575C42.0583 21.9131 40.9249 21.5998 39.7819 21.6704C38.6386 21.7409 37.5555 22.1911 36.7145 22.9449C33.353 25.839 32.6477 32.6981 35.0924 36.7771C35.4041 37.4422 35.8617 38.0332 36.4336 38.509C37.0055 38.9847 37.6778 39.3336 38.4033 39.531C39.1287 39.7286 39.8899 39.7701 40.6337 39.6526C41.3775 39.5349 42.0857 39.2613 42.7091 38.8506C44.5312 37.4811 45.8681 35.5953 46.5336 33.4555C47.1994 31.3155 47.1607 29.0277 46.4232 26.9101L46.4936 26.8873Z" fill="white"/>
<path d="M72.5395 29.7581C71.9451 29.882 71.331 29.8895 70.7334 29.7798C70.1361 29.6702 69.5671 29.446 69.0605 29.1201C68.6171 28.8743 68.2354 28.5363 67.9429 28.1304C67.6505 27.7244 67.4546 27.2608 67.3692 26.7725C67.2836 26.2845 67.311 25.7841 67.4488 25.3074C67.5868 24.8307 67.8323 24.3896 68.1672 24.0157C68.7508 23.2643 69.5792 22.7264 70.518 22.489C72.969 21.7994 75.4923 21.379 78.0403 21.2357C78.6002 21.1726 79.1674 21.2185 79.7086 21.3708C80.2499 21.5232 80.7542 21.7787 81.1923 22.1227C81.6301 22.4665 81.9929 22.8918 82.259 23.3734C82.5249 23.855 82.6892 24.3833 82.7418 24.9273C83.4764 27.5991 83.5568 30.4006 82.9768 33.108C80.8613 41.8583 73.5739 44.8662 65.3932 42.0633C63.0969 41.314 61.0835 39.9176 59.6104 38.0528C57.6457 35.807 56.2527 33.1455 55.5436 30.2823C54.9691 27.7326 55.032 25.0869 55.7273 22.5658C56.4224 20.0446 57.7297 17.7211 59.5399 15.7895C61.2578 13.6899 63.4875 12.0376 66.028 10.9813C67.6334 10.1235 69.5119 9.87966 71.2937 10.2977C71.6979 10.4061 72.0647 10.6174 72.3563 10.9096C72.6479 11.2019 72.8535 11.5644 72.9519 11.9596C73.0503 12.3548 73.0376 12.7683 72.9156 13.1573C72.7934 13.5462 72.5663 13.8964 72.2575 14.1715C71.6705 14.6867 71.0327 15.1446 70.3533 15.5388C68.2634 16.8289 66.4448 18.4914 64.9936 20.4381C64.0424 21.6978 63.3873 23.1443 63.0746 24.6757C62.7618 26.2071 62.799 27.7864 63.1837 29.3025C63.7167 31.3696 64.8998 33.2251 66.5686 34.6118C71.7402 39.1694 78.4634 34.7713 77.288 28.5504C75.5721 28.9607 74.0675 29.3936 72.5395 29.7581Z" fill="white"/>
<path d="M104.134 42.6105C96.4946 47.1681 87.7968 42.6105 85.8926 33.0399C84.5057 26.2037 87.1385 16.6329 96.3536 12.9869C98.3142 12.2279 100.441 11.9614 102.536 12.2121C105.053 12.6588 107.363 13.8602 109.138 15.6468C110.914 17.4333 112.066 19.715 112.433 22.1703C113.984 30.3053 110.458 38.9874 104.134 42.6105ZM106.791 27.2746C106.789 25.3816 106.098 23.5498 104.84 22.1019C104.167 21.2063 103.195 20.5646 102.089 20.2861C100.983 20.0078 99.8119 20.1098 98.7747 20.5752C94.6375 22.3069 91.7225 28.5963 92.7804 33.2223C92.8612 33.9482 93.1045 34.6483 93.4934 35.2736C93.8824 35.8988 94.4076 36.4342 95.0323 36.8423C95.6569 37.2502 96.366 37.5211 97.1098 37.6358C97.8539 37.7504 98.6146 37.7062 99.3389 37.5062C101.526 36.7657 103.419 35.3817 104.755 33.5473C106.091 31.713 106.803 29.52 106.791 27.2746Z" fill="white"/>
<path d="M120.159 44.5249C120.043 45.3589 119.591 46.1143 118.901 46.625C118.211 47.1355 117.34 47.3597 116.48 47.2479C115.619 47.1361 114.84 46.6975 114.313 46.0287C113.786 45.36 113.555 44.5157 113.671 43.6817C113.786 42.8477 114.238 42.0922 114.928 41.5815C115.618 41.0708 116.489 40.8468 117.35 40.9586C118.21 41.0704 118.989 41.5088 119.516 42.1776C120.043 42.8465 120.274 43.6909 120.159 44.5249ZM118.113 13.7845C118.561 13.1226 119.216 12.6185 119.983 12.3475C120.75 12.0764 121.587 12.053 122.368 12.2805C123.163 12.4733 123.865 12.9248 124.357 13.5595C124.849 14.1942 125.102 14.9735 125.072 15.767C124.968 17.0397 124.772 18.3038 124.484 19.5497C123.708 23.7654 122.956 27.981 122.133 32.1512C121.757 33.8147 121.264 35.4098 120.723 37.096C120.535 37.6232 120.221 38.0995 119.806 38.4861C119.548 38.7769 119.219 38.9999 118.849 39.1346C118.479 39.2695 118.08 39.3115 117.688 39.257C117.297 39.2024 116.926 39.0531 116.61 38.8229C116.294 38.5924 116.043 38.2885 115.88 37.9392C115.601 37.3126 115.449 36.6392 115.434 35.9567C115.434 33.131 115.434 30.2827 115.622 27.4341C115.941 23.3691 116.57 19.3323 117.502 15.3568C117.612 14.8242 117.819 14.3149 118.113 13.8529V13.7845Z" fill="white"/>
<path fill-rule="evenodd" clip-rule="evenodd" d="M12.6629 62.8363C12.3854 63.437 12.3093 64.1066 12.4449 64.751C12.5351 65.6005 12.7333 66.436 13.0349 67.2386C13.4115 68.2213 13.8329 69.1931 14.3525 70.3909C14.472 70.6665 14.5969 70.9542 14.7275 71.2569C15.4282 72.8796 16.3074 74.9534 17.4801 77.9546C17.812 78.8071 18.1068 79.6667 18.4036 80.5322C18.5235 80.8819 18.6438 81.2327 18.767 81.5843C19.2085 82.8345 19.9682 83.9576 20.9752 84.8477C21.4029 85.3369 21.97 85.6934 22.606 85.8716C23.2544 86.0534 23.944 86.0419 24.5855 85.8386C25.227 85.6351 25.7905 85.2493 26.2027 84.7312C26.6068 84.2232 26.8471 83.611 26.8939 82.9715C27.1561 81.7257 27.0666 80.4339 26.6344 79.2328C25.9486 77.2386 25.1673 75.2415 24.2664 73.2881L24.2622 73.2795C22.7801 70.2234 21.2735 67.1883 19.6957 64.1521L19.6839 64.1308C19.222 63.3398 18.6217 62.6327 17.91 62.0412C17.448 61.5133 16.8107 61.1572 16.1069 61.0345C15.3881 60.9092 14.6467 61.0354 14.0152 61.391C13.4178 61.7217 12.9442 62.2277 12.6629 62.8363Z" fill="white"/>
<path fill-rule="evenodd" clip-rule="evenodd" d="M35.2998 55.3108C32.9759 54.7274 30.5489 54.6424 28.1879 55.0618C26.3592 55.2363 24.5606 55.6452 23.3117 56.4552C22.6765 56.8674 22.163 57.3967 21.8773 58.0695C21.5901 58.7459 21.5534 59.5195 21.7888 60.3815C22.2186 61.9604 22.7767 63.4955 23.3328 65.0257L23.4229 65.2735L23.4251 65.279C25.0996 69.7244 26.7901 74.1548 28.496 78.5699C28.6949 79.2657 28.9762 79.9369 29.3343 80.57L29.341 80.5817C29.8139 81.3682 30.4205 82.0717 31.1352 82.6625C31.4926 82.9874 31.9346 83.2121 32.4138 83.3126C32.8978 83.4139 33.4011 83.3845 33.8689 83.2274C34.337 83.0704 34.7513 82.7919 35.0672 82.4221C35.3779 82.0584 35.5813 81.6202 35.656 81.1538C35.9644 79.8869 35.8656 78.5588 35.3727 77.3477C35.219 76.9402 35.0983 76.5237 34.9712 76.0853C34.9288 75.9391 34.8858 75.7904 34.8405 75.6389C38.7453 74.1593 42.9001 72.1697 44.3611 67.5414C44.9332 65.942 44.9809 64.2101 44.4975 62.5831C44.0137 60.9544 43.0211 59.5107 41.6565 58.451C39.7992 56.9675 37.6296 55.8956 35.2998 55.3108ZM28.8582 60.9878C28.935 60.9663 29.0125 60.9464 29.0902 60.9278C31.6323 60.5404 34.2333 61.0566 36.414 62.381C37.3751 63.0289 37.7688 63.7488 37.8364 64.4415C37.9062 65.1547 37.6387 65.9275 37.1013 66.6704C36.0858 68.0738 34.2327 69.1971 32.5587 69.4064C31.3384 66.6822 30.0992 63.8477 28.8582 60.9878Z" fill="white"/>
<path d="M50.7931 50.3242C53.5605 49.0852 56.9887 48.8712 59.6712 49.7423C60.3468 49.9331 60.9329 50.3457 61.3294 50.9096C61.7232 51.4699 61.905 52.1452 61.8443 52.8203C61.8403 53.2586 61.7294 53.6897 61.5206 54.0787C61.3081 54.4747 61.0003 54.8152 60.6234 55.0716C60.2464 55.3278 59.8114 55.4926 59.355 55.5514C58.8984 55.6105 58.4341 55.562 58.001 55.4101L57.9681 55.3986L57.9371 55.3828C57.7155 55.2704 57.4801 55.1857 57.2367 55.1306L57.2213 55.1273C55.3342 54.6414 53.5542 55.4465 52.9041 56.4357C52.594 56.9073 52.5555 57.3834 52.8138 57.8166C53.0904 58.2804 53.7687 58.8009 55.1414 59.1718C55.519 59.2723 55.906 59.3692 56.2985 59.4678C57.3839 59.7402 58.512 60.0232 59.6028 60.4155L59.6069 60.4171C64.6392 62.2731 66.513 66.1171 65.8715 69.7326C65.2369 73.3081 62.1566 76.562 57.5243 77.3296C55.8387 77.6917 54.0846 77.6212 52.4355 77.1249C50.7822 76.6271 49.292 75.7188 48.1129 74.4898L48.0821 74.4577C47.7099 73.9947 47.4596 73.4508 47.3486 72.8736C47.2465 72.3527 47.3003 71.8144 47.5033 71.3221C47.7052 70.8326 48.0467 70.4091 48.4873 70.1005C48.9527 69.7506 49.5138 69.5407 50.1011 69.4969C50.6864 69.4533 51.2721 69.5767 51.7861 69.8515C52.2994 70.0919 52.7769 70.3985 53.2055 70.7633L53.2136 70.7699C53.9718 71.4421 54.8891 71.6172 55.7687 71.455C56.6612 71.2904 57.5004 70.7785 58.0402 70.0993C58.5765 69.4244 58.7917 68.6226 58.5362 67.8443C58.2792 67.0604 57.5062 66.182 55.8078 65.4477C55.3638 65.2649 54.9035 65.1176 54.4246 64.9741C54.2955 64.9354 54.1642 64.8969 54.0313 64.8578C53.6773 64.7536 53.3129 64.6463 52.9557 64.5281C52.7097 64.4468 52.4656 64.3697 52.2239 64.2933C51.5633 64.0848 50.9192 63.8815 50.2994 63.6088C48.9504 63.1636 47.7849 62.3087 46.9764 61.1706C46.1645 60.0279 45.7561 58.6615 45.8116 57.2753C45.816 53.8973 48.0108 51.57 50.7931 50.3242Z" fill="white"/>
<path d="M85.8791 49.9643C85.3424 49.7102 84.749 49.5896 84.1525 49.6133C83.5557 49.6371 82.9746 49.8044 82.4614 50.1005C81.9514 50.3945 81.5244 50.8061 81.2184 51.2989C80.9379 51.7138 80.7437 52.1778 80.6469 52.6651C80.5501 53.152 80.5525 53.6523 80.6536 54.138C80.7535 54.7623 80.8643 55.3694 80.9738 55.9681C81.1549 56.9588 81.3312 57.9273 81.4475 58.9148L81.4518 58.9398C81.7166 60.4884 81.8552 62.0545 81.8676 63.624L81.8688 63.6463C81.9593 65.3413 81.3635 67.0032 80.2092 68.2796L80.1909 68.3022C79.8153 68.7688 79.3132 69.1249 78.7405 69.3307C78.168 69.5365 77.5478 69.5838 76.9491 69.4673C76.3504 69.3509 75.797 69.0753 75.3507 68.6713C74.9043 68.2673 74.5824 67.7493 74.4217 67.1784C74.0787 65.975 73.8802 64.7371 73.8297 63.4898L74.4156 54.4474C74.4243 54.3294 74.4341 54.2082 74.4442 54.0859C74.4665 53.8112 74.4893 53.5315 74.4988 53.2706C74.5126 52.8867 74.5008 52.4919 74.4085 52.1182C74.3141 51.7363 74.1345 51.3729 73.8159 51.0635C73.5005 50.7573 73.0746 50.5313 72.5388 50.3775C71.5698 50.1056 70.7505 50.1142 70.0678 50.3951C69.3847 50.676 68.9167 51.1974 68.5855 51.7998C68.2569 52.3971 68.0457 53.1043 67.886 53.8126C67.7676 54.3382 67.6723 54.89 67.5818 55.4151C67.5505 55.5961 67.5199 55.7738 67.489 55.9464L67.4882 55.9515C67.004 58.8317 66.8599 61.7561 67.0586 64.668C67.0957 66.2416 67.4342 67.7948 68.0572 69.2484C68.76 71.124 70.0329 72.749 71.708 73.909C73.3867 75.0714 75.3899 75.7119 77.4524 75.7457C79.5149 75.7795 81.5394 75.2051 83.2577 74.0986C84.9732 72.9937 86.3027 71.4102 87.0704 69.5574C88.1442 67.1973 88.6485 64.6306 88.5444 62.053C88.4813 60.1711 88.3757 58.2748 88.2706 56.3881C88.219 55.4626 88.1675 54.5391 88.1214 53.6213C88.0981 52.7009 87.785 51.8094 87.224 51.0665C86.8768 50.5968 86.4147 50.218 85.8791 49.9643Z" fill="white"/>
<path d="M104.872 64.1431C104.818 64.2101 104.761 64.2795 104.701 64.3516C104.264 61.9108 103.86 59.4707 103.455 57.0269C103.309 56.1501 103.163 55.2696 103.016 54.3916L103 54.2937L102.946 54.2091C102.845 54.0498 102.835 53.8936 102.835 53.5606V53.5221L102.829 53.4839C102.719 52.7961 102.398 52.156 101.908 51.6475C101.419 51.1402 100.784 50.7873 100.086 50.634C99.3884 50.4673 98.6556 50.504 97.9796 50.7398C97.3053 50.9749 96.7177 51.3975 96.2899 51.9545C95.9342 52.382 95.6426 52.8561 95.4242 53.3628C94.9284 54.4542 94.4282 55.5483 93.9267 56.6454L93.918 56.6644C92.666 59.4033 91.4055 62.1606 90.1816 64.9395L90.1778 64.9485C89.4265 66.7504 88.8063 68.6491 88.1883 70.5418C88.0649 70.9197 87.9414 71.2973 87.8171 71.6739C87.5939 72.2712 87.4963 72.9057 87.5298 73.5399C87.4892 74.1077 87.6294 74.6741 87.9318 75.1626C88.2401 75.661 88.702 76.0531 89.2523 76.2839C89.8354 76.5317 90.4874 76.5843 91.105 76.4334C91.7213 76.2827 92.2685 75.938 92.6607 75.4532C93.1614 74.8561 93.5922 74.2049 93.9435 73.5149C94.9802 71.4591 95.9711 69.3783 96.9574 67.3065C97.3391 66.5051 97.7099 65.7874 98.1318 65.0058C98.1607 65.1022 98.1903 65.1962 98.2209 65.2904C98.6631 67.1775 99.4095 68.985 100.432 70.6468C100.626 70.9988 100.896 71.3065 101.223 71.5486C101.554 71.7937 101.936 71.9657 102.343 72.0531C102.75 72.1405 103.171 72.1409 103.578 72.0543C103.985 71.9679 104.368 71.7957 104.699 71.5518L105.355 71.0758L110.446 66.9191L110.145 68.7788C109.732 71.3352 109.322 73.8702 108.886 76.4059C108.601 77.5297 108.601 78.7036 108.887 79.8271C109.011 80.4594 109.327 81.0415 109.793 81.4992C110.264 81.9607 110.867 82.2742 111.524 82.3993C112.181 82.5242 112.861 82.455 113.477 82.2003C114.084 81.9495 114.6 81.5301 114.961 80.9955C115.8 79.986 116.323 78.7638 116.466 77.4744C116.682 75.6536 116.926 73.8079 117.17 71.9628C117.452 69.8361 117.733 67.7099 117.971 65.6246L117.971 65.6181C118.2 63.3354 118.311 61.0433 118.303 58.7499C118.353 58.0251 118.167 57.3031 117.77 56.6861C117.372 56.0669 116.783 55.5855 116.086 55.3101C115.361 54.9907 114.55 54.9053 113.772 55.0667C112.998 55.227 112.298 55.6222 111.773 56.1947C110.834 57.0365 109.953 57.9374 109.136 58.8914L109.131 58.8978C108.238 59.9754 107.353 61.074 106.472 62.1656C105.937 62.8292 105.403 63.4912 104.872 64.1431Z" fill="white"/>
</g>
<defs>
<clipPath id="clip0_434_365207">
<rect width="138" height="86" fill="white"/>
</clipPath>
</defs>
</svg>
