<svg width="24" height="24" viewBox="0 0 24 24" fill="none" xmlns="http://www.w3.org/2000/svg">
<path fill-rule="evenodd" clip-rule="evenodd" d="M2.5 21.75C2.5 21.1977 2.94772 20.75 3.5 20.75H20.5C21.0523 20.75 21.5 21.1977 21.5 21.75C21.5 22.3023 21.0523 22.75 20.5 22.75H3.5C2.94772 22.75 2.5 22.3023 2.5 21.75Z" fill="url(#paint0_linear_112_520)"/>
<path fill-rule="evenodd" clip-rule="evenodd" d="M6.81796 1.42709C7.42824 1.29303 8.15644 1.25 9 1.25H15C15.8436 1.25 16.5718 1.29303 17.1821 1.42709C17.8009 1.56303 18.3453 1.80257 18.7714 2.22867C19.1975 2.65476 19.437 3.19917 19.573 3.81795C19.707 4.42823 19.75 5.15644 19.75 6V22H4.25V6C4.25 5.15644 4.29303 4.42823 4.4271 3.81795C4.56303 3.19917 4.80258 2.65476 5.22867 2.22867C5.65477 1.80257 6.19918 1.56303 6.81796 1.42709ZM9.75 6C9.75 5.58579 10.0858 5.25 10.5 5.25H13.5C13.9143 5.25 14.25 5.58579 14.25 6C14.25 6.41421 13.9143 6.75 13.5 6.75H10.5C10.0858 6.75 9.75 6.41421 9.75 6ZM9.75 9.5C9.75 9.08579 10.0858 8.75 10.5 8.75H13.5C13.9143 8.75 14.25 9.08579 14.25 9.5C14.25 9.91421 13.9143 10.25 13.5 10.25H10.5C10.0858 10.25 9.75 9.91421 9.75 9.5ZM9.75 13C9.75 12.5858 10.0858 12.25 10.5 12.25H13.5C13.9143 12.25 14.25 12.5858 14.25 13C14.25 13.4142 13.9143 13.75 13.5 13.75H10.5C10.0858 13.75 9.75 13.4142 9.75 13ZM11.1667 16C10.4909 16 9.72918 16.0624 9.24009 16.6494C9.00452 16.932 8.89002 17.2698 8.82877 17.6044C8.76785 17.9372 8.75 18.3231 8.75 18.75V21.75H10.25V18.75C10.25 18.3496 10.2682 18.0718 10.3043 17.8745C10.3401 17.6789 10.3837 17.6201 10.3925 17.6096C10.396 17.6054 10.4004 17.6007 10.4125 17.5937C10.4267 17.5853 10.4573 17.5704 10.5158 17.555C10.6423 17.5217 10.842 17.5 11.1667 17.5H12.8334C13.1581 17.5 13.3578 17.5217 13.4843 17.555C13.5427 17.5704 13.5734 17.5853 13.5876 17.5937C13.5996 17.6007 13.6041 17.6054 13.6076 17.6096C13.6164 17.6201 13.66 17.6789 13.6958 17.8745C13.7319 18.0718 13.75 18.3496 13.75 18.75V21.75H15.25V18.75C15.25 18.3231 15.2322 17.9372 15.1713 17.6044C15.11 17.2698 14.9955 16.932 14.76 16.6494C14.2709 16.0624 13.5092 16 12.8334 16H11.1667Z" fill="url(#paint1_linear_112_520)"/>
<defs>
<linearGradient id="paint0_linear_112_520" x1="12" y1="20.75" x2="12" y2="22.75" gradientUnits="userSpaceOnUse">
<stop stop-color="#7DD4A2"/>
<stop offset="1" stop-color="#004F22"/>
</linearGradient>
<linearGradient id="paint1_linear_112_520" x1="12" y1="1.25" x2="12" y2="22" gradientUnits="userSpaceOnUse">
<stop stop-color="#7DD4A2"/>
<stop offset="1" stop-color="#004F22"/>
</linearGradient>
</defs>
</svg>
