<svg width="16" height="16" viewBox="0 0 16 16" fill="none" xmlns="http://www.w3.org/2000/svg">
<path d="M14.126 10.3773H13.6572V4.75232C13.6572 4.37936 13.5091 4.02167 13.2453 3.75795C12.9816 3.49423 12.6239 3.34607 12.251 3.34607H3.81348C3.44052 3.34607 3.08283 3.49423 2.81911 3.75795C2.55538 4.02167 2.40723 4.37936 2.40723 4.75232V10.3773H1.93848C1.81416 10.3773 1.69493 10.4267 1.60702 10.5146C1.51911 10.6025 1.46973 10.7217 1.46973 10.8461V11.7836C1.46973 12.1565 1.61788 12.5142 1.88161 12.7779C2.14533 13.0417 2.50302 13.1898 2.87598 13.1898H13.1885C13.5614 13.1898 13.9191 13.0417 14.1828 12.7779C14.4466 12.5142 14.5947 12.1565 14.5947 11.7836V10.8461C14.5947 10.7217 14.5453 10.6025 14.4574 10.5146C14.3695 10.4267 14.2503 10.3773 14.126 10.3773ZM3.34473 4.75232C3.34473 4.628 3.39411 4.50877 3.48202 4.42086C3.56993 4.33296 3.68916 4.28357 3.81348 4.28357H12.251C12.3753 4.28357 12.4945 4.33296 12.5824 4.42086C12.6703 4.50877 12.7197 4.628 12.7197 4.75232V10.3773H3.34473V4.75232ZM13.6572 11.7836C13.6572 11.9079 13.6078 12.0271 13.5199 12.115C13.432 12.2029 13.3128 12.2523 13.1885 12.2523H2.87598C2.75166 12.2523 2.63243 12.2029 2.54452 12.115C2.45661 12.0271 2.40723 11.9079 2.40723 11.7836V11.3148H13.6572V11.7836ZM9.43848 5.68982C9.43848 5.81414 9.38909 5.93337 9.30118 6.02128C9.21328 6.10918 9.09405 6.15857 8.96973 6.15857H7.09473C6.97041 6.15857 6.85118 6.10918 6.76327 6.02128C6.67536 5.93337 6.62598 5.81414 6.62598 5.68982C6.62598 5.5655 6.67536 5.44627 6.76327 5.35836C6.85118 5.27046 6.97041 5.22107 7.09473 5.22107H8.96973C9.09405 5.22107 9.21328 5.27046 9.30118 5.35836C9.38909 5.44627 9.43848 5.5655 9.43848 5.68982Z" fill="url(#paint0_linear_115_1086)"/>
<defs>
<linearGradient id="paint0_linear_115_1086" x1="8.03223" y1="3.34607" x2="8.03223" y2="13.1898" gradientUnits="userSpaceOnUse">
<stop stop-color="#7DD4A2"/>
<stop offset="1" stop-color="#004F22"/>
</linearGradient>
</defs>
</svg>
