<svg width="16" height="16" viewBox="0 0 16 16" fill="none" xmlns="http://www.w3.org/2000/svg">
<path d="M8.03223 1.93994C6.827 1.93994 5.64884 2.29733 4.64672 2.96692C3.64461 3.63651 2.86356 4.58823 2.40234 5.70171C1.94112 6.8152 1.82044 8.04045 2.05557 9.22252C2.2907 10.4046 2.87107 11.4904 3.7233 12.3426C4.57552 13.1948 5.66133 13.7752 6.8434 14.0104C8.02547 14.2455 9.25072 14.1248 10.3642 13.6636C11.4777 13.2024 12.4294 12.4213 13.099 11.4192C13.7686 10.4171 14.126 9.23892 14.126 8.03369C14.1243 6.41805 13.4817 4.86907 12.3393 3.72664C11.1968 2.58421 9.64787 1.94165 8.03223 1.93994ZM8.03223 13.1899C7.01242 13.1899 6.01551 12.8875 5.16757 12.321C4.31963 11.7544 3.65874 10.9491 3.26848 10.0069C2.87821 9.06472 2.7761 8.02797 2.97506 7.02776C3.17401 6.02754 3.6651 5.10879 4.38621 4.38767C5.10732 3.66656 6.02608 3.17547 7.02629 2.97652C8.02651 2.77756 9.06326 2.87967 10.0054 3.26994C10.9476 3.6602 11.7529 4.32109 12.3195 5.16903C12.8861 6.01697 13.1885 7.01388 13.1885 8.03369C13.1869 9.40074 12.6432 10.7113 11.6765 11.678C10.7099 12.6446 9.39928 13.1884 8.03223 13.1899ZM11.7822 8.03369C11.7822 8.15801 11.7328 8.27724 11.6449 8.36515C11.557 8.45306 11.4378 8.50244 11.3135 8.50244H8.03223C7.90791 8.50244 7.78868 8.45306 7.70077 8.36515C7.61287 8.27724 7.56348 8.15801 7.56348 8.03369V4.75244C7.56348 4.62812 7.61287 4.50889 7.70077 4.42099C7.78868 4.33308 7.90791 4.28369 8.03223 4.28369C8.15655 4.28369 8.27578 4.33308 8.36369 4.42099C8.45159 4.50889 8.50098 4.62812 8.50098 4.75244V7.56494H11.3135C11.4378 7.56494 11.557 7.61433 11.6449 7.70224C11.7328 7.79014 11.7822 7.90937 11.7822 8.03369Z" fill="url(#paint0_linear_115_1131)"/>
<defs>
<linearGradient id="paint0_linear_115_1131" x1="8.03223" y1="1.93994" x2="8.03223" y2="14.1274" gradientUnits="userSpaceOnUse">
<stop stop-color="#7DD4A2"/>
<stop offset="1" stop-color="#004F22"/>
</linearGradient>
</defs>
</svg>
