<svg width="17" height="17" viewBox="0 0 17 17" fill="none" xmlns="http://www.w3.org/2000/svg">
<path d="M14.5 8.5C14.5 8.63261 14.4473 8.75979 14.3536 8.85355C14.2598 8.94732 14.1326 9 14 9H9V14C9 14.1326 8.94732 14.2598 8.85355 14.3536C8.75979 14.4473 8.63261 14.5 8.5 14.5C8.36739 14.5 8.24021 14.4473 8.14645 14.3536C8.05268 14.2598 8 14.1326 8 14V9H3C2.86739 9 2.74021 8.94732 2.64645 8.85355C2.55268 8.75979 2.5 8.63261 2.5 8.5C2.5 8.36739 2.55268 8.24021 2.64645 8.14645C2.74021 8.05268 2.86739 8 3 8H8V3C8 2.86739 8.05268 2.74021 8.14645 2.64645C8.24021 2.55268 8.36739 2.5 8.5 2.5C8.63261 2.5 8.75979 2.55268 8.85355 2.64645C8.94732 2.74021 9 2.86739 9 3V8H14C14.1326 8 14.2598 8.05268 14.3536 8.14645C14.4473 8.24021 14.5 8.36739 14.5 8.5Z" fill="white"/>
</svg>
