<svg width="30" height="20" viewBox="0 0 30 20" fill="none" xmlns="http://www.w3.org/2000/svg">
<path d="M28.7459 3.12273C28.4195 1.89545 27.4537 0.927273 26.2251 0.595455C24.0035 2.12874e-07 15.0898 0 15.0898 0C15.0898 0 6.18076 2.12874e-07 3.95462 0.595455C2.73047 0.922727 1.76476 1.89091 1.43378 3.12273C0.839844 5.35 0.839844 10 0.839844 10C0.839844 10 0.839844 14.65 1.43378 16.8773C1.76022 18.1045 2.72594 19.0727 3.95462 19.4045C6.18076 20 15.0898 20 15.0898 20C15.0898 20 24.0035 20 26.2251 19.4045C27.4492 19.0773 28.4149 18.1091 28.7459 16.8773C29.3398 14.65 29.3398 10 29.3398 10C29.3398 10 29.3398 5.35 28.7459 3.12273Z" fill="white"/>
<path d="M12.2426 14.2864L19.6464 10L12.2426 5.71364V14.2864Z" fill="white"/>
<path d="M12.1729 14.0062V7.07777C12.1729 6.50027 12.775 6.1201 13.2964 6.36838L19.6224 9.38076C20.1838 9.64813 20.2269 10.4309 19.6981 10.7582L13.3721 14.6743C12.8487 14.9983 12.1729 14.6218 12.1729 14.0062Z" fill="black"/>
</svg>
