<svg width="157" height="30" viewBox="0 0 157 30" fill="none" xmlns="http://www.w3.org/2000/svg">
<g clip-path="url(#clip0_288_155065)">
<path d="M40.7785 24.0582C40.7596 23.6035 40.4501 23.2155 40.0084 23.0926C36.8792 22.221 34.9955 21.0043 33.9664 20.137C33.6136 19.8396 33.2972 19.5307 33.026 19.219L32.6798 18.8212L32.9695 18.3812L37.5804 11.3762C37.8377 10.9854 37.8061 10.4832 37.5019 10.127C37.3005 9.89107 37.0062 9.75593 36.6944 9.75593C36.5484 9.75593 36.4063 9.78545 36.2715 9.84375C33.7484 10.9362 30.6568 11.5138 27.3306 11.514C26.752 11.514 26.1605 11.4961 25.5729 11.4611L25.0202 11.4281L24.9217 10.8882C24.4014 8.034 23.0696 5.86315 20.9632 4.43582C18.8147 2.98003 15.8015 2.24192 12.0072 2.24192C9.82997 2.24192 7.84076 2.75058 6.55559 3.17718L5.7007 3.46093L5.62917 2.5702C5.51359 1.12891 4.27918 0 2.81908 0C1.26471 0 0 1.25341 0 2.79389C0 3.72967 0.473957 4.60101 1.26788 5.12469L1.51913 5.2904L1.57146 5.58498L5.2648 26.3427C5.35413 26.8444 5.7918 27.2085 6.30575 27.2085H7.71529C8.02854 27.2085 8.32365 27.0721 8.5249 26.8342C8.72648 26.5962 8.81069 26.2846 8.75625 25.9788L7.77639 20.4714L7.68729 19.9704L8.14096 19.7326C8.68489 19.4476 11.5846 18.026 15.2773 18.026C15.808 18.026 16.339 18.0558 16.8556 18.1147L17.378 18.1743L17.4693 18.6875L18.3446 23.6071C18.5259 24.5073 19.162 25.0748 19.6978 25.3058C20.1691 25.5096 24.4007 27.2727 29.6865 27.2727C33.6108 27.2727 37.0061 26.2205 40.0907 25.0833C40.5209 24.9246 40.7973 24.5125 40.7785 24.0582Z" fill="#4F5552"/>
<path fill-rule="evenodd" clip-rule="evenodd" d="M12.7643 11.8613C16.7729 11.5981 21.8521 12.2373 25.4498 16.4134C25.7676 16.7823 25.547 16.9703 25.8399 17.3963V17.9606L25.313 18.3165C22.0796 13.6153 17.0276 12.8484 12.8507 13.1224C11.0077 13.2556 9.38824 13.6778 8.22794 14.0683C7.64853 14.2633 7.18637 14.4495 6.87128 14.5857C6.71383 14.6539 6.59331 14.7094 6.51348 14.7473C6.47357 14.7662 6.44385 14.7807 6.42479 14.7901C6.41526 14.7948 6.4084 14.7983 6.40426 14.8003L6.39987 14.8026C6.39987 14.8026 6.40009 14.8024 6.10725 14.2411C5.8144 13.6797 5.8147 13.6795 5.8147 13.6795L5.81597 13.6789L5.81858 13.6776L5.82696 13.6733C5.83394 13.6699 5.84369 13.665 5.85616 13.6588C5.88109 13.6465 5.91687 13.6291 5.96305 13.6072C6.0554 13.5634 6.18938 13.5017 6.36121 13.4274C6.70474 13.2788 7.20037 13.0794 7.81783 12.8716C9.05073 12.4566 10.7801 12.0045 12.7601 11.8617L12.7622 11.8615L12.7643 11.8613Z" fill="#4F5552"/>
<path fill-rule="evenodd" clip-rule="evenodd" d="M12.3011 7.25894C16.6456 7.1313 22.0922 7.89698 24.9512 12.6452C25.2628 13.1627 24.8404 13.4215 25.0856 14.0376L25.1959 14.5755L24.6028 14.8075C22.4285 9.34769 17.0673 8.38359 12.3406 8.52221C10.4455 8.58875 8.73127 8.99689 7.48669 9.39146C6.86562 9.58837 6.36522 9.78071 6.02217 9.9228C5.85074 9.99378 5.71887 10.0521 5.63118 10.0921C5.58734 10.1121 5.55457 10.1274 5.53344 10.1374C5.52287 10.1425 5.51522 10.1462 5.51055 10.1484L5.5058 10.1507C5.5058 10.1507 5.50557 10.1509 5.22151 9.58509C4.93745 9.01932 4.93774 9.01919 4.93774 9.01919L4.93906 9.0185L4.94183 9.01714L4.95082 9.01278C4.95834 9.00916 4.96889 9.00405 4.9824 8.99764C5.00943 8.98482 5.04832 8.96662 5.09849 8.94378C5.19881 8.89803 5.34433 8.83373 5.5304 8.75662C5.90234 8.60259 6.43739 8.39716 7.09813 8.18764C8.41686 7.76962 10.2512 7.33066 12.2974 7.259L12.2992 7.25894H12.3011Z" fill="#4F5552"/>
<path d="M3.81424 4.23486C4.2771 3.9202 4.58085 3.39215 4.58085 2.79391C4.58085 1.8295 3.79204 1.04773 2.81893 1.04773C1.84582 1.04773 1.05701 1.8295 1.05701 2.79391C1.05701 3.63365 1.65518 4.33509 2.45227 4.5022L6.30577 26.1606H7.71532L3.81424 4.23486Z" fill="#4F5552"/>
<path d="M5.66574 8.70114L4.99463 4.92915C4.99463 4.92915 8.20946 3.28931 12.0068 3.28931C16.9403 3.28931 22.7326 4.4355 23.9015 11.1904C23.9021 11.1943 23.9028 11.1982 23.9035 11.2021C20.8913 7.73753 16.1608 7.14564 12.3004 7.25903L12.2986 7.2591L12.2968 7.25917C10.2505 7.33076 8.41621 7.76971 7.09748 8.1878C6.5134 8.37292 6.02755 8.55496 5.66574 8.70114Z" fill="#4F5552"/>
<path d="M5.8927 9.97699L6.49631 13.3696C6.82979 13.229 7.2768 13.0536 7.81713 12.8717C9.05002 12.4568 10.7794 12.0046 12.7594 11.8618L12.7615 11.8617L12.7636 11.8615C16.4937 11.6166 21.151 12.153 24.6789 15.5937C24.6167 15.2465 24.5536 14.8933 24.4901 14.5367C22.2481 9.31583 16.9873 8.3861 12.3399 8.52233C10.4448 8.58887 8.73058 8.99701 7.486 9.39158C6.86493 9.58849 6.36452 9.78083 6.02147 9.92292C5.97569 9.94187 5.93275 9.95994 5.8927 9.97699Z" fill="#4F5552"/>
<path d="M25.1195 18.0438C21.8806 13.5857 16.9448 12.8539 12.85 13.1224C11.007 13.2557 9.38761 13.6779 8.2273 14.0685C7.6479 14.2635 7.18573 14.4496 6.87065 14.5859C6.81763 14.6088 6.76876 14.6303 6.72424 14.6503L7.47989 18.8972C7.47989 18.8972 17.3468 13.2435 25.7084 21.3458C25.5998 20.7091 25.3902 19.546 25.1319 18.1123C25.1278 18.0895 25.1236 18.0667 25.1195 18.0438Z" fill="#4F5552"/>
<path d="M20.1355 24.3519C20.1355 24.3519 24.3646 26.2249 29.6865 26.2249C33.2728 26.2249 36.4347 25.313 39.7221 24.1012C37.2797 23.4211 35.5197 22.5351 34.2684 21.682C31.8234 22.2219 29.3496 22.3246 26.8815 22.0355C26.9348 22.3434 26.9878 22.6513 27.0403 22.9594L20.1355 24.3519Z" fill="#4F5552"/>
<path d="M26.6619 20.7759C28.7816 21.0592 30.8994 21.0382 32.9946 20.6847C31.8147 19.6165 31.4411 18.7851 31.4411 18.7851L32.7895 16.7367C30.0654 17.3782 27.7431 17.3146 26.0303 17.2286C26.2424 18.4107 26.454 19.593 26.6619 20.7759Z" fill="#4F5552"/>
<path d="M25.8085 15.993C27.7995 16.0971 30.5419 16.2145 33.8075 15.19L36.6945 10.8038C33.1611 12.3336 29.0102 12.755 25.1847 12.4859C25.3899 13.6554 25.5989 14.8243 25.8085 15.993Z" fill="#4F5552"/>
<path d="M96.8167 13.1975V25.7893H98.6272V13.1975H96.8167Z" fill="#4F5552"/>
<path d="M96.7678 11.0128C96.9798 11.1929 97.2979 11.2828 97.722 11.2828C98.1298 11.2828 98.4397 11.1929 98.6518 11.0128C98.8638 10.8329 98.9699 10.5711 98.9699 10.2274C98.9699 9.88375 98.8638 9.622 98.6518 9.442C98.4397 9.26193 98.1217 9.172 97.6976 9.172C97.2898 9.172 96.9798 9.26193 96.7678 9.442C96.5557 9.622 96.4497 9.87563 96.4497 10.2028C96.4497 10.5465 96.5557 10.8165 96.7678 11.0128Z" fill="#4F5552"/>
<path fill-rule="evenodd" clip-rule="evenodd" d="M101.255 29.3239L101.279 19.1866L101.255 13.1975H102.992L102.698 17.0757H102.943C103.155 16.0938 103.465 15.292 103.873 14.6702C104.281 14.0484 104.77 13.5902 105.341 13.2956C105.928 13.0011 106.589 12.8539 107.323 12.8539C108.318 12.8539 109.19 13.1074 109.941 13.6148C110.707 14.1056 111.303 14.8421 111.727 15.8239C112.151 16.8057 112.363 18.0084 112.363 19.432C112.363 20.8557 112.151 22.0666 111.727 23.0647C111.319 24.0629 110.748 24.8239 110.014 25.3475C109.28 25.8548 108.424 26.1084 107.445 26.1084C106.548 26.1084 105.789 25.9039 105.17 25.4947C104.55 25.0856 104.052 24.5211 103.677 23.8012C103.318 23.0647 103.065 22.2302 102.919 21.2975H102.625C102.723 21.9848 102.804 22.623 102.87 23.2121C102.935 23.7848 102.984 24.3166 103.016 24.8075C103.049 25.2984 103.065 25.7565 103.065 26.1821V29.3239H101.255ZM107.029 24.4393C107.763 24.4393 108.383 24.243 108.889 23.8502C109.411 23.4411 109.81 22.8684 110.088 22.1321C110.381 21.3793 110.528 20.4712 110.528 19.4074C110.528 18.4093 110.397 17.5502 110.136 16.8302C109.875 16.0938 109.484 15.5293 108.962 15.1366C108.456 14.7274 107.82 14.523 107.054 14.523C106.385 14.523 105.798 14.6784 105.292 14.9893C104.803 15.2839 104.395 15.6684 104.069 16.143C103.759 16.6012 103.522 17.092 103.359 17.6157C103.196 18.1393 103.114 18.6302 103.114 19.0884V19.3584C103.114 19.6366 103.155 19.9965 103.237 20.4384C103.318 20.8638 103.449 21.3057 103.628 21.7639C103.808 22.2221 104.044 22.6557 104.338 23.0647C104.648 23.4738 105.023 23.8093 105.463 24.0712C105.92 24.3166 106.442 24.4393 107.029 24.4393Z" fill="#4F5552"/>
<path d="M117.127 25.8384C117.795 26.0184 118.538 26.1084 119.353 26.1084C120.397 26.1084 121.302 25.9693 122.069 25.6912C122.836 25.3966 123.431 24.9793 123.855 24.4393C124.279 23.8993 124.491 23.2448 124.491 22.4756C124.491 21.7721 124.345 21.1993 124.051 20.7574C123.774 20.3157 123.399 19.9639 122.926 19.702C122.452 19.4402 121.922 19.2438 121.335 19.1129C120.764 18.9657 120.185 18.8348 119.598 18.7202C118.929 18.6057 118.317 18.4748 117.763 18.3274C117.208 18.1802 116.768 17.9675 116.442 17.6893C116.115 17.3948 115.952 16.9856 115.952 16.4621C115.952 15.8239 116.221 15.3248 116.76 14.9647C117.314 14.6048 118.04 14.4247 118.937 14.4247C119.606 14.4247 120.193 14.5312 120.699 14.7439C121.221 14.9566 121.621 15.292 121.898 15.7502C122.191 16.1921 122.322 16.7648 122.289 17.4684L123.929 17.1738C123.961 16.2084 123.766 15.4066 123.341 14.7684C122.917 14.1302 122.33 13.6557 121.58 13.3448C120.829 13.0175 119.981 12.8539 119.035 12.8539C118.056 12.8539 117.2 13.0093 116.466 13.3202C115.748 13.6312 115.194 14.0648 114.802 14.6211C114.411 15.1775 114.215 15.832 114.215 16.5847C114.215 17.2556 114.346 17.8039 114.607 18.2293C114.884 18.6547 115.251 18.9984 115.708 19.2602C116.181 19.5057 116.711 19.7102 117.298 19.8739C117.885 20.0212 118.481 20.1521 119.084 20.2665C119.769 20.3975 120.389 20.5448 120.944 20.7084C121.498 20.8557 121.93 21.0684 122.24 21.3465C122.567 21.6248 122.73 22.0257 122.73 22.5493C122.73 23.1548 122.444 23.6457 121.873 24.0221C121.303 24.3821 120.487 24.5621 119.427 24.5621C118.66 24.5621 117.983 24.4557 117.396 24.243C116.825 24.0138 116.393 23.662 116.099 23.1875C115.805 22.713 115.691 22.0747 115.757 21.273L114.068 21.4939C114.019 22.2957 114.117 22.9911 114.362 23.5802C114.607 24.1693 114.957 24.652 115.414 25.0284C115.887 25.3884 116.458 25.6584 117.127 25.8384Z" fill="#4F5552"/>
<path d="M139.254 25.7893V19.8002L139.205 13.1975H140.943L140.551 18.7448H140.82C140.967 17.403 141.212 16.2984 141.554 15.4312C141.913 14.5638 142.378 13.9174 142.949 13.4921C143.52 13.0666 144.205 12.8539 145.004 12.8539C145.852 12.8539 146.537 13.0829 147.059 13.5411C147.581 13.9993 147.948 14.6702 148.16 15.5539C148.389 16.4211 148.462 17.4766 148.381 18.7202H148.65C148.764 17.4112 148.992 16.323 149.335 15.4556C149.677 14.5884 150.142 13.942 150.73 13.5165C151.317 13.0748 152.043 12.8539 152.907 12.8539C153.543 12.8539 154.106 12.9765 154.595 13.222C155.085 13.4675 155.493 13.8439 155.819 14.3511C156.145 14.8421 156.39 15.4639 156.553 16.2166C156.716 16.9693 156.797 17.8366 156.797 18.8184V25.7893H154.987V19.1129C154.987 18.0656 154.897 17.2066 154.718 16.5357C154.555 15.8648 154.294 15.3738 153.935 15.063C153.576 14.7357 153.111 14.5721 152.54 14.5721C151.79 14.5721 151.145 14.8502 150.607 15.4066C150.085 15.9629 149.677 16.7402 149.384 17.7384C149.107 18.7202 148.952 19.8902 148.919 21.2484V25.7893H147.133V19.0884C147.133 18.0739 147.043 17.2311 146.864 16.5602C146.684 15.8893 146.415 15.3902 146.056 15.063C145.714 14.7357 145.257 14.5721 144.686 14.5721C143.952 14.5721 143.316 14.8502 142.778 15.4066C142.256 15.9466 141.84 16.7239 141.53 17.7384C141.236 18.7365 141.073 19.9148 141.04 21.273V25.7893H139.254Z" fill="#4F5552"/>
<path d="M130.563 26.1083C129.095 26.1083 128.01 25.5766 127.309 24.513C126.624 23.4493 126.281 21.813 126.281 19.6039V13.1975H128.116V19.5793C128.116 21.2647 128.336 22.5002 128.777 23.2856C129.217 24.0548 129.943 24.4393 130.954 24.4393C131.558 24.4393 132.088 24.3002 132.545 24.0221C133.001 23.7275 133.393 23.3021 133.719 22.7456C134.045 22.1893 134.298 21.4857 134.478 20.6348C134.657 19.7838 134.755 18.7939 134.771 17.6648V13.1975H136.582V19.5302L136.606 25.7893H134.894L135.285 20.7084H135.016C134.853 21.9521 134.575 22.9748 134.184 23.7766C133.809 24.5621 133.32 25.1511 132.716 25.5438C132.129 25.9202 131.411 26.1083 130.563 26.1083Z" fill="#4F5552"/>
<path fill-rule="evenodd" clip-rule="evenodd" d="M88.5908 26.1329C87.3674 26.1329 86.2827 25.8793 85.3366 25.372C84.3905 24.8648 83.6483 24.112 83.11 23.1138C82.5718 22.1157 82.3026 20.872 82.3026 19.3829C82.3026 17.8611 82.5799 16.6011 83.1345 15.6029C83.6891 14.6048 84.4394 13.8601 85.3855 13.3693C86.3316 12.8784 87.4 12.6329 88.5908 12.6329C89.7978 12.6329 90.8744 12.8866 91.8205 13.3938C92.7666 13.9011 93.5087 14.6538 94.047 15.652C94.5853 16.6502 94.8545 17.902 94.8545 19.4074C94.8545 20.9293 94.5772 22.1893 94.0226 23.1875C93.4843 24.1857 92.7339 24.9302 91.7715 25.4211C90.8255 25.8956 89.7652 26.1329 88.5908 26.1329ZM88.6642 23.752C89.3166 23.752 89.8631 23.5884 90.3035 23.2611C90.7602 22.9338 91.1109 22.4593 91.3556 21.8375C91.6003 21.1993 91.7226 20.4384 91.7226 19.5548C91.7226 18.622 91.5921 17.8284 91.3311 17.1738C91.0865 16.5193 90.7194 16.012 90.2301 15.652C89.7571 15.292 89.1861 15.112 88.5174 15.112C87.8649 15.112 87.3103 15.2838 86.8536 15.6275C86.3968 15.9548 86.0461 16.4375 85.8015 17.0757C85.5568 17.6975 85.4345 18.4502 85.4345 19.3338C85.4345 20.7247 85.7199 21.8129 86.2908 22.5984C86.8617 23.3674 87.6528 23.752 88.6642 23.752Z" fill="#4F5552"/>
<path fill-rule="evenodd" clip-rule="evenodd" d="M71.4853 29.422C72.3335 29.6511 73.4672 29.7656 74.8863 29.7656C76.4685 29.7656 77.7734 29.6184 78.8011 29.3239C79.8287 29.0456 80.5954 28.612 81.101 28.0229C81.623 27.4339 81.884 26.6811 81.884 25.7648C81.884 24.9466 81.7046 24.3166 81.3457 23.8747C81.0032 23.4165 80.5709 23.0893 80.0489 22.8929C79.5433 22.6966 79.0376 22.582 78.5319 22.5493C78.0263 22.5001 77.6185 22.4756 77.3086 22.4756H73.5895C73.3448 22.4756 73.1165 22.4675 72.9044 22.4511C72.7087 22.4183 72.5455 22.3775 72.4151 22.3284C72.3009 22.2629 72.2438 22.1648 72.2438 22.0339C72.2438 21.8865 72.3417 21.7311 72.5374 21.5675C72.7494 21.3875 73.0675 21.1993 73.4916 21.0029C73.8342 21.0684 74.1523 21.1175 74.4459 21.1502C74.7395 21.1666 75.0331 21.1748 75.3267 21.1748C76.4522 21.1748 77.3983 21.0357 78.1649 20.7574C78.9479 20.4629 79.5351 20.062 79.9266 19.5548C80.3181 19.0311 80.5138 18.442 80.5138 17.7875C80.5138 17.1329 80.2773 16.5847 79.8043 16.1429C79.3312 15.6848 78.5156 15.3575 77.3575 15.1611V14.8666L81.5904 15.4311V12.9275H75.2288C74.0544 12.9275 73.0512 13.1074 72.2193 13.4675C71.3874 13.8111 70.7513 14.302 70.3108 14.9401C69.8704 15.562 69.6502 16.282 69.6502 17.1002C69.6502 18.0329 69.9112 18.802 70.4332 19.4074C70.9715 19.9965 71.73 20.3648 72.7087 20.512V20.8065C71.681 20.9375 70.947 21.1748 70.5066 21.5184C70.0662 21.862 69.846 22.2548 69.846 22.6966C69.846 23.1711 70.0743 23.5311 70.5311 23.7766C71.0041 24.0057 71.681 24.1202 72.5619 24.1202V24.3902C71.42 24.5539 70.5555 24.8648 69.9683 25.3229C69.3974 25.7811 69.1119 26.3702 69.1119 27.0902C69.1119 27.6302 69.2914 28.0966 69.6502 28.4893C70.0254 28.8984 70.6371 29.2093 71.4853 29.422ZM77.5043 26.9183C76.9008 27.0329 76.0363 27.0902 74.9107 27.0902C74.2746 27.0902 73.72 27.0657 73.247 27.0166C72.7902 26.9674 72.4314 26.8611 72.1704 26.6974C71.9094 26.5339 71.7789 26.2884 71.7789 25.9611C71.7789 25.6339 71.9176 25.3475 72.1948 25.102C72.4721 24.8566 72.9615 24.6274 73.6629 24.4147H76.8192C77.0313 24.4147 77.2678 24.4229 77.5288 24.4392C77.7898 24.4557 78.0426 24.5048 78.2873 24.5866C78.5483 24.652 78.7603 24.7748 78.9234 24.9547C79.0865 25.1184 79.1681 25.3639 79.1681 25.6911C79.1681 25.9857 79.0458 26.2393 78.8011 26.452C78.5564 26.6648 78.1242 26.8202 77.5043 26.9183ZM76.9416 18.7939C76.5338 19.1866 75.9547 19.3829 75.2044 19.3829C74.6987 19.3829 74.2583 19.2929 73.8831 19.1129C73.5079 18.9329 73.2143 18.6792 73.0023 18.352C72.8065 18.0083 72.7087 17.6239 72.7087 17.1983C72.7087 16.5439 72.9289 16.0039 73.3693 15.5784C73.8097 15.1529 74.4051 14.9401 75.1554 14.9401C75.9058 14.9401 76.493 15.1529 76.9171 15.5784C77.3575 16.0039 77.5777 16.552 77.5777 17.2229C77.5777 17.8774 77.3657 18.4011 76.9416 18.7939Z" fill="#4F5552"/>
<path fill-rule="evenodd" clip-rule="evenodd" d="M62.0322 26.1329C60.8088 26.1329 59.7241 25.8793 58.778 25.372C57.8319 24.8648 57.0897 24.112 56.5514 23.1138C56.0132 22.1157 55.744 20.872 55.744 19.3829C55.744 17.8611 56.0213 16.6011 56.5759 15.6029C57.1305 14.6048 57.8808 13.8601 58.8269 13.3693C59.773 12.8784 60.8414 12.6329 62.0322 12.6329C63.2392 12.6329 64.3158 12.8866 65.2619 13.3938C66.208 13.9011 66.9501 14.6538 67.4884 15.652C68.0266 16.6502 68.2957 17.902 68.2957 19.4074C68.2957 20.9293 68.0184 22.1893 67.464 23.1875C66.9257 24.1857 66.1753 24.9302 65.213 25.4211C64.2669 25.8956 63.2066 26.1329 62.0322 26.1329ZM62.1056 23.752C62.758 23.752 63.3045 23.5884 63.7449 23.2611C64.2016 22.9338 64.5523 22.4593 64.797 21.8375C65.0417 21.1993 65.164 20.4384 65.164 19.5548C65.164 18.622 65.0335 17.8284 64.7725 17.1738C64.5279 16.5193 64.1608 16.012 63.6715 15.652C63.1985 15.292 62.6275 15.112 61.9588 15.112C61.3063 15.112 60.7517 15.2838 60.295 15.6275C59.8383 15.9548 59.4875 16.4375 59.2429 17.0757C58.9982 17.6975 58.8759 18.4502 58.8759 19.3338C58.8759 20.7247 59.1613 21.8129 59.7322 22.5984C60.3031 23.3674 61.0942 23.752 62.1056 23.752Z" fill="#4F5552"/>
<path d="M45.5128 9.58936V25.7893H55.3978V23.1139H48.6202V9.58936H45.5128Z" fill="#4F5552"/>
</g>
<defs>
<clipPath id="clip0_288_155065">
<rect width="157" height="30" fill="white"/>
</clipPath>
</defs>
</svg>
