<svg width="18" height="19" viewBox="0 0 18 19" fill="none" xmlns="http://www.w3.org/2000/svg">
<path d="M2.625 11.8787V4.625C2.625 3.79657 3.29657 3.125 4.125 3.125H13.875C14.7034 3.125 15.375 3.79657 15.375 4.625V15.5C15.375 16.3284 14.7034 17 13.875 17H7.7463C7.34849 17 6.96697 16.842 6.68566 16.5606L3.06434 12.9394C2.78303 12.658 2.625 12.2765 2.625 11.8787Z" stroke="white" stroke-width="1.25"/>
<path d="M12.75 2V3.875M9 2V3.875M5.25 2V3.875" stroke="white" stroke-width="1.25" stroke-linecap="round" stroke-linejoin="round"/>
<path d="M10.125 11.75H11.625M6.375 8H11.625" stroke="white" stroke-width="1.25" stroke-linecap="round" stroke-linejoin="round"/>
<path d="M3 12.125H6.375C7.20343 12.125 7.875 12.7966 7.875 13.625V17" stroke="white" stroke-width="1.25" stroke-linejoin="round"/>
</svg>
