<svg width="21" height="20" viewBox="0 0 21 20" fill="none" xmlns="http://www.w3.org/2000/svg">
<path d="M7.49933 10C7.49933 8.15912 8.99214 6.6664 10.8341 6.6664C12.6761 6.6664 14.1697 8.15912 14.1697 10C14.1697 11.8409 12.6761 13.3336 10.8341 13.3336C8.99214 13.3336 7.49933 11.8409 7.49933 10ZM5.69616 10C5.69616 12.836 7.99642 15.1349 10.8341 15.1349C13.6718 15.1349 15.9721 12.836 15.9721 10C15.9721 7.164 13.6718 4.86512 10.8341 4.86512C7.99642 4.86512 5.69616 7.164 5.69616 10ZM14.9748 4.66152C14.9747 4.89886 15.045 5.13089 15.1769 5.32829C15.3087 5.52568 15.4962 5.67956 15.7155 5.77047C15.9349 5.86138 16.1763 5.88524 16.4093 5.83904C16.6422 5.79283 16.8562 5.67862 17.0242 5.51087C17.1922 5.34311 17.3066 5.12934 17.353 4.89658C17.3995 4.66382 17.3758 4.42253 17.285 4.20322C17.1942 3.98392 17.0404 3.79644 16.843 3.6645C16.6456 3.53257 16.4134 3.4621 16.176 3.462H16.1755C15.8572 3.46215 15.5519 3.58856 15.3268 3.81347C15.1017 4.03837 14.975 4.34339 14.9748 4.66152ZM6.7917 18.1398C5.81616 18.0954 5.28592 17.933 4.93355 17.7958C4.46639 17.614 4.13307 17.3975 3.78262 17.0478C3.43217 16.698 3.21524 16.3652 3.03417 15.8983C2.89681 15.5463 2.73431 15.0162 2.68996 14.0413C2.64145 12.9872 2.63177 12.6706 2.63177 10.0001C2.63177 7.3296 2.64225 7.01384 2.68996 5.95888C2.73439 4.98392 2.89809 4.45488 3.03417 4.10184C3.21604 3.63496 3.43265 3.30184 3.78262 2.9516C4.13259 2.60136 4.46559 2.38456 4.93355 2.2036C5.28576 2.06632 5.81616 1.90392 6.7917 1.8596C7.84641 1.81112 8.16324 1.80144 10.8341 1.80144C13.505 1.80144 13.8222 1.81192 14.8778 1.8596C15.8533 1.904 16.3827 2.0676 16.7359 2.2036C17.2031 2.38456 17.5364 2.60184 17.8868 2.9516C18.2373 3.30136 18.4534 3.63496 18.6353 4.10184C18.7726 4.45384 18.9351 4.98392 18.9795 5.95888C19.028 7.01384 19.0377 7.3296 19.0377 10.0001C19.0377 12.6706 19.028 12.9863 18.9795 14.0413C18.9351 15.0162 18.7718 15.5462 18.6353 15.8983C18.4534 16.3652 18.2368 16.6983 17.8868 17.0478C17.5369 17.3972 17.2031 17.614 16.7359 17.7958C16.3837 17.933 15.8533 18.0954 14.8778 18.1398C13.823 18.1882 13.5062 18.1979 10.8341 18.1979C8.16204 18.1979 7.84609 18.1882 6.7917 18.1398ZM6.70885 0.06056C5.64365 0.10904 4.91578 0.27784 4.28012 0.52504C3.6218 0.78032 3.06451 1.1228 2.50761 1.67848C1.95072 2.23416 1.60891 2.792 1.35348 3.44992C1.10613 4.0856 0.93723 4.81264 0.888721 5.8772C0.839412 6.94344 0.828125 7.28432 0.828125 10C0.828125 12.7157 0.839412 13.0566 0.888721 14.1228C0.93723 15.1874 1.10613 15.9144 1.35348 16.5501C1.60891 17.2076 1.9508 17.7661 2.50761 18.3215C3.06443 18.877 3.6218 19.219 4.28012 19.475C4.91698 19.7222 5.64365 19.891 6.70885 19.9394C7.77629 19.9879 8.11682 20 10.8341 20C13.5514 20 13.8925 19.9887 14.9594 19.9394C16.0247 19.891 16.7521 19.7222 17.3881 19.475C18.0461 19.219 18.6037 18.8772 19.1606 18.3215C19.7175 17.7658 20.0586 17.2076 20.3148 16.5501C20.5621 15.9144 20.7318 15.1874 20.7795 14.1228C20.828 13.0558 20.8393 12.7157 20.8393 10C20.8393 7.28432 20.828 6.94344 20.7795 5.8772C20.731 4.81256 20.5621 4.0852 20.3148 3.44992C20.0586 2.7924 19.7167 2.23504 19.1606 1.67848C18.6046 1.12192 18.0461 0.78032 17.3889 0.52504C16.7521 0.27784 16.0246 0.10824 14.9602 0.06056C13.8933 0.01208 13.5522 0 10.8349 0C8.11762 0 7.77629 0.01128 6.70885 0.06056Z" fill="white"/>
<path d="M7.49933 10C7.49933 8.15912 8.99214 6.6664 10.8341 6.6664C12.6761 6.6664 14.1697 8.15912 14.1697 10C14.1697 11.8409 12.6761 13.3336 10.8341 13.3336C8.99214 13.3336 7.49933 11.8409 7.49933 10ZM5.69616 10C5.69616 12.836 7.99642 15.1349 10.8341 15.1349C13.6718 15.1349 15.9721 12.836 15.9721 10C15.9721 7.164 13.6718 4.86512 10.8341 4.86512C7.99642 4.86512 5.69616 7.164 5.69616 10ZM14.9748 4.66152C14.9747 4.89886 15.045 5.13089 15.1769 5.32829C15.3087 5.52568 15.4962 5.67956 15.7155 5.77047C15.9349 5.86138 16.1763 5.88524 16.4093 5.83904C16.6422 5.79283 16.8562 5.67862 17.0242 5.51087C17.1922 5.34311 17.3066 5.12934 17.353 4.89658C17.3995 4.66382 17.3758 4.42253 17.285 4.20322C17.1942 3.98392 17.0404 3.79644 16.843 3.6645C16.6456 3.53257 16.4134 3.4621 16.176 3.462H16.1755C15.8572 3.46215 15.5519 3.58856 15.3268 3.81347C15.1017 4.03837 14.975 4.34339 14.9748 4.66152ZM6.7917 18.1398C5.81616 18.0954 5.28592 17.933 4.93355 17.7958C4.46639 17.614 4.13307 17.3975 3.78262 17.0478C3.43217 16.698 3.21524 16.3652 3.03417 15.8983C2.89681 15.5463 2.73431 15.0162 2.68996 14.0413C2.64145 12.9872 2.63177 12.6706 2.63177 10.0001C2.63177 7.3296 2.64225 7.01384 2.68996 5.95888C2.73439 4.98392 2.89809 4.45488 3.03417 4.10184C3.21604 3.63496 3.43265 3.30184 3.78262 2.9516C4.13259 2.60136 4.46559 2.38456 4.93355 2.2036C5.28576 2.06632 5.81616 1.90392 6.7917 1.8596C7.84641 1.81112 8.16324 1.80144 10.8341 1.80144C13.505 1.80144 13.8222 1.81192 14.8778 1.8596C15.8533 1.904 16.3827 2.0676 16.7359 2.2036C17.2031 2.38456 17.5364 2.60184 17.8868 2.9516C18.2373 3.30136 18.4534 3.63496 18.6353 4.10184C18.7726 4.45384 18.9351 4.98392 18.9795 5.95888C19.028 7.01384 19.0377 7.3296 19.0377 10.0001C19.0377 12.6706 19.028 12.9863 18.9795 14.0413C18.9351 15.0162 18.7718 15.5462 18.6353 15.8983C18.4534 16.3652 18.2368 16.6983 17.8868 17.0478C17.5369 17.3972 17.2031 17.614 16.7359 17.7958C16.3837 17.933 15.8533 18.0954 14.8778 18.1398C13.823 18.1882 13.5062 18.1979 10.8341 18.1979C8.16204 18.1979 7.84609 18.1882 6.7917 18.1398ZM6.70885 0.06056C5.64365 0.10904 4.91578 0.27784 4.28012 0.52504C3.6218 0.78032 3.06451 1.1228 2.50761 1.67848C1.95072 2.23416 1.60891 2.792 1.35348 3.44992C1.10613 4.0856 0.93723 4.81264 0.888721 5.8772C0.839412 6.94344 0.828125 7.28432 0.828125 10C0.828125 12.7157 0.839412 13.0566 0.888721 14.1228C0.93723 15.1874 1.10613 15.9144 1.35348 16.5501C1.60891 17.2076 1.9508 17.7661 2.50761 18.3215C3.06443 18.877 3.6218 19.219 4.28012 19.475C4.91698 19.7222 5.64365 19.891 6.70885 19.9394C7.77629 19.9879 8.11682 20 10.8341 20C13.5514 20 13.8925 19.9887 14.9594 19.9394C16.0247 19.891 16.7521 19.7222 17.3881 19.475C18.0461 19.219 18.6037 18.8772 19.1606 18.3215C19.7175 17.7658 20.0586 17.2076 20.3148 16.5501C20.5621 15.9144 20.7318 15.1874 20.7795 14.1228C20.828 13.0558 20.8393 12.7157 20.8393 10C20.8393 7.28432 20.828 6.94344 20.7795 5.8772C20.731 4.81256 20.5621 4.0852 20.3148 3.44992C20.0586 2.7924 19.7167 2.23504 19.1606 1.67848C18.6046 1.12192 18.0461 0.78032 17.3889 0.52504C16.7521 0.27784 16.0246 0.10824 14.9602 0.06056C13.8933 0.01208 13.5522 0 10.8349 0C8.11762 0 7.77629 0.01128 6.70885 0.06056Z" fill="white"/>
</svg>
