<svg width="173" height="30" viewBox="0 0 173 30" fill="none" xmlns="http://www.w3.org/2000/svg">
<g clip-path="url(#clip0_288_155090)">
<path d="M14.8531 1.99279L17.1287 0L34.2574 15L17.1287 30L14.853 28.0072L29.7062 15L14.8531 1.99279Z" fill="#4F5552"/>
<path d="M11.8826 4.59423L14.1581 2.60144L28.3162 15L14.1581 27.3985L11.8826 25.4058L23.765 15L11.8826 4.59423Z" fill="#4F5552"/>
<path d="M0 15L11.1874 5.20288L22.3749 15L11.1874 24.7971L8.9119 22.8043L17.8237 15L11.1874 9.18847L2.27559 16.9927L0 15Z" fill="#4F5552"/>
<path d="M11.1875 10.4058L8.91193 12.3985L11.8826 15L5.94128 20.2029L8.21687 22.1956L16.4338 15L11.1875 10.4058Z" fill="#4F5552"/>
<path d="M5.24617 19.5942L2.97058 17.6014L8.19299 13.0281L10.4686 15.0208L5.24617 19.5942Z" fill="#4F5552"/>
<path d="M166.495 9.62866C167.598 9.62866 168.583 9.82921 169.448 10.2305C170.33 10.6316 171.017 11.226 171.509 12.0136C172.019 12.8012 172.273 13.7522 172.273 14.8666V22.1106H169.397V15.2455C169.397 14.1459 169.083 13.3064 168.455 12.7268C167.827 12.1325 166.97 11.8352 165.884 11.8352C164.798 11.8352 163.933 12.1325 163.288 12.7268C162.66 13.3064 162.346 14.1459 162.346 15.2455V22.1106H159.47V15.2455C159.47 14.1459 159.157 13.3064 158.529 12.7268C157.901 12.1325 157.044 11.8352 155.958 11.8352C154.872 11.8352 154.007 12.1325 153.362 12.7268C152.734 13.3064 152.42 14.1459 152.42 15.2455V22.1106H149.518V9.82921H152.42V11.2334C152.895 10.7282 153.497 10.3345 154.227 10.0521C154.957 9.76981 155.737 9.62866 156.568 9.62866C157.689 9.62866 158.69 9.83664 159.572 10.2527C160.454 10.6688 161.133 11.2706 161.609 12.0581C162.033 11.3152 162.695 10.7282 163.594 10.2973C164.493 9.85149 165.46 9.62866 166.495 9.62866Z" fill="#4F5552"/>
<path d="M146.581 9.82922V22.1105H143.679V20.6618C143.221 21.167 142.619 21.5682 141.872 21.8654C141.142 22.1477 140.362 22.2889 139.53 22.2889C138.427 22.2889 137.435 22.0883 136.553 21.6871C135.687 21.2858 135 20.6915 134.491 19.904C133.999 19.1164 133.753 18.1654 133.753 17.0509V9.82922H136.629V16.672C136.629 17.7716 136.943 18.6186 137.571 19.213C138.199 19.7925 139.055 20.0822 140.141 20.0822C141.227 20.0822 142.084 19.7925 142.712 19.213C143.357 18.6186 143.679 17.7716 143.679 16.672V9.82922H146.581Z" fill="#4F5552"/>
<path d="M126.265 22.3112C125.162 22.3112 124.169 22.1403 123.287 21.7985C122.421 21.4419 121.735 20.9664 121.226 20.372C120.716 19.7628 120.445 19.0867 120.411 18.3437H123.415C123.465 18.8638 123.745 19.3022 124.254 19.6588C124.78 20.0006 125.434 20.1714 126.215 20.1714C127.029 20.1714 127.657 20.0377 128.098 19.7702C128.556 19.4879 128.785 19.1312 128.785 18.7004C128.785 18.2397 128.53 17.8979 128.022 17.675C127.529 17.4521 126.74 17.207 125.654 16.9395C124.602 16.6869 123.745 16.4417 123.083 16.204C122.421 15.9662 121.845 15.6021 121.353 15.1118C120.878 14.6214 120.64 13.9751 120.64 13.1726C120.64 12.5188 120.861 11.9244 121.302 11.3895C121.743 10.8397 122.371 10.4087 123.185 10.0967C124.017 9.78466 124.967 9.62866 126.036 9.62866C127.631 9.62866 128.912 9.98529 129.879 10.6985C130.863 11.3969 131.389 12.3554 131.458 13.5738H128.556C128.505 13.024 128.25 12.5857 127.792 12.2588C127.334 11.9318 126.715 11.7684 125.935 11.7684C125.171 11.7684 124.586 11.8947 124.178 12.1473C123.771 12.3999 123.567 12.7343 123.567 13.1504C123.567 13.4772 123.703 13.7522 123.974 13.9751C124.246 14.1979 124.577 14.3762 124.967 14.51C125.357 14.6288 125.935 14.7848 126.698 14.978C127.716 15.2158 128.548 15.461 129.192 15.7136C129.854 15.9513 130.422 16.3079 130.898 16.7835C131.373 17.259 131.619 17.8905 131.636 18.6781C131.636 19.3765 131.415 20.0006 130.974 20.5504C130.533 21.1001 129.905 21.5311 129.09 21.8432C128.293 22.1552 127.351 22.3112 126.265 22.3112Z" fill="#4F5552"/>
<path d="M107.717 11.6347C108.209 11.07 108.879 10.5945 109.728 10.2082C110.576 9.82179 111.535 9.62866 112.604 9.62866C113.825 9.62866 114.937 9.89611 115.938 10.431C116.957 10.9511 117.754 11.6867 118.331 12.6377C118.907 13.5887 119.196 14.6809 119.196 15.9142C119.196 17.1476 118.907 18.2546 118.331 19.2353C117.754 20.2012 116.957 20.959 115.938 21.5088C114.937 22.0437 113.825 22.3112 112.604 22.3112C111.535 22.3112 110.585 22.1255 109.753 21.754C108.921 21.3677 108.243 20.8921 107.717 20.3275V27.9504H104.816V9.82921H107.717V11.6347ZM116.244 15.9142C116.244 15.0672 116.04 14.3391 115.632 13.7298C115.243 13.1057 114.717 12.6377 114.055 12.3257C113.41 11.9987 112.715 11.8352 111.968 11.8352C111.238 11.8352 110.543 11.9987 109.881 12.3257C109.236 12.6525 108.71 13.128 108.302 13.7522C107.913 14.3762 107.717 15.1118 107.717 15.9587C107.717 16.8058 107.913 17.5487 108.302 18.1877C108.71 18.8118 109.236 19.2873 109.881 19.6142C110.543 19.9411 111.238 20.1046 111.968 20.1046C112.715 20.1046 113.41 19.9411 114.055 19.6142C114.717 19.2725 115.243 18.7821 115.632 18.1431C116.04 17.5042 116.244 16.7612 116.244 15.9142Z" fill="#4F5552"/>
<path d="M100.472 8.20207C99.9452 8.20207 99.5041 8.04607 99.1478 7.734C98.7915 7.42198 98.6134 7.03564 98.6134 6.57499C98.6134 6.11434 98.7915 5.728 99.1478 5.41595C99.5041 5.1039 99.9452 4.94788 100.472 4.94788C100.981 4.94788 101.413 5.1039 101.769 5.41595C102.126 5.728 102.304 6.11434 102.304 6.57499C102.304 7.03564 102.126 7.42198 101.769 7.734C101.413 8.04607 100.981 8.20207 100.472 8.20207ZM101.897 9.8292V22.1106H98.9954V9.8292H101.897Z" fill="#4F5552"/>
<path d="M89.7382 22.3112C88.415 22.3112 87.2186 22.0511 86.1497 21.5311C85.0806 20.9961 84.2407 20.2532 83.6299 19.3022C83.019 18.3363 82.7136 17.2218 82.7136 15.9587C82.7136 14.7106 83.0275 13.6035 83.6554 12.6377C84.2831 11.6718 85.1401 10.9289 86.2259 10.4087C87.3119 9.88869 88.5255 9.62866 89.8658 9.62866C91.2061 9.62866 92.4197 9.88869 93.5057 10.4087C94.5916 10.9289 95.448 11.6718 96.0758 12.6377C96.7036 13.6035 97.0179 14.7106 97.0179 15.9587C97.0179 17.207 96.6959 18.314 96.051 19.2799C95.4061 20.2457 94.5231 20.9961 93.4037 21.5311C92.3006 22.0511 91.0794 22.3112 89.7382 22.3112ZM89.7382 20.1046C90.485 20.1046 91.1804 19.9485 91.8253 19.6365C92.4874 19.3244 93.0218 18.8564 93.4294 18.2323C93.8362 17.6082 94.0401 16.8503 94.0401 15.9587C94.0401 15.0672 93.8448 14.3168 93.4543 13.7075C93.0646 13.0835 92.5464 12.6154 91.9015 12.3033C91.2575 11.9913 90.5612 11.8352 89.8144 11.8352C89.0685 11.8352 88.3722 11.9913 87.7281 12.3033C87.0995 12.6154 86.5994 13.0835 86.2259 13.7075C85.8525 14.3168 85.6658 15.0672 85.6658 15.9587C85.6658 17.2813 86.0478 18.3065 86.8117 19.0347C87.592 19.748 88.5674 20.1046 89.7382 20.1046Z" fill="#4F5552"/>
<path d="M74.3984 22.3112C73.0748 22.3112 71.8786 22.0511 70.8096 21.5311C69.7406 20.9961 68.9006 20.2532 68.2898 19.3022C67.6789 18.3363 67.3735 17.2218 67.3735 15.9587C67.3735 14.7106 67.6874 13.6035 68.3153 12.6377C68.943 11.6718 69.8 10.9289 70.886 10.4087C71.9719 9.88869 73.1851 9.62866 74.5256 9.62866C75.8661 9.62866 77.0794 9.88869 78.1653 10.4087C79.2513 10.9289 80.1082 11.6718 80.736 12.6377C81.3638 13.6035 81.6777 14.7106 81.6777 15.9587C81.6777 17.207 81.3554 18.314 80.7106 19.2799C80.0657 20.2457 79.1834 20.9961 78.0635 21.5311C76.9606 22.0511 75.7389 22.3112 74.3984 22.3112ZM74.3984 20.1046C75.145 20.1046 75.8407 19.9485 76.4855 19.6365C77.1472 19.3244 77.6817 18.8564 78.089 18.2323C78.4962 17.6082 78.6998 16.8503 78.6998 15.9587C78.6998 15.0672 78.5047 14.3168 78.1144 13.7075C77.7242 13.0835 77.2066 12.6154 76.5618 12.3033C75.917 11.9913 75.2213 11.8352 74.4748 11.8352C73.7281 11.8352 73.0324 11.9913 72.3876 12.3033C71.7598 12.6154 71.2593 13.0835 70.886 13.7075C70.5126 14.3168 70.326 15.0672 70.326 15.9587C70.326 17.2813 70.7077 18.3065 71.4713 19.0347C72.2519 19.748 73.2275 20.1046 74.3984 20.1046Z" fill="#4F5552"/>
<path d="M59.0584 22.3112C57.7349 22.3112 56.5387 22.0511 55.4697 21.5311C54.4007 20.9961 53.5607 20.2532 52.9499 19.3022C52.339 18.3363 52.0336 17.2218 52.0336 15.9587C52.0336 14.7106 52.3475 13.6035 52.9753 12.6377C53.6032 11.6718 54.46 10.9289 55.546 10.4087C56.6319 9.88869 57.8452 9.62866 59.1857 9.62866C60.5262 9.62866 61.7394 9.88869 62.8253 10.4087C63.9113 10.9289 64.7683 11.6718 65.3961 12.6377C66.0239 13.6035 66.3378 14.7106 66.3378 15.9587C66.3378 17.207 66.0154 18.314 65.3706 19.2799C64.7259 20.2457 63.8435 20.9961 62.7236 21.5311C61.6206 22.0511 60.3989 22.3112 59.0584 22.3112ZM59.0584 20.1046C59.805 20.1046 60.5007 19.9485 61.1455 19.6365C61.8073 19.3244 62.3418 18.8564 62.749 18.2323C63.1563 17.6082 63.3598 16.8503 63.3598 15.9587C63.3598 15.0672 63.1647 14.3168 62.7745 13.7075C62.3842 13.0835 61.8666 12.6154 61.2218 12.3033C60.5771 11.9913 59.8813 11.8352 59.1348 11.8352C58.3881 11.8352 57.6925 11.9913 57.0477 12.3033C56.4199 12.6154 55.9193 13.0835 55.546 13.7075C55.1727 14.3168 54.986 15.0672 54.986 15.9587C54.986 17.2813 55.3678 18.3065 56.1314 19.0347C56.9119 19.748 57.8876 20.1046 59.0584 20.1046Z" fill="#4F5552"/>
<path d="M45.4582 20.0599H51.4396V22.1106H42.5566V6.61951H45.4582V20.0599Z" fill="#4F5552"/>
<path fill-rule="evenodd" clip-rule="evenodd" d="M77.0744 24.393C77.8074 23.9005 78.3343 23.21 78.5734 22.4285L81.378 23.0865C80.9734 24.4087 80.0821 25.577 78.842 26.4103C77.6019 27.2435 76.0826 27.6953 74.5195 27.6953C72.9564 27.6953 71.437 27.2435 70.197 26.4103C68.957 25.577 68.0655 24.4087 67.661 23.0865L70.4656 22.4285C70.7047 23.21 71.2317 23.9005 71.9646 24.393C72.6975 24.8855 73.5956 25.1525 74.5195 25.1525C75.4434 25.1525 76.3414 24.8855 77.0744 24.393Z" fill="#4F5552"/>
</g>
<defs>
<clipPath id="clip0_288_155090">
<rect width="173" height="30" fill="white"/>
</clipPath>
</defs>
</svg>
