<svg width="18" height="18" viewBox="0 0 18 18" fill="none" xmlns="http://www.w3.org/2000/svg">
<path d="M15.75 9.75001V15.3255C15.75 15.4766 15.7196 15.6261 15.6605 15.7652C15.6015 15.9042 15.515 16.03 15.4063 16.1349C15.2976 16.2398 15.1689 16.3218 15.0278 16.3759C14.8867 16.43 14.7362 16.4551 14.5853 16.4498L14.4855 16.4415L9 15.756V9.75001H15.75ZM7.5 9.75001V15.5685L3.564 15.0765C3.20115 15.0312 2.86737 14.8548 2.62539 14.5807C2.38342 14.3065 2.24992 13.9534 2.25 13.5878V9.75001H7.5ZM14.4855 1.55851C14.6354 1.53979 14.7875 1.55144 14.9329 1.59279C15.0782 1.63413 15.2136 1.70432 15.3312 1.79916C15.4488 1.894 15.5461 2.01156 15.6173 2.14481C15.6885 2.27807 15.7321 2.42429 15.7455 2.57476L15.75 2.67451V8.25001H9V2.24401L14.4855 1.55851ZM7.5 2.43151V8.25001H2.25V4.41226C2.24992 4.04659 2.38342 3.69349 2.62539 3.41933C2.86737 3.14518 3.20115 2.96886 3.564 2.92351L7.5 2.43151Z" fill="white"/>
</svg>
