<svg width="49" height="30" viewBox="0 0 49 30" fill="none" xmlns="http://www.w3.org/2000/svg">
<g clip-path="url(#clip0_288_155123)">
<path d="M32.9363 3.41201C33.5197 2.7634 34.168 2.2283 34.8325 1.80671C35.9993 1.07703 37.2311 0.687866 38.4953 0.687866V11.2763C37.5714 8.06573 35.578 5.30917 32.9363 3.41201ZM48.6733 29.9561H11.1864C5.02769 29.9561 0.052124 24.9619 0.052124 18.8163C0.052124 12.9303 4.62252 8.09814 10.4085 7.69277V0.687866C11.705 0.687866 12.9854 1.06081 14.1847 1.80671C14.8492 2.21209 15.4974 2.74719 16.0809 3.36336C18.4633 1.69321 21.3482 0.720296 24.4761 0.720296C24.4761 7.48197 22.0451 15.3464 14.136 15.3625H24.3951C24.1034 14.0491 22.904 13.0762 21.4779 13.06H27.442C26.0158 13.06 24.8165 14.0491 24.5248 15.3788H34.0869C35.9993 15.3788 37.8956 15.7517 39.6784 16.4976C41.4449 17.2273 43.0656 18.3137 44.4108 19.6596C45.7722 21.0216 46.8419 22.6269 47.5712 24.3944C48.3005 26.1456 48.6733 28.0428 48.6733 29.9561ZM16.713 7.88741C16.9561 8.51975 17.6044 9.23324 18.512 9.75209C19.4196 10.271 20.3596 10.4818 21.0241 10.3845C20.781 9.75209 20.1327 9.03868 19.2251 8.51975C18.3175 8.0009 17.3774 7.79009 16.713 7.88741ZM30.3593 9.75209C29.4517 10.271 28.5117 10.4818 27.8472 10.3845C28.0903 9.75209 28.7386 9.03868 29.6462 8.51975C30.5538 8.0009 31.4938 7.79009 32.1583 7.88741C31.9314 8.51975 31.2669 9.23324 30.3593 9.75209Z" fill="#4F5552"/>
</g>
<defs>
<clipPath id="clip0_288_155123">
<rect width="49" height="30" fill="white"/>
</clipPath>
</defs>
</svg>
