<svg width="25" height="20" viewBox="0 0 25 20" fill="none" xmlns="http://www.w3.org/2000/svg">
<path d="M4.87234 4.77474L1.509 1.41141C1.13663 1.03903 1.4009 0.390381 1.92943 0.390381H6.24172C6.39788 0.390381 6.55404 0.450433 6.66215 0.570553L12.6681 6.57654C13.0405 6.94891 12.7762 7.59756 12.2477 7.59756H8.29576C5.97745 7.59756 4.09157 9.48344 4.09157 11.8018C4.09157 14.1201 5.97745 16.0059 8.29576 16.0059H10.0976L12.6801 18.5885C13.0525 18.9609 12.7882 19.6095 12.2597 19.6095H8.30778C3.99548 19.6095 0.5 16.114 0.5 11.8018C0.5 8.81077 2.18168 6.20417 4.66815 4.89487L4.87234 4.77474Z" fill="url(#paint0_linear_88_76481)"/>
<path d="M20.1276 15.2252L23.491 18.5885C23.8634 18.9609 23.5991 19.6095 23.0706 19.6095H18.7583C18.6021 19.6095 18.4459 19.5495 18.3378 19.4294L12.3319 13.4234C11.9595 13.051 12.2238 12.4024 12.7523 12.4024H16.7042C19.0225 12.4024 20.9084 10.5165 20.9084 8.19816C20.9084 5.87985 19.0225 3.99397 16.7042 3.99397H14.9024L12.3199 1.41141C11.9475 1.03903 12.2118 0.390381 12.7403 0.390381H16.6922C21.0045 0.390381 24.5 3.88586 24.5 8.19816C24.5 11.1891 22.8183 13.7957 20.3318 15.105L20.1276 15.2252Z" fill="url(#paint1_linear_88_76481)"/>
<defs>
<linearGradient id="paint0_linear_88_76481" x1="6.67712" y1="0.390381" x2="6.67712" y2="19.6095" gradientUnits="userSpaceOnUse">
<stop stop-color="#7DD4A2"/>
<stop offset="1" stop-color="#004F22"/>
</linearGradient>
<linearGradient id="paint1_linear_88_76481" x1="18.3229" y1="0.390381" x2="18.3229" y2="19.6095" gradientUnits="userSpaceOnUse">
<stop stop-color="#7DD4A2"/>
<stop offset="1" stop-color="#004F22"/>
</linearGradient>
</defs>
</svg>
