<svg width="24" height="24" viewBox="0 0 24 24" fill="none" xmlns="http://www.w3.org/2000/svg">
<path fill-rule="evenodd" clip-rule="evenodd" d="M7.17243e-08 11.1C0.461509 4.89294 5.65776 0 12 0C11.0002 -2.66142e-07 10.11 0.43705 9.3777 1.10535C8.64905 1.7703 8.0333 2.69853 7.53527 3.79578C7.03431 4.89951 6.64517 6.19042 6.38179 7.59134C6.17066 8.71433 6.04217 9.89822 5.99935 11.1H7.17243e-08ZM0 12.9H5.99935C6.04217 14.1018 6.17066 15.2857 6.38179 16.4087C6.64517 17.8096 7.03431 19.1005 7.53527 20.2042C8.0333 21.3015 8.64905 22.2297 9.3777 22.8946C10.11 23.563 11.0002 24 12 24C5.65776 24 0.461509 19.1071 0 12.9Z" fill="url(#paint0_linear_88_76401)"/>
<path d="M12 1.67442C11.6691 1.67442 11.2416 1.81484 10.7444 2.2685C10.2437 2.72551 9.74232 3.44178 9.29938 4.41765C8.85938 5.38705 8.5021 6.55729 8.25623 7.86503C8.06261 8.8949 7.94249 9.98662 7.90034 11.1H16.0997C16.0575 9.98662 15.9374 8.89491 15.7438 7.86503C15.4979 6.55729 15.1406 5.38705 14.7006 4.41765C14.2577 3.44178 13.7563 2.72551 13.2556 2.2685C12.7584 1.81484 12.3309 1.67442 12 1.67442Z" fill="url(#paint1_linear_88_76401)"/>
<path d="M8.25623 16.135C8.5021 17.4427 8.85938 18.613 9.29938 19.5824C9.74232 20.5582 10.2437 21.2745 10.7444 21.7315C11.2416 22.1852 11.6691 22.3256 12 22.3256C12.3309 22.3256 12.7584 22.1852 13.2556 21.7315C13.7563 21.2745 14.2577 20.5582 14.7006 19.5824C15.1406 18.613 15.4979 17.4427 15.7438 16.135C15.9374 15.1051 16.0575 14.0134 16.0997 12.9H7.90034C7.94249 14.0134 8.06261 15.1051 8.25623 16.135Z" fill="url(#paint2_linear_88_76401)"/>
<path d="M12 0C12.9998 2.66142e-07 13.89 0.437051 14.6223 1.10535C15.3509 1.77031 15.9667 2.69853 16.4647 3.79578C16.9657 4.89951 17.3548 6.19042 17.6182 7.59134C17.8293 8.71433 17.9578 9.89822 18.0007 11.1H24C23.5385 4.89294 18.3422 0 12 0Z" fill="url(#paint3_linear_88_76401)"/>
<path d="M17.6182 16.4087C17.3548 17.8096 16.9657 19.1005 16.4647 20.2042C15.9667 21.3015 15.3509 22.2297 14.6223 22.8946C13.89 23.563 12.9998 24 12 24C18.3422 24 23.5385 19.1071 24 12.9H18.0007C17.9578 14.1018 17.8293 15.2857 17.6182 16.4087Z" fill="url(#paint4_linear_88_76401)"/>
<defs>
<linearGradient id="paint0_linear_88_76401" x1="12" y1="0" x2="12" y2="24" gradientUnits="userSpaceOnUse">
<stop stop-color="#7DD4A2"/>
<stop offset="1" stop-color="#004F22"/>
</linearGradient>
<linearGradient id="paint1_linear_88_76401" x1="12" y1="0" x2="12" y2="24" gradientUnits="userSpaceOnUse">
<stop stop-color="#7DD4A2"/>
<stop offset="1" stop-color="#004F22"/>
</linearGradient>
<linearGradient id="paint2_linear_88_76401" x1="12" y1="0" x2="12" y2="24" gradientUnits="userSpaceOnUse">
<stop stop-color="#7DD4A2"/>
<stop offset="1" stop-color="#004F22"/>
</linearGradient>
<linearGradient id="paint3_linear_88_76401" x1="12" y1="0" x2="12" y2="24" gradientUnits="userSpaceOnUse">
<stop stop-color="#7DD4A2"/>
<stop offset="1" stop-color="#004F22"/>
</linearGradient>
<linearGradient id="paint4_linear_88_76401" x1="12" y1="0" x2="12" y2="24" gradientUnits="userSpaceOnUse">
<stop stop-color="#7DD4A2"/>
<stop offset="1" stop-color="#004F22"/>
</linearGradient>
</defs>
</svg>
