<svg width="22" height="22" viewBox="0 0 22 22" fill="none" xmlns="http://www.w3.org/2000/svg">
<path d="M11 2.0625C9.23233 2.0625 7.50436 2.58668 6.0346 3.56874C4.56483 4.55081 3.41929 5.94665 2.74283 7.57977C2.06637 9.21288 1.88938 11.0099 2.23424 12.7436C2.57909 14.4773 3.43031 16.0698 4.68024 17.3198C5.93017 18.5697 7.52268 19.4209 9.25638 19.7658C10.9901 20.1106 12.7871 19.9336 14.4202 19.2572C16.0534 18.5807 17.4492 17.4352 18.4313 15.9654C19.4133 14.4956 19.9375 12.7677 19.9375 11C19.935 8.6304 18.9926 6.35856 17.317 4.683C15.6414 3.00743 13.3696 2.065 11 2.0625ZM14.3602 13.3882C14.8576 12.6912 15.1249 11.8563 15.1249 11C15.1249 10.1437 14.8576 9.3088 14.3602 8.6118L16.8094 6.16344C17.9421 7.52058 18.5626 9.23225 18.5626 11C18.5626 12.7677 17.9421 14.4794 16.8094 15.8366L14.3602 13.3882ZM8.25 11C8.25 10.4561 8.41129 9.92442 8.71346 9.47218C9.01564 9.01995 9.44513 8.66747 9.94762 8.45933C10.4501 8.25119 11.0031 8.19673 11.5365 8.30284C12.07 8.40895 12.56 8.67086 12.9445 9.05546C13.3291 9.44005 13.5911 9.93005 13.6972 10.4635C13.8033 10.9969 13.7488 11.5499 13.5407 12.0524C13.3325 12.5549 12.9801 12.9844 12.5278 13.2865C12.0756 13.5887 11.5439 13.75 11 13.75C10.2707 13.75 9.57119 13.4603 9.05546 12.9445C8.53974 12.4288 8.25 11.7293 8.25 11ZM15.8366 5.19063L13.3882 7.63984C12.6912 7.14243 11.8563 6.87506 11 6.87506C10.1437 6.87506 9.3088 7.14243 8.6118 7.63984L6.16344 5.19063C7.52058 4.05788 9.23225 3.43741 11 3.43741C12.7678 3.43741 14.4794 4.05788 15.8366 5.19063ZM5.19063 6.16344L7.63985 8.6118C7.14244 9.3088 6.87507 10.1437 6.87507 11C6.87507 11.8563 7.14244 12.6912 7.63985 13.3882L5.19063 15.8366C4.05788 14.4794 3.43742 12.7677 3.43742 11C3.43742 9.23225 4.05788 7.52058 5.19063 6.16344ZM6.16344 16.8094L8.6118 14.3602C9.3088 14.8576 10.1437 15.1249 11 15.1249C11.8563 15.1249 12.6912 14.8576 13.3882 14.3602L15.8366 16.8094C14.4794 17.9421 12.7678 18.5626 11 18.5626C9.23225 18.5626 7.52058 17.9421 6.16344 16.8094Z" fill="white"/>
</svg>
