<svg width="30" height="30" viewBox="0 0 30 30" fill="none" xmlns="http://www.w3.org/2000/svg">
<path d="M14.9997 21.5238C17.8578 21.5238 20.1747 19.2069 20.1747 16.3488C20.1747 13.4908 17.8578 11.1738 14.9997 11.1738C12.1416 11.1738 9.82471 13.4908 9.82471 16.3488C9.82471 19.2069 12.1416 21.5238 14.9997 21.5238Z" stroke="#C7DDD0" stroke-width="0.854167" stroke-linecap="round" stroke-linejoin="round"/>
<path d="M15.0001 8.90966C16.608 8.90966 17.9114 7.60625 17.9114 5.99841C17.9114 4.39057 16.608 3.08716 15.0001 3.08716C13.3923 3.08716 12.0889 4.39057 12.0889 5.99841C12.0889 7.60625 13.3923 8.90966 15.0001 8.90966Z" stroke="#C7DDD0" stroke-width="0.854167" stroke-linecap="round" stroke-linejoin="round"/>
<path d="M12.5676 11.7809C12.5739 11.7297 12.5739 11.6778 12.5739 11.6259V10.1447H17.4264V11.6259C17.4264 11.6778 17.4264 11.7297 17.4326 11.7816M17.9114 5.9978C18.7692 5.99813 19.5918 6.33909 20.1983 6.94572C20.8048 7.55234 21.1456 8.37499 21.1457 9.2328V11.6266C21.1473 12.1167 20.9549 12.5875 20.6107 12.9364C20.2665 13.2853 19.7983 13.4839 19.3082 13.4891M10.692 13.4891C10.2024 13.4825 9.73504 13.2834 9.39114 12.9348C9.04724 12.5862 8.85445 12.1162 8.85449 11.6266V9.2328C8.85466 8.37499 9.19545 7.55234 9.80196 6.94572C10.4085 6.33909 11.2311 5.99813 12.0889 5.9978" stroke="#C7DDD0" stroke-width="0.854167" stroke-linecap="round" stroke-linejoin="round"/>
<path d="M6.03625 24.4355C7.64409 24.4355 8.9475 23.1321 8.9475 21.5243C8.9475 19.9164 7.64409 18.613 6.03625 18.613C4.42841 18.613 3.125 19.9164 3.125 21.5243C3.125 23.1321 4.42841 24.4355 6.03625 24.4355Z" stroke="#C7DDD0" stroke-width="0.854167" stroke-linecap="round" stroke-linejoin="round"/>
<path d="M12.2606 20.7394C12.2132 20.7602 12.1672 20.7842 12.1231 20.8112L10.84 21.5519L8.41434 17.35L9.69746 16.6094C9.74184 16.5831 9.78684 16.5575 9.82871 16.5262M4.58059 19.0031C4.15185 18.2601 4.0357 17.3773 4.25768 16.5487C4.47965 15.7201 5.02158 15.0135 5.76434 14.5844L7.83746 13.3875C8.2612 13.1412 8.76508 13.0724 9.23932 13.1961C9.71357 13.3197 10.1197 13.6257 10.3693 14.0475M14.6781 21.51C14.9171 21.9374 14.9782 22.4417 14.8481 22.9138C14.7181 23.3859 14.4073 23.7878 13.9831 24.0325L11.91 25.2294C11.167 25.6581 10.2841 25.7743 9.45552 25.5523C8.62692 25.3303 7.92037 24.7884 7.49121 24.0456" stroke="#C7DDD0" stroke-width="0.854167" stroke-linecap="round" stroke-linejoin="round"/>
<path d="M23.964 24.4355C25.5718 24.4355 26.8752 23.1321 26.8752 21.5243C26.8752 19.9164 25.5718 18.613 23.964 18.613C22.3561 18.613 21.0527 19.9164 21.0527 21.5243C21.0527 23.1321 22.3561 24.4355 23.964 24.4355Z" stroke="#C7DDD0" stroke-width="0.854167" stroke-linecap="round" stroke-linejoin="round"/>
<path d="M20.1712 16.5264C20.2131 16.5577 20.2581 16.5833 20.3025 16.6095L21.5856 17.3502L19.16 21.552L17.8769 20.8114C17.8326 20.7844 17.7866 20.7602 17.7394 20.7389M22.5081 24.0458C22.0789 24.7885 21.3724 25.3305 20.5438 25.5524C19.7152 25.7744 18.8324 25.6583 18.0894 25.2295L16.0169 24.0327C15.5915 23.789 15.2798 23.3872 15.1496 22.9146C15.0194 22.4421 15.0813 21.9372 15.3219 21.5102M19.6306 14.0477C19.8812 13.627 20.2874 13.322 20.7613 13.1986C21.2351 13.0751 21.7385 13.1433 22.1625 13.3883L24.2356 14.5845C24.9784 15.0137 25.5203 15.7202 25.7423 16.5488C25.9642 17.3775 25.8481 18.2603 25.4194 19.0033M13.2775 18.6877C13.6656 19.0127 14.0425 19.1614 14.9837 19.1614H15.1462C15.5643 19.1612 15.9653 18.995 16.2608 18.6993C16.5564 18.4036 16.7225 18.0026 16.7225 17.5845C16.7225 17.1663 16.5563 16.7652 16.2606 16.4695C15.9649 16.1738 15.5638 16.0077 15.1456 16.0077H13.2769V13.5364H16.7225" stroke="#C7DDD0" stroke-width="0.854167" stroke-linecap="round" stroke-linejoin="round"/>
</svg>
