<svg width="22" height="22" viewBox="0 0 22 22" fill="none" xmlns="http://www.w3.org/2000/svg">
<path d="M20.625 7.58218C20.5905 8.77899 20.0984 9.91701 19.25 10.7619L16.2637 13.7499C15.8287 14.1872 15.3114 14.5339 14.7415 14.77C14.1717 15.006 13.5607 15.1266 12.9439 15.1249H12.9396C12.3123 15.1245 11.6914 14.9983 11.1137 14.7539C10.536 14.5095 10.0131 14.1517 9.5759 13.7018C9.13874 13.2519 8.79618 12.719 8.56844 12.1345C8.34071 11.55 8.23243 10.9257 8.25 10.2987C8.25513 10.1163 8.33248 9.9435 8.46504 9.81819C8.5976 9.69289 8.7745 9.62537 8.95684 9.6305C9.13917 9.63563 9.31201 9.71298 9.43731 9.84554C9.56262 9.9781 9.63013 10.155 9.625 10.3373C9.61248 10.7807 9.68896 11.2221 9.84993 11.6354C10.0109 12.0487 10.2531 12.4256 10.5621 12.7437C10.8712 13.0618 11.2409 13.3148 11.6494 13.4876C12.0579 13.6604 12.4969 13.7496 12.9405 13.7499C13.3765 13.751 13.8084 13.6657 14.2112 13.4989C14.6141 13.3321 14.9799 13.087 15.2874 12.778L18.2738 9.79164C18.8899 9.16774 19.2342 8.32541 19.2314 7.44855C19.2287 6.5717 18.8791 5.73155 18.2591 5.11151C17.6391 4.49148 16.7989 4.14194 15.9221 4.13919C15.0452 4.13645 14.2029 4.48073 13.579 5.09687L12.6337 6.04218C12.5037 6.16567 12.3306 6.2335 12.1513 6.2312C11.9721 6.22891 11.8008 6.15667 11.674 6.0299C11.5472 5.90312 11.475 5.73183 11.4727 5.55256C11.4704 5.37329 11.5382 5.20021 11.6617 5.07023L12.607 4.12492C13.0432 3.68864 13.561 3.34255 14.1309 3.10643C14.7008 2.87031 15.3116 2.74878 15.9285 2.74878C16.5454 2.74878 17.1562 2.87031 17.7262 3.10643C18.2961 3.34255 18.8139 3.68864 19.25 4.12492C19.7017 4.57777 20.0566 5.11781 20.293 5.71217C20.5294 6.30653 20.6423 6.94278 20.625 7.58218ZM9.36719 15.9551L8.42188 16.9004C8.11355 17.2108 7.74661 17.4567 7.34237 17.6241C6.93814 17.7914 6.50467 17.8766 6.06719 17.8749C5.41089 17.8744 4.76947 17.6793 4.22397 17.3144C3.67848 16.9495 3.25339 16.4311 3.00241 15.8246C2.75144 15.2182 2.68584 14.551 2.81391 13.9073C2.94198 13.2637 3.25797 12.6724 3.72196 12.2082L6.70313 9.22187C7.17268 8.74984 7.77331 8.42991 8.42703 8.30362C9.08074 8.17733 9.75732 8.25052 10.3689 8.51368C10.9805 8.77685 11.4988 9.21783 11.8566 9.77935C12.2143 10.3409 12.3949 10.997 12.375 11.6625C12.3699 11.8448 12.4374 12.0217 12.5627 12.1543C12.688 12.2869 12.8608 12.3642 13.0432 12.3693C13.2255 12.3745 13.4024 12.3069 13.535 12.1816C13.6675 12.0563 13.7449 11.8835 13.75 11.7012C13.7665 11.0628 13.6531 10.4277 13.4168 9.83439C13.1804 9.24113 12.826 8.70207 12.375 8.24992C11.4943 7.3696 10.3 6.87507 9.05481 6.87507C7.80957 6.87507 6.61531 7.3696 5.73461 8.24992L2.75 11.2362C2.09364 11.8923 1.64649 12.7283 1.46507 13.6384C1.28365 14.5486 1.37611 15.4921 1.73074 16.3497C2.08538 17.2073 2.68628 17.9406 3.45752 18.4568C4.22875 18.973 5.1357 19.249 6.06375 19.2499C6.68067 19.2517 7.29182 19.1311 7.86181 18.8951C8.4318 18.659 8.94931 18.3123 9.38438 17.8749L10.3297 16.9296C10.4409 16.7986 10.4991 16.6306 10.4926 16.4588C10.4861 16.287 10.4155 16.1239 10.2947 16.0016C10.1739 15.8792 10.0117 15.8066 9.84 15.798C9.6683 15.7894 9.49961 15.8454 9.36719 15.9551Z" fill="white"/>
</svg>
