<svg width="22" height="22" viewBox="0 0 22 22" fill="none" xmlns="http://www.w3.org/2000/svg">
<path d="M19.25 4.125H2.75C2.38533 4.125 2.03559 4.26987 1.77773 4.52773C1.51987 4.78559 1.375 5.13533 1.375 5.5V16.5C1.375 16.8647 1.51987 17.2144 1.77773 17.4723C2.03559 17.7301 2.38533 17.875 2.75 17.875H19.25C19.6147 17.875 19.9644 17.7301 20.2223 17.4723C20.4801 17.2144 20.625 16.8647 20.625 16.5V5.5C20.625 5.13533 20.4801 4.78559 20.2223 4.52773C19.9644 4.26987 19.6147 4.125 19.25 4.125ZM19.25 16.5H2.75V5.5H19.25V16.5ZM17.875 11C17.875 11.1823 17.8026 11.3572 17.6736 11.4861C17.5447 11.6151 17.3698 11.6875 17.1875 11.6875H4.8125C4.63016 11.6875 4.4553 11.6151 4.32636 11.4861C4.19743 11.3572 4.125 11.1823 4.125 11C4.125 10.8177 4.19743 10.6428 4.32636 10.5139C4.4553 10.3849 4.63016 10.3125 4.8125 10.3125H17.1875C17.3698 10.3125 17.5447 10.3849 17.6736 10.5139C17.8026 10.6428 17.875 10.8177 17.875 11ZM17.875 8.25C17.875 8.43234 17.8026 8.6072 17.6736 8.73614C17.5447 8.86507 17.3698 8.9375 17.1875 8.9375H4.8125C4.63016 8.9375 4.4553 8.86507 4.32636 8.73614C4.19743 8.6072 4.125 8.43234 4.125 8.25C4.125 8.06766 4.19743 7.8928 4.32636 7.76386C4.4553 7.63493 4.63016 7.5625 4.8125 7.5625H17.1875C17.3698 7.5625 17.5447 7.63493 17.6736 7.76386C17.8026 7.8928 17.875 8.06766 17.875 8.25ZM6.1875 13.75C6.1875 13.9323 6.11507 14.1072 5.98614 14.2361C5.8572 14.3651 5.68234 14.4375 5.5 14.4375H4.8125C4.63016 14.4375 4.4553 14.3651 4.32636 14.2361C4.19743 14.1072 4.125 13.9323 4.125 13.75C4.125 13.5677 4.19743 13.3928 4.32636 13.2639C4.4553 13.1349 4.63016 13.0625 4.8125 13.0625H5.5C5.68234 13.0625 5.8572 13.1349 5.98614 13.2639C6.11507 13.3928 6.1875 13.5677 6.1875 13.75ZM14.4375 13.75C14.4375 13.9323 14.3651 14.1072 14.2361 14.2361C14.1072 14.3651 13.9323 14.4375 13.75 14.4375H8.25C8.06766 14.4375 7.8928 14.3651 7.76386 14.2361C7.63493 14.1072 7.5625 13.9323 7.5625 13.75C7.5625 13.5677 7.63493 13.3928 7.76386 13.2639C7.8928 13.1349 8.06766 13.0625 8.25 13.0625H13.75C13.9323 13.0625 14.1072 13.1349 14.2361 13.2639C14.3651 13.3928 14.4375 13.5677 14.4375 13.75ZM17.875 13.75C17.875 13.9323 17.8026 14.1072 17.6736 14.2361C17.5447 14.3651 17.3698 14.4375 17.1875 14.4375H16.5C16.3177 14.4375 16.1428 14.3651 16.0139 14.2361C15.8849 14.1072 15.8125 13.9323 15.8125 13.75C15.8125 13.5677 15.8849 13.3928 16.0139 13.2639C16.1428 13.1349 16.3177 13.0625 16.5 13.0625H17.1875C17.3698 13.0625 17.5447 13.1349 17.6736 13.2639C17.8026 13.3928 17.875 13.5677 17.875 13.75Z" fill="white"/>
</svg>
