<svg width="100" height="100" viewBox="0 0 100 100" fill="none" xmlns="http://www.w3.org/2000/svg">
<g clip-path="url(#clip0_433_378159)">
<rect width="100" height="100" rx="16" fill="url(#paint0_linear_433_378159)"/>
<g clip-path="url(#clip1_433_378159)">
<path fill-rule="evenodd" clip-rule="evenodd" d="M30.7921 31.5894V43.3003C31.71 43.078 32.6115 42.7846 33.488 42.4215C35.7072 41.5023 37.7237 40.1549 39.422 38.4564C41.1205 36.758 42.4679 34.7415 43.3871 32.5224C43.9616 31.1355 44.3617 29.6863 44.5812 28.2081C39.8861 28.6626 35.2407 29.7897 30.7921 31.5894ZM22.1846 25.9301V43.8138V52.4214V52.6904C22.1846 67.6945 34.3479 79.8579 49.3521 79.8579C64.3564 79.8579 76.5198 67.6945 76.5198 52.6904V52.4214V43.8138V25.9301L72.5415 24.1984C57.7521 17.7607 40.9522 17.7607 26.1629 24.1984L22.1846 25.9301ZM30.7937 52.9352C30.9045 61.4997 36.816 68.6651 44.7794 70.6828C44.7755 68.2908 44.3025 65.9228 43.3871 63.7128C42.4679 61.4935 41.1205 59.4771 39.422 57.7786C37.7237 56.0801 35.7072 54.7329 33.488 53.8136C32.612 53.4509 31.7111 53.1575 30.7937 52.9352ZM49.0831 56.1176C48.0539 54.5241 46.8564 53.04 45.5086 51.6922C44.1606 50.3444 42.6767 49.1469 41.0832 48.1175C42.6767 47.0883 44.1606 45.8908 45.5086 44.543C46.8564 43.195 48.0539 41.7111 49.0831 40.1175C50.1125 41.7111 51.31 43.195 52.6578 44.543C54.0056 45.8908 55.4897 47.0883 57.0832 48.1175C55.4897 49.1469 54.0056 50.3444 52.6578 51.6922C51.31 53.04 50.1125 54.5241 49.0831 56.1176ZM53.387 70.8106C61.6588 68.9769 67.8546 61.6237 67.9118 52.8133C66.808 53.0456 65.7254 53.3799 64.6784 53.8136C62.4591 54.7329 60.4427 56.0801 58.7442 57.7786C57.0457 59.4771 55.6985 61.4935 54.7793 63.7128C53.86 65.9319 53.387 68.3104 53.387 70.7124V70.8106ZM64.6784 42.4215C65.7256 42.8552 66.8083 43.1897 67.9122 43.422V31.5894C63.2916 29.7201 58.4584 28.5764 53.5778 28.1583C53.7956 29.6538 54.1983 31.1199 54.7793 32.5224C55.6985 34.7415 57.0457 36.758 58.7442 38.4564C60.4427 40.1549 62.4591 41.5023 64.6784 42.4215Z" fill="#01AEEF"/>
</g>
</g>
<rect x="0.5" y="0.5" width="99" height="99" rx="15.5" stroke="#1B1B1B"/>
<defs>
<linearGradient id="paint0_linear_433_378159" x1="50" y1="100" x2="50" y2="-49.096" gradientUnits="userSpaceOnUse">
<stop/>
<stop offset="1" stop-color="#001F0D"/>
</linearGradient>
<clipPath id="clip0_433_378159">
<rect width="100" height="100" rx="16" fill="white"/>
</clipPath>
<clipPath id="clip1_433_378159">
<rect width="55.9512" height="62" fill="white" transform="translate(22.0244 19)"/>
</clipPath>
</defs>
</svg>
