<svg width="113" height="113" viewBox="0 0 113 113" fill="none" xmlns="http://www.w3.org/2000/svg">
<g clip-path="url(#clip0_434_365189)">
<path d="M56.4996 0C87.7045 0 113 25.2951 113 56.5V96.05C113 100.545 111.214 104.857 108.035 108.035C104.856 111.214 100.545 113 96.0496 113H59.3246V88.2134C59.3246 82.5578 59.6692 76.6987 62.6355 71.8849C64.7591 68.4352 67.5999 65.4825 70.9651 63.2271C74.3303 60.9718 78.1412 59.4666 82.1393 58.8137L83.2213 58.6385C83.6673 58.4861 84.0545 58.1979 84.3287 57.8145C84.6029 57.431 84.7503 56.9714 84.7503 56.5C84.7503 56.0286 84.6029 55.569 84.3287 55.1855C84.0545 54.8021 83.6673 54.5139 83.2213 54.3615L82.1393 54.1863C76.2977 53.2321 70.9033 50.467 66.7179 46.2816C62.5325 42.0962 59.7675 36.7019 58.8133 30.8603L58.6381 29.7783C58.4856 29.3323 58.1975 28.945 57.814 28.6709C57.4306 28.3967 56.971 28.2493 56.4996 28.2493C56.0282 28.2493 55.5686 28.3967 55.1851 28.6709C54.8017 28.945 54.5135 29.3323 54.3611 29.7783L54.1859 30.8603C53.5331 34.8584 52.028 38.6694 49.7727 42.0346C47.5173 45.3998 44.5645 48.2406 41.1146 50.3641C36.3008 53.3303 30.4418 53.675 24.7861 53.675H0.0673828C1.54486 23.7837 26.2438 0 56.4996 0Z" fill="white"/>
<path d="M0 59.325H24.7866C30.4422 59.325 36.3013 59.6697 41.1151 62.6359C44.8779 64.9546 48.0454 68.1221 50.3641 71.8849C53.3303 76.6987 53.675 82.5578 53.675 88.2134V113H16.95C12.4546 113 8.14328 111.214 4.96454 108.035C1.7858 104.857 0 100.545 0 96.05L0 59.325ZM113 5.65C113 7.14847 112.405 8.58557 111.345 9.64515C110.286 10.7047 108.848 11.3 107.35 11.3C105.852 11.3 104.414 10.7047 103.355 9.64515C102.295 8.58557 101.7 7.14847 101.7 5.65C101.7 4.15153 102.295 2.71443 103.355 1.65485C104.414 0.595266 105.852 0 107.35 0C108.848 0 110.286 0.595266 111.345 1.65485C112.405 2.71443 113 4.15153 113 5.65Z" fill="white"/>
</g>
<defs>
<clipPath id="clip0_434_365189">
<rect width="113" height="113" fill="white"/>
</clipPath>
</defs>
</svg>
