<svg width="176" height="70" viewBox="0 0 176 70" fill="none" xmlns="http://www.w3.org/2000/svg">
<g clip-path="url(#clip0_434_365226)">
<path d="M8.39534 7.41125C8.85294 5.25175 11.0177 3.5 13.223 3.5H25.2121L15.2417 50.4403H3.25262C1.04558 50.4403 -0.372979 48.6903 0.0863808 46.529L8.39534 7.41125ZM48.3597 7.41125C48.819 5.25175 50.9821 3.5 53.1873 3.5H65.1765L55.2061 50.4403H43.2169C41.0099 50.4403 39.5913 48.6903 40.0507 46.529L48.3597 7.41125ZM128.29 7.41125C128.748 5.25175 130.909 3.5 133.118 3.5H145.107L135.136 50.4403H123.146C120.939 50.4403 119.522 48.6903 119.981 46.529L128.29 7.41125ZM69.1734 3.5H81.1625C83.3696 3.5 84.7881 5.25 84.3288 7.41125L76.0198 46.529C75.5622 48.6903 73.3992 50.4403 71.1921 50.4403H59.203L69.1734 3.5ZM149.104 3.5H161.093C163.3 3.5 164.719 5.25 164.259 7.41125L155.948 46.529C155.491 48.6903 153.33 50.4403 151.123 50.4403H139.132L149.104 3.5ZM88.3257 7.41125C88.7833 5.25175 90.9446 3.5 93.1517 3.5H105.143L95.1704 50.4403H83.1813C80.9742 50.4403 79.5557 48.6903 80.0168 46.529L88.324 7.41125H88.3257ZM109.138 3.5H121.129C123.336 3.5 124.752 5.25 124.293 7.41125L111.831 66.0887C111.369 68.2482 109.208 70 107.001 70H95.0102L109.138 3.5ZM22.5616 34.7935H38.5477L36.0555 46.529C35.5961 48.6903 33.4331 50.4403 31.2278 50.4403H19.2369L22.5598 34.7952L22.5616 34.7935ZM78.3553 54.3532H94.3397L91.0168 70H79.0277C76.8189 70 75.4021 68.25 75.8614 66.0887L78.3553 54.3532ZM121.746 57.9915L119.722 67.522C119.634 67.9315 119.497 68.0435 119.078 68.0435H118.158C117.739 68.0435 117.647 67.9315 117.735 67.522L119.759 57.9915C119.847 57.5838 119.985 57.47 120.403 57.47H121.324C121.743 57.47 121.834 57.5838 121.746 57.9915ZM124.407 64.421H124.219C124.019 64.421 123.948 64.477 123.908 64.6748L123.302 67.522C123.214 67.9315 123.075 68.0435 122.658 68.0435H121.736C121.319 68.0435 121.227 67.9315 121.313 67.522L123.337 57.9915C123.425 57.5838 123.566 57.47 123.983 57.47H125.884C128.074 57.47 128.903 58.2452 128.498 60.1475L128.16 61.7417C127.755 63.6457 126.597 64.421 124.407 64.421ZM124.964 59.6977L124.436 62.1933C124.392 62.391 124.437 62.447 124.64 62.447H124.943C125.647 62.447 126.025 62.1652 126.178 61.446L126.389 60.445C126.542 59.7275 126.285 59.444 125.58 59.444H125.277C125.076 59.444 125.006 59.5 124.964 59.6977ZM131.543 61.2343L133.039 62.8705C133.823 63.7157 133.933 64.2232 133.732 65.1682L133.679 65.422C133.301 67.1982 132.4 68.1852 130.311 68.1852C128.223 68.1852 127.707 67.354 128.19 65.0825L128.25 64.8025C128.338 64.393 128.477 64.2793 128.894 64.2793H129.872C130.291 64.2793 130.383 64.393 130.295 64.8008L130.163 65.422C130.043 65.9855 130.226 66.2113 130.729 66.2113C131.235 66.2113 131.509 66.0013 131.618 65.4938L131.675 65.2243C131.759 64.8288 131.713 64.6328 131.28 64.1673L129.872 62.6588C129.084 61.8275 128.983 61.3462 129.184 60.4012L129.249 60.0933C129.628 58.317 130.529 57.3282 132.616 57.3282C134.705 57.3282 135.221 58.1613 134.739 60.431L134.679 60.7128C134.591 61.1222 134.452 61.2343 134.035 61.2343H133.054C132.637 61.2343 132.546 61.1222 132.632 60.7128L132.764 60.0933C132.884 59.528 132.702 59.304 132.197 59.304C131.694 59.304 131.418 59.514 131.31 60.0215L131.259 60.2613C131.171 60.6708 131.217 60.8685 131.543 61.2343ZM139.976 57.9915C140.064 57.5838 140.202 57.47 140.621 57.47H141.541C141.96 57.47 142.051 57.5838 141.964 57.9915L140.457 65.0843C139.975 67.354 139.107 68.1852 137.018 68.1852C134.931 68.1852 134.415 67.354 134.897 65.0825L136.404 57.9915C136.492 57.5838 136.631 57.47 137.048 57.47H137.97C138.387 57.47 138.479 57.5838 138.392 57.9915L136.814 65.422C136.694 65.9855 136.891 66.2113 137.439 66.2113C137.97 66.2113 138.278 65.9855 138.398 65.422L139.976 57.9915ZM145.971 63.7298C145.976 63.8435 146.013 63.8698 146.085 63.8698C146.156 63.8698 146.207 63.8435 146.26 63.7298L148.748 57.8375C148.87 57.54 149.014 57.47 149.375 57.47H150.772C151.189 57.47 151.281 57.5838 151.195 57.9915L149.171 67.522C149.083 67.9315 148.942 68.0435 148.525 68.0435H147.863C147.446 68.0435 147.353 67.9315 147.441 67.522L148.412 62.9545C148.439 62.8285 148.416 62.7987 148.329 62.7987C148.271 62.7987 148.206 62.8285 148.171 62.9265L146.161 67.5798C146.017 67.9175 145.832 68.0435 145.415 68.0435H145.024C144.591 68.0435 144.461 67.9175 144.461 67.5798L144.412 62.9248C144.403 62.8268 144.38 62.7987 144.308 62.7987C144.222 62.7987 144.186 62.8285 144.16 62.9545L143.19 67.522C143.102 67.9315 142.965 68.0435 142.546 68.0435H141.884C141.465 68.0435 141.374 67.9315 141.462 67.522L143.486 57.9915C143.574 57.5838 143.713 57.47 144.13 57.47H145.327C145.83 57.47 145.992 57.5838 145.989 58.0773L145.969 63.7298H145.971ZM176 3.5C176 5.43375 174.434 7 172.503 7C172.042 6.99862 171.586 6.90699 171.161 6.73033C170.736 6.55367 170.35 6.29545 170.025 5.97042C169.7 5.64539 169.443 5.25993 169.268 4.83604C169.093 4.41216 169.004 3.95817 169.006 3.5C169.006 1.56625 170.572 0 172.503 0C174.434 0 176 1.56625 176 3.5Z" fill="white"/>
</g>
<defs>
<clipPath id="clip0_434_365226">
<rect width="176" height="70" fill="white"/>
</clipPath>
</defs>
</svg>
