<svg width="16" height="16" viewBox="0 0 16 16" fill="none" xmlns="http://www.w3.org/2000/svg">
<path d="M2.12598 7.94C2.17522 7.97693 2.23126 8.00381 2.29089 8.01908C2.35052 8.03436 2.41258 8.03774 2.47352 8.02904C2.53446 8.02033 2.59308 7.99971 2.64605 7.96835C2.69902 7.93698 2.74529 7.89549 2.78223 7.84625C3.06603 7.46784 3.43405 7.1607 3.85712 6.94917C4.2802 6.73763 4.74671 6.6275 5.21973 6.6275C5.69274 6.6275 6.15926 6.73763 6.58233 6.94917C7.00541 7.1607 7.37342 7.46784 7.65723 7.84625C7.73191 7.94561 7.84299 8.01125 7.96606 8.02872C8.08913 8.04619 8.21409 8.01407 8.31348 7.93941C8.34891 7.91306 8.38029 7.88168 8.40664 7.84625C8.69045 7.46784 9.05846 7.1607 9.48154 6.94917C9.90461 6.73763 10.3711 6.6275 10.8441 6.6275C11.3172 6.6275 11.7837 6.73763 12.2067 6.94917C12.6298 7.1607 12.9978 7.46784 13.2816 7.84625C13.3563 7.9457 13.4674 8.01142 13.5906 8.02895C13.7137 8.04648 13.8387 8.01437 13.9382 7.9397C14.0376 7.86504 14.1034 7.75391 14.1209 7.63079C14.1384 7.50766 14.1063 7.38262 14.0316 7.28316C13.6167 6.72691 13.0634 6.28896 12.4268 6.01285C12.7758 5.69418 13.0203 5.27743 13.1283 4.8173C13.2362 4.35717 13.2025 3.87515 13.0316 3.4345C12.8608 2.99386 12.5606 2.61517 12.1707 2.34815C11.7807 2.08112 11.3191 1.93823 10.8465 1.93823C10.3739 1.93823 9.91227 2.08112 9.52231 2.34815C9.13234 2.61517 8.83222 2.99386 8.66132 3.4345C8.49042 3.87515 8.45674 4.35717 8.56469 4.8173C8.67264 5.27743 8.91718 5.69418 9.26621 6.01285C8.80651 6.21163 8.3889 6.4962 8.03574 6.85133C7.68258 6.4962 7.26498 6.21163 6.80527 6.01285C7.15431 5.69418 7.39885 5.27743 7.5068 4.8173C7.61475 4.35717 7.58106 3.87515 7.41016 3.4345C7.23927 2.99386 6.93914 2.61517 6.54918 2.34815C6.15921 2.08112 5.69763 1.93823 5.225 1.93823C4.75237 1.93823 4.29079 2.08112 3.90082 2.34815C3.51086 2.61517 3.21073 2.99386 3.03984 3.4345C2.86894 3.87515 2.83525 4.35717 2.9432 4.8173C3.05115 5.27743 3.29569 5.69418 3.64473 6.01285C3.00526 6.28806 2.44924 6.72629 2.03223 7.28375C1.99529 7.33299 1.96842 7.38903 1.95314 7.44866C1.93786 7.50829 1.93448 7.57035 1.94319 7.63129C1.95189 7.69223 1.97252 7.75085 2.00388 7.80382C2.03524 7.85679 2.07673 7.90306 2.12598 7.94ZM10.8447 2.8775C11.1229 2.8775 11.3947 2.95997 11.626 3.11449C11.8573 3.26901 12.0375 3.48864 12.1439 3.7456C12.2504 4.00256 12.2782 4.28531 12.224 4.55809C12.1697 4.83088 12.0358 5.08145 11.8391 5.27812C11.6424 5.47478 11.3919 5.60872 11.1191 5.66298C10.8463 5.71724 10.5635 5.68939 10.3066 5.58295C10.0496 5.47652 9.82999 5.29628 9.67547 5.06502C9.52095 4.83376 9.43848 4.56188 9.43848 4.28375C9.43848 3.91079 9.58664 3.5531 9.85036 3.28938C10.1141 3.02566 10.4718 2.8775 10.8447 2.8775ZM5.21973 2.8775C5.49786 2.8775 5.76974 2.95997 6.001 3.11449C6.23225 3.26901 6.4125 3.48864 6.51893 3.7456C6.62537 4.00256 6.65322 4.28531 6.59896 4.55809C6.5447 4.83088 6.41076 5.08145 6.2141 5.27812C6.01743 5.47478 5.76686 5.60872 5.49407 5.66298C5.22129 5.71724 4.93854 5.68939 4.68158 5.58295C4.42462 5.47652 4.20499 5.29628 4.05047 5.06502C3.89595 4.83376 3.81348 4.56188 3.81348 4.28375C3.81348 3.91079 3.96163 3.5531 4.22536 3.28938C4.48908 3.02566 4.84677 2.8775 5.21973 2.8775ZM12.4268 12.1066C12.7758 11.7879 13.0203 11.3712 13.1283 10.9111C13.2362 10.4509 13.2025 9.9689 13.0316 9.52825C12.8608 9.08761 12.5606 8.70892 12.1707 8.4419C11.7807 8.17487 11.3191 8.03198 10.8465 8.03198C10.3739 8.03198 9.91227 8.17487 9.52231 8.4419C9.13234 8.70892 8.83222 9.08761 8.66132 9.52825C8.49042 9.9689 8.45674 10.4509 8.56469 10.9111C8.67264 11.3712 8.91718 11.7879 9.26621 12.1066C8.80651 12.3054 8.3889 12.5899 8.03574 12.9451C7.68258 12.5899 7.26498 12.3054 6.80527 12.1066C7.15431 11.7879 7.39885 11.3712 7.5068 10.9111C7.61475 10.4509 7.58106 9.9689 7.41016 9.52825C7.23927 9.08761 6.93914 8.70892 6.54918 8.4419C6.15921 8.17487 5.69763 8.03198 5.225 8.03198C4.75237 8.03198 4.29079 8.17487 3.90082 8.4419C3.51086 8.70892 3.21073 9.08761 3.03984 9.52825C2.86894 9.9689 2.83525 10.4509 2.9432 10.9111C3.05115 11.3712 3.29569 11.7879 3.64473 12.1066C3.00526 12.3818 2.44924 12.82 2.03223 13.3775C1.99529 13.4267 1.96842 13.4828 1.95314 13.5424C1.93786 13.602 1.93448 13.6641 1.94319 13.725C1.95189 13.786 1.97252 13.8446 2.00388 13.8976C2.03524 13.9505 2.07673 13.9968 2.12598 14.0337C2.17522 14.0707 2.23126 14.0976 2.29089 14.1128C2.35052 14.1281 2.41258 14.1315 2.47352 14.1228C2.53446 14.1141 2.59308 14.0935 2.64605 14.0621C2.69902 14.0307 2.74529 13.9892 2.78223 13.94C3.06603 13.5616 3.43405 13.2545 3.85712 13.0429C4.2802 12.8314 4.74671 12.7212 5.21973 12.7212C5.69274 12.7212 6.15926 12.8314 6.58233 13.0429C7.00541 13.2545 7.37342 13.5616 7.65723 13.94C7.73191 14.0394 7.84299 14.105 7.96606 14.1225C8.08913 14.1399 8.21409 14.1078 8.31348 14.0332C8.34891 14.0068 8.38029 13.9754 8.40664 13.94C8.69045 13.5616 9.05846 13.2545 9.48154 13.0429C9.90461 12.8314 10.3711 12.7212 10.8441 12.7212C11.3172 12.7212 11.7837 12.8314 12.2067 13.0429C12.6298 13.2545 12.9978 13.5616 13.2816 13.94C13.3563 14.0395 13.4674 14.1052 13.5906 14.1227C13.7137 14.1402 13.8387 14.1081 13.9382 14.0335C14.0376 13.9588 14.1034 13.8477 14.1209 13.7245C14.1384 13.6014 14.1063 13.4764 14.0316 13.3769C13.6167 12.8207 13.0634 12.3827 12.4268 12.1066ZM5.21973 8.97125C5.49786 8.97125 5.76974 9.05372 6.001 9.20824C6.23225 9.36276 6.4125 9.58239 6.51893 9.83935C6.62537 10.0963 6.65322 10.3791 6.59896 10.6518C6.5447 10.9246 6.41076 11.1752 6.2141 11.3719C6.01743 11.5685 5.76686 11.7025 5.49407 11.7567C5.22129 11.811 4.93854 11.7831 4.68158 11.6767C4.42462 11.5703 4.20499 11.39 4.05047 11.1588C3.89595 10.9275 3.81348 10.6556 3.81348 10.3775C3.81348 10.0045 3.96163 9.64685 4.22536 9.38313C4.48908 9.11941 4.84677 8.97125 5.21973 8.97125ZM10.8447 8.97125C11.1229 8.97125 11.3947 9.05372 11.626 9.20824C11.8573 9.36276 12.0375 9.58239 12.1439 9.83935C12.2504 10.0963 12.2782 10.3791 12.224 10.6518C12.1697 10.9246 12.0358 11.1752 11.8391 11.3719C11.6424 11.5685 11.3919 11.7025 11.1191 11.7567C10.8463 11.811 10.5635 11.7831 10.3066 11.6767C10.0496 11.5703 9.82999 11.39 9.67547 11.1588C9.52095 10.9275 9.43848 10.6556 9.43848 10.3775C9.43848 10.0045 9.58664 9.64685 9.85036 9.38313C10.1141 9.11941 10.4718 8.97125 10.8447 8.97125Z" fill="url(#paint0_linear_115_1142)"/>
<defs>
<linearGradient id="paint0_linear_115_1142" x1="8.03202" y1="1.93823" x2="8.03202" y2="14.1275" gradientUnits="userSpaceOnUse">
<stop stop-color="#7DD4A2"/>
<stop offset="1" stop-color="#004F22"/>
</linearGradient>
</defs>
</svg>
