<svg width="93" height="29" viewBox="0 0 93 29" fill="none" xmlns="http://www.w3.org/2000/svg">
<rect y="0.5" width="28" height="28" rx="5" fill="#05B651"/>
<g clip-path="url(#clip0_220_5137)">
<path fill-rule="evenodd" clip-rule="evenodd" d="M11.4007 6.2114C10.4299 6.2114 9.49884 6.57846 8.81239 7.23184L5.5 10.3846V11.8277C5.5 12.8473 5.96012 13.7646 6.69351 14.4017C5.96012 15.0388 5.5 15.9561 5.5 16.9757V18.4188L8.81239 21.5716C9.49884 22.2249 10.4299 22.592 11.4007 22.592C12.4719 22.592 13.4356 22.1541 14.1049 21.456C14.7743 22.1541 15.738 22.592 16.8092 22.592C17.78 22.592 18.711 22.2249 19.3975 21.5716L22.7099 18.4188V16.9757C22.7099 15.9561 22.2498 15.0388 21.5164 14.4017C22.2498 13.7646 22.7099 12.8473 22.7099 11.8277V10.3846L19.3975 7.23184C18.711 6.57846 17.78 6.2114 16.8092 6.2114C15.738 6.2114 14.7743 6.64935 14.1049 7.34739C13.4356 6.64935 12.4719 6.2114 11.4007 6.2114ZM16.5826 14.4017C16.5414 14.3659 16.5009 14.329 16.4612 14.2913L14.1049 12.0485L11.7486 14.2913C11.709 14.329 11.6685 14.3659 11.6272 14.4017C11.6685 14.4375 11.709 14.4743 11.7486 14.5121L14.1049 16.7549L16.4612 14.5121C16.5009 14.4743 16.5414 14.4375 16.5826 14.4017ZM15.061 18.4188V19.108C15.061 20.027 15.8437 20.7719 16.8092 20.7719C17.2728 20.7719 17.7175 20.5966 18.0454 20.2846L20.7977 17.6649V16.9757C20.7977 16.0567 20.015 15.3117 19.0495 15.3117C18.5859 15.3117 18.1412 15.487 17.8134 15.7991L15.061 18.4188ZM13.1488 18.4188L10.3965 15.7991C10.0687 15.487 9.62402 15.3117 9.16038 15.3117C8.19489 15.3117 7.41221 16.0567 7.41221 16.9757V17.6649L10.1645 20.2846C10.4924 20.5966 10.937 20.7719 11.4007 20.7719C12.3661 20.7719 13.1488 20.027 13.1488 19.108V18.4188ZM13.1488 9.69539V10.3846L10.3965 13.0043C10.0687 13.3164 9.62402 13.4917 9.16038 13.4917C8.19489 13.4917 7.41221 12.7467 7.41221 11.8277V11.1385L10.1645 8.51882C10.4924 8.20677 10.937 8.03146 11.4007 8.03146C12.3661 8.03146 13.1488 8.77643 13.1488 9.69539ZM17.8134 13.0043L15.061 10.3846V9.69539C15.061 8.77643 15.8437 8.03146 16.8092 8.03146C17.2728 8.03146 17.7175 8.20677 18.0454 8.51882L20.7977 11.1385V11.8277C20.7977 12.7467 20.015 13.4917 19.0495 13.4917C18.5859 13.4917 18.1412 13.3164 17.8134 13.0043Z" fill="white"/>
</g>
<path d="M37.5828 9.96V21H35.9828V9.96H37.5828ZM41.1028 9.96V11.336H32.4788V9.96H41.1028ZM42.2727 13.192L42.4647 14.696L42.6087 14.92V21H41.0727V13.192H42.2727ZM46.0967 13L45.9367 14.44H45.4407C45.0033 14.44 44.5553 14.5253 44.0967 14.696C43.6487 14.8667 43.0993 15.112 42.4487 15.432L42.3367 14.488C42.902 14.0187 43.4727 13.656 44.0487 13.4C44.6353 13.1333 45.2007 13 45.7447 13H46.0967ZM50.5212 13C51.7265 13 52.5958 13.2187 53.1292 13.656C53.6732 14.0827 53.9452 14.7173 53.9452 15.56C53.9558 16.264 53.8012 16.808 53.4812 17.192C53.1718 17.576 52.6652 17.768 51.9612 17.768H47.4492V16.664H51.5612C51.9132 16.664 52.1425 16.552 52.2492 16.328C52.3558 16.104 52.4092 15.848 52.4092 15.56C52.3985 15.08 52.2545 14.7387 51.9772 14.536C51.7105 14.3333 51.2465 14.232 50.5852 14.232C50.0412 14.232 49.6145 14.312 49.3052 14.472C48.9958 14.632 48.7772 14.9093 48.6492 15.304C48.5318 15.6987 48.4732 16.2533 48.4732 16.968C48.4732 17.768 48.5478 18.3813 48.6972 18.808C48.8572 19.224 49.1078 19.512 49.4492 19.672C49.8012 19.832 50.2652 19.912 50.8412 19.912C51.2465 19.912 51.6998 19.896 52.2012 19.864C52.7132 19.8213 53.1772 19.7733 53.5932 19.72L53.7532 20.728C53.4972 20.8347 53.1878 20.9253 52.8252 21C52.4625 21.064 52.0892 21.112 51.7052 21.144C51.3212 21.176 50.9692 21.192 50.6492 21.192C49.7318 21.192 48.9958 21.0533 48.4412 20.776C47.8865 20.4987 47.4812 20.0613 47.2252 19.464C46.9692 18.856 46.8412 18.0613 46.8412 17.08C46.8412 16.056 46.9692 15.2453 47.2252 14.648C47.4812 14.0507 47.8812 13.6293 48.4252 13.384C48.9692 13.128 49.6678 13 50.5212 13ZM58.905 13C59.7477 13 60.4144 13.0853 60.905 13.256C61.4064 13.416 61.7637 13.6827 61.977 14.056C62.1904 14.4187 62.297 14.8933 62.297 15.48C62.297 16.0453 62.1904 16.5147 61.977 16.888C61.7637 17.2507 61.4064 17.5227 60.905 17.704C60.4037 17.8747 59.7317 17.96 58.889 17.96C58.0357 17.96 57.3584 17.8747 56.857 17.704C56.3664 17.5227 56.0144 17.2507 55.801 16.888C55.5877 16.5253 55.481 16.0613 55.481 15.496C55.481 14.8987 55.5877 14.4187 55.801 14.056C56.0144 13.6827 56.3717 13.416 56.873 13.256C57.3744 13.0853 58.0517 13 58.905 13ZM58.889 14.104C58.1424 14.104 57.625 14.2107 57.337 14.424C57.049 14.6267 56.905 14.9787 56.905 15.48C56.905 15.9707 57.049 16.3227 57.337 16.536C57.625 16.7493 58.1424 16.856 58.889 16.856C59.6357 16.856 60.1477 16.7493 60.425 16.536C60.713 16.3227 60.857 15.9707 60.857 15.48C60.857 14.9787 60.713 14.6267 60.425 14.424C60.1477 14.2107 59.6357 14.104 58.889 14.104ZM63.209 13.192L63.129 13.992L61.113 14.168L60.553 13.192H63.209ZM56.665 17.464L57.513 17.576C57.3424 17.7253 57.225 17.912 57.161 18.136C57.097 18.36 57.113 18.5627 57.209 18.744C57.305 18.9253 57.5184 19.0427 57.849 19.096L60.761 19.544C61.5077 19.64 62.0304 19.8693 62.329 20.232C62.6277 20.584 62.777 21.0907 62.777 21.752C62.777 22.3813 62.6544 22.872 62.409 23.224C62.1744 23.576 61.7797 23.8267 61.225 23.976C60.6704 24.1253 59.9237 24.2 58.985 24.2C58.249 24.2 57.6357 24.1573 57.145 24.072C56.6544 23.9973 56.2597 23.864 55.961 23.672C55.673 23.4907 55.465 23.2507 55.337 22.952C55.209 22.6533 55.145 22.2853 55.145 21.848C55.145 21.5067 55.193 21.2187 55.289 20.984C55.3957 20.7493 55.5664 20.5413 55.801 20.36C56.0357 20.1787 56.3397 20.0027 56.713 19.832L57.721 19.336L58.393 19.576L57.625 20.136C57.401 20.296 57.2144 20.456 57.065 20.616C56.9264 20.7653 56.8197 20.92 56.745 21.08C56.6704 21.2507 56.633 21.4533 56.633 21.688C56.633 22.0293 56.697 22.2907 56.825 22.472C56.9637 22.6533 57.2037 22.776 57.545 22.84C57.8864 22.904 58.361 22.936 58.969 22.936C59.577 22.936 60.0464 22.8987 60.377 22.824C60.7077 22.76 60.937 22.6373 61.065 22.456C61.2037 22.2853 61.273 22.0347 61.273 21.704C61.273 21.448 61.2357 21.2507 61.161 21.112C61.097 20.984 60.969 20.888 60.777 20.824C60.585 20.7493 60.3077 20.6853 59.945 20.632L57.209 20.28C56.857 20.2373 56.5797 20.1307 56.377 19.96C56.1744 19.7787 56.0304 19.5707 55.945 19.336C55.8704 19.0907 55.849 18.8507 55.881 18.616C55.9237 18.3707 56.009 18.1413 56.137 17.928C56.2757 17.7147 56.4517 17.56 56.665 17.464ZM67.8749 13C68.7922 13 69.5229 13.1333 70.0669 13.4C70.6216 13.6667 71.0162 14.104 71.2509 14.712C71.4962 15.3093 71.6189 16.104 71.6189 17.096C71.6189 18.0987 71.4962 18.904 71.2509 19.512C71.0162 20.1093 70.6216 20.5413 70.0669 20.808C69.5229 21.0747 68.7922 21.208 67.8749 21.208C66.9682 21.208 66.2376 21.0747 65.6829 20.808C65.1389 20.5413 64.7442 20.1093 64.4989 19.512C64.2536 18.904 64.1309 18.0987 64.1309 17.096C64.1309 16.104 64.2536 15.3093 64.4989 14.712C64.7442 14.104 65.1389 13.6667 65.6829 13.4C66.2376 13.1333 66.9682 13 67.8749 13ZM67.8749 14.248C67.3416 14.248 66.9202 14.3333 66.6109 14.504C66.3016 14.6747 66.0829 14.968 65.9549 15.384C65.8269 15.7893 65.7629 16.36 65.7629 17.096C65.7629 17.832 65.8269 18.408 65.9549 18.824C66.0829 19.24 66.3016 19.5333 66.6109 19.704C66.9202 19.864 67.3416 19.944 67.8749 19.944C68.4082 19.944 68.8296 19.864 69.1389 19.704C69.4589 19.5333 69.6829 19.24 69.8109 18.824C69.9389 18.408 70.0029 17.832 70.0029 17.096C70.0029 16.36 69.9389 15.7893 69.8109 15.384C69.6829 14.968 69.4589 14.6747 69.1389 14.504C68.8296 14.3333 68.4082 14.248 67.8749 14.248ZM74.3752 19.016C74.5885 19.016 74.7378 19.0587 74.8232 19.144C74.9085 19.2187 74.9512 19.3627 74.9512 19.576V20.424C74.9512 20.6373 74.9085 20.7867 74.8232 20.872C74.7378 20.9573 74.5885 21 74.3752 21H73.9112C73.6978 21 73.5485 20.9573 73.4632 20.872C73.3778 20.7867 73.3352 20.6373 73.3352 20.424V19.576C73.3352 19.3627 73.3778 19.2187 73.4632 19.144C73.5485 19.0587 73.6978 19.016 73.9112 19.016H74.3752ZM80.4459 13C80.6912 13 80.9579 13.0107 81.2459 13.032C81.5446 13.0533 81.8486 13.0907 82.1579 13.144C82.4779 13.1973 82.7712 13.2773 83.0379 13.384L82.8459 14.376C82.4726 14.344 82.0886 14.3227 81.6939 14.312C81.3099 14.2907 80.9792 14.28 80.7019 14.28C80.1046 14.28 79.6299 14.3653 79.2779 14.536C78.9366 14.696 78.6912 14.9787 78.5419 15.384C78.3926 15.7893 78.3179 16.3547 78.3179 17.08C78.3179 17.8053 78.3926 18.376 78.5419 18.792C78.6912 19.208 78.9366 19.496 79.2779 19.656C79.6299 19.816 80.1046 19.896 80.7019 19.896C80.8619 19.896 81.0699 19.8907 81.3259 19.88C81.5819 19.8693 81.8592 19.8533 82.1579 19.832C82.4566 19.8107 82.7446 19.7787 83.0219 19.736L83.1659 20.76C82.7712 20.9093 82.3339 21.016 81.8539 21.08C81.3739 21.1547 80.8992 21.192 80.4299 21.192C79.5126 21.192 78.7766 21.0587 78.2219 20.792C77.6779 20.5253 77.2832 20.0933 77.0379 19.496C76.7926 18.8987 76.6699 18.0933 76.6699 17.08C76.6699 16.0773 76.7926 15.2773 77.0379 14.68C77.2939 14.0827 77.6939 13.656 78.2379 13.4C78.7926 13.1333 79.5286 13 80.4459 13ZM88.0355 13C88.9529 13 89.6835 13.1333 90.2275 13.4C90.7822 13.6667 91.1769 14.104 91.4115 14.712C91.6569 15.3093 91.7795 16.104 91.7795 17.096C91.7795 18.0987 91.6569 18.904 91.4115 19.512C91.1769 20.1093 90.7822 20.5413 90.2275 20.808C89.6835 21.0747 88.9529 21.208 88.0355 21.208C87.1289 21.208 86.3982 21.0747 85.8435 20.808C85.2995 20.5413 84.9049 20.1093 84.6595 19.512C84.4142 18.904 84.2915 18.0987 84.2915 17.096C84.2915 16.104 84.4142 15.3093 84.6595 14.712C84.9049 14.104 85.2995 13.6667 85.8435 13.4C86.3982 13.1333 87.1289 13 88.0355 13ZM88.0355 14.248C87.5022 14.248 87.0809 14.3333 86.7715 14.504C86.4622 14.6747 86.2435 14.968 86.1155 15.384C85.9875 15.7893 85.9235 16.36 85.9235 17.096C85.9235 17.832 85.9875 18.408 86.1155 18.824C86.2435 19.24 86.4622 19.5333 86.7715 19.704C87.0809 19.864 87.5022 19.944 88.0355 19.944C88.5689 19.944 88.9902 19.864 89.2995 19.704C89.6195 19.5333 89.8435 19.24 89.9715 18.824C90.0995 18.408 90.1635 17.832 90.1635 17.096C90.1635 16.36 90.0995 15.7893 89.9715 15.384C89.8435 14.968 89.6195 14.6747 89.2995 14.504C88.9902 14.3333 88.5689 14.248 88.0355 14.248Z" fill="white"/>
<defs>
<clipPath id="clip0_220_5137">
<rect width="17" height="17" fill="white" transform="translate(5.5 6)"/>
</clipPath>
</defs>
</svg>
