<svg width="106" height="105" viewBox="0 0 106 105" fill="none" xmlns="http://www.w3.org/2000/svg">
<path fill-rule="evenodd" clip-rule="evenodd" d="M52.4823 11.7498C43.5022 11.7498 36.2989 18.3659 36.2989 26.4408C36.2989 27.8643 35.0515 29.0181 33.5127 29.0181C31.974 29.0181 30.7266 27.8643 30.7266 26.4408C30.7266 15.4417 40.5091 6.59534 52.4823 6.59534C64.4555 6.59534 74.238 15.4417 74.238 26.4408C74.238 27.8643 72.9906 29.0181 71.4518 29.0181C69.913 29.0181 68.6656 27.8643 68.6656 26.4408C68.6656 18.3659 61.4622 11.7498 52.4823 11.7498Z" fill="#E33817"/>
<path d="M75.196 40.148L76.0986 33.5749C76.4576 30.9605 76.6372 29.6532 75.8329 28.8088C75.0285 27.9644 73.604 27.9644 70.7549 27.9644H34.2043C31.3552 27.9644 29.9306 27.9644 29.1264 28.8088C28.3221 29.6532 28.5016 30.9605 28.8606 33.5749L29.7632 40.148C30.9022 48.4434 31.4718 52.5912 34.5248 55.0792C37.5777 57.5672 42.0977 57.5672 51.138 57.5672H53.8212C62.8614 57.5672 67.3814 57.5672 70.4343 55.0792C73.4874 52.5912 74.0569 48.4434 75.196 40.148Z" fill="white"/>
<path fill-rule="evenodd" clip-rule="evenodd" d="M34.0784 26.0962C34.1216 26.0962 34.1651 26.0962 34.2086 26.0962H70.8896C72.2018 26.0961 73.3913 26.0959 74.3459 26.2198C75.3888 26.3553 76.4981 26.6766 77.3528 27.5738C78.2074 28.471 78.4123 29.5297 78.4261 30.5038C78.4387 31.3953 78.2887 32.4867 78.1233 33.691L77.1864 40.5128C76.6321 44.551 76.1916 47.7591 75.493 50.2593C74.7726 52.8371 73.7196 54.8959 71.774 56.4814C69.8285 58.067 67.4878 58.7738 64.6323 59.11C61.8631 59.4359 58.3669 59.4359 53.9664 59.4359H51.0014C46.6009 59.4359 43.1047 59.4359 40.3354 59.11C37.48 58.7738 35.1394 58.067 33.1938 56.4814C31.2482 54.8959 30.1952 52.8371 29.4749 50.2593C28.7763 47.7591 28.3358 44.551 27.7813 40.5128L26.861 33.8105C26.8555 33.7706 26.8501 33.7306 26.8446 33.691C26.6791 32.4867 26.5291 31.3953 26.5418 30.5038C26.5556 29.5297 26.7604 28.471 27.615 27.5738C28.4696 26.6766 29.579 26.3553 30.622 26.2198C31.5766 26.0959 32.766 26.0961 34.0784 26.0962ZM30.6469 30.0447C30.6521 30.0418 30.6619 30.0369 30.6777 30.0305C30.7422 30.0043 30.8882 29.9589 31.1836 29.9205C31.8232 29.8374 32.7234 29.833 34.2086 29.833H70.7593C72.2445 29.833 73.1446 29.8374 73.7842 29.9205C74.0796 29.9589 74.2256 30.0043 74.2902 30.0305C74.3058 30.0369 74.3157 30.0418 74.321 30.0447C74.3233 30.0499 74.3273 30.0593 74.3322 30.0747C74.3523 30.1372 74.3824 30.2769 74.3864 30.5529C74.395 31.1502 74.2862 31.9767 74.0991 33.3396L73.1965 39.9127C73.1911 39.9519 73.1856 39.991 73.1804 40.0301C72.6125 44.1647 72.2025 47.1019 71.5815 49.3241C70.9691 51.5159 70.2108 52.775 69.1035 53.6774C67.9959 54.5798 66.5502 55.117 64.1223 55.4029C61.6377 55.6954 58.3987 55.699 53.8255 55.699H51.1423C46.569 55.699 43.3302 55.6954 40.8455 55.4029C38.4176 55.117 36.9718 54.5798 35.8644 53.6774C34.757 52.775 33.9988 51.5159 33.3863 49.3241C32.7595 47.0809 32.3476 44.1093 31.7714 39.9127L30.8688 33.3396C30.6816 31.9767 30.5729 31.1502 30.5814 30.5529C30.5853 30.2769 30.6156 30.1372 30.6357 30.0747C30.6405 30.0593 30.6445 30.0499 30.6469 30.0447Z" fill="white"/>
<path fill-rule="evenodd" clip-rule="evenodd" d="M22.5234 27.1055C22.5234 25.6823 23.7709 24.5283 25.3096 24.5283H79.5083C81.0471 24.5283 82.2945 25.6823 82.2945 27.1055C82.2945 28.5289 81.0471 29.6828 79.5083 29.6828H25.3096C23.7709 29.6828 22.5234 28.5289 22.5234 27.1055Z" fill="white"/>
<path d="M11.098 99.5V84.9545H13.2926V91.2756H20.544V84.9545H22.7457V99.5H20.544V93.1577H13.2926V99.5H11.098ZM32.0818 94.9759V88.5909H34.2125V99.5H32.1244V97.6108H32.0108C31.7598 98.1932 31.3574 98.6785 30.8034 99.0668C30.2542 99.4503 29.57 99.642 28.7509 99.642C28.0501 99.642 27.4298 99.4882 26.8901 99.1804C26.355 98.8679 25.9336 98.4062 25.6259 97.7955C25.3228 97.1847 25.1713 96.4295 25.1713 95.5298V88.5909H27.2949V95.2741C27.2949 96.0175 27.5009 96.6094 27.9128 97.0497C28.3247 97.4901 28.8598 97.7102 29.5179 97.7102C29.9156 97.7102 30.311 97.6108 30.704 97.4119C31.1017 97.2131 31.4308 96.9124 31.6912 96.5099C31.9563 96.1075 32.0866 95.5961 32.0818 94.9759ZM41.0397 103.818C40.1732 103.818 39.4275 103.705 38.8025 103.477C38.1822 103.25 37.6756 102.949 37.2826 102.575C36.8896 102.201 36.596 101.792 36.4019 101.347L38.2272 100.594C38.355 100.802 38.5255 101.022 38.7386 101.254C38.9564 101.491 39.2499 101.692 39.6192 101.858C39.9933 102.024 40.4739 102.107 41.061 102.107C41.8659 102.107 42.5312 101.91 43.0567 101.517C43.5823 101.129 43.8451 100.509 43.8451 99.6562V97.5114H43.7102C43.5823 97.7434 43.3977 98.0014 43.1562 98.2855C42.9194 98.5696 42.5927 98.8158 42.1761 99.0241C41.7594 99.2325 41.2173 99.3366 40.5496 99.3366C39.6879 99.3366 38.9114 99.1354 38.2201 98.733C37.5335 98.3258 36.989 97.7268 36.5866 96.9361C36.1888 96.1406 35.99 95.1629 35.99 94.0028C35.99 92.8428 36.1865 91.8485 36.5795 91.0199C36.9772 90.1913 37.5217 89.5568 38.213 89.1165C38.9043 88.6714 39.6879 88.4489 40.5638 88.4489C41.2409 88.4489 41.7878 88.5625 42.2045 88.7898C42.6211 89.0123 42.9455 89.2727 43.1775 89.571C43.4142 89.8693 43.5965 90.1321 43.7244 90.3594H43.8806V88.5909H45.9616V99.7415C45.9616 100.679 45.7438 101.448 45.3082 102.05C44.8726 102.651 44.2831 103.096 43.5397 103.385C42.8011 103.674 41.9677 103.818 41.0397 103.818ZM41.0184 97.5753C41.6292 97.5753 42.1453 97.4332 42.5667 97.1491C42.9928 96.8603 43.3148 96.4484 43.5326 95.9134C43.7551 95.3736 43.8664 94.7273 43.8664 93.9744C43.8664 93.2405 43.7575 92.5942 43.5397 92.0355C43.3219 91.4768 43.0023 91.0412 42.5809 90.7287C42.1595 90.4115 41.6387 90.2528 41.0184 90.2528C40.3792 90.2528 39.8465 90.4186 39.4204 90.75C38.9942 91.0767 38.6723 91.5218 38.4545 92.0852C38.2414 92.6487 38.1349 93.2784 38.1349 93.9744C38.1349 94.6894 38.2438 95.3168 38.4616 95.8565C38.6794 96.3963 39.0013 96.8177 39.4275 97.1207C39.8584 97.4238 40.3887 97.5753 41.0184 97.5753ZM52.9113 99.7202C51.8365 99.7202 50.9108 99.4905 50.1343 99.0312C49.3625 98.5672 48.7659 97.9162 48.3445 97.0781C47.9279 96.2353 47.7195 95.2481 47.7195 94.1165C47.7195 92.9991 47.9279 92.0142 48.3445 91.1619C48.7659 90.3097 49.3531 89.6444 50.1059 89.1662C50.8635 88.688 51.7489 88.4489 52.7621 88.4489C53.3777 88.4489 53.9743 88.5507 54.5519 88.7543C55.1296 88.9579 55.648 89.2775 56.1073 89.7131C56.5666 90.1487 56.9288 90.7145 57.194 91.4105C57.4591 92.1018 57.5917 92.9422 57.5917 93.9318V94.6847H48.9198V93.0938H55.5107C55.5107 92.535 55.3971 92.0402 55.1698 91.6094C54.9425 91.1738 54.6229 90.8305 54.211 90.5795C53.8038 90.3286 53.3256 90.2031 52.7764 90.2031C52.1798 90.2031 51.6589 90.3499 51.2139 90.6435C50.7735 90.9323 50.4326 91.3111 50.1911 91.7798C49.9544 92.2438 49.836 92.7481 49.836 93.2926V94.5355C49.836 95.2647 49.9639 95.8849 50.2195 96.3963C50.4799 96.9077 50.8422 97.2983 51.3062 97.5682C51.7702 97.8333 52.3123 97.9659 52.9326 97.9659C53.3351 97.9659 53.702 97.9091 54.0335 97.7955C54.3649 97.6771 54.6514 97.5019 54.8928 97.2699C55.1343 97.0379 55.319 96.7514 55.4468 96.4105L57.4567 96.7727C57.2958 97.3646 57.0069 97.883 56.5903 98.3281C56.1783 98.7685 55.6599 99.1117 55.0349 99.358C54.4146 99.5994 53.7067 99.7202 52.9113 99.7202ZM59.3479 99.5V88.5909H61.4714V99.5H59.3479ZM60.4203 86.9077C60.051 86.9077 59.7338 86.7846 59.4686 86.5384C59.2082 86.2874 59.078 85.9891 59.078 85.6435C59.078 85.2931 59.2082 84.9948 59.4686 84.7486C59.7338 84.4976 60.051 84.3722 60.4203 84.3722C60.7896 84.3722 61.1045 84.4976 61.3649 84.7486C61.6301 84.9948 61.7626 85.2931 61.7626 85.6435C61.7626 85.9891 61.6301 86.2874 61.3649 86.5384C61.1045 86.7846 60.7896 86.9077 60.4203 86.9077ZM68.3235 99.7202C67.2676 99.7202 66.3585 99.4811 65.5962 99.0028C64.8387 98.5199 64.2563 97.8546 63.8491 97.0071C63.4419 96.1596 63.2383 95.1889 63.2383 94.0952C63.2383 92.9872 63.4466 92.0095 63.8633 91.1619C64.2799 90.3097 64.8671 89.6444 65.6246 89.1662C66.3822 88.688 67.2747 88.4489 68.3022 88.4489C69.1308 88.4489 69.8694 88.6027 70.5181 88.9105C71.1668 89.2135 71.69 89.6397 72.0877 90.1889C72.4902 90.7382 72.7293 91.3797 72.805 92.1136H70.7383C70.6246 91.6023 70.3642 91.1619 69.957 90.7926C69.5546 90.4233 69.0148 90.2386 68.3377 90.2386C67.7459 90.2386 67.2274 90.3949 66.7823 90.7074C66.342 91.0152 65.9987 91.4555 65.7525 92.0284C65.5063 92.5966 65.3832 93.2689 65.3832 94.0455C65.3832 94.8409 65.5039 95.5275 65.7454 96.1051C65.9869 96.6828 66.3278 97.1302 66.7681 97.4474C67.2132 97.7647 67.7364 97.9233 68.3377 97.9233C68.7402 97.9233 69.1048 97.8499 69.4315 97.7031C69.7629 97.5516 70.0399 97.3362 70.2624 97.0568C70.4897 96.7775 70.6483 96.4413 70.7383 96.0483H72.805C72.7293 96.7538 72.4996 97.3835 72.1161 97.9375C71.7326 98.4915 71.2189 98.9271 70.5749 99.2443C69.9357 99.5616 69.1853 99.7202 68.3235 99.7202ZM79.0712 99.7202C78.0484 99.7202 77.1559 99.4858 76.3936 99.017C75.6313 98.5483 75.0394 97.8925 74.618 97.0497C74.1966 96.2069 73.9859 95.2221 73.9859 94.0952C73.9859 92.9635 74.1966 91.974 74.618 91.1264C75.0394 90.2789 75.6313 89.6207 76.3936 89.152C77.1559 88.6832 78.0484 88.4489 79.0712 88.4489C80.0939 88.4489 80.9864 88.6832 81.7487 89.152C82.511 89.6207 83.1029 90.2789 83.5243 91.1264C83.9457 91.974 84.1564 92.9635 84.1564 94.0952C84.1564 95.2221 83.9457 96.2069 83.5243 97.0497C83.1029 97.8925 82.511 98.5483 81.7487 99.017C80.9864 99.4858 80.0939 99.7202 79.0712 99.7202ZM79.0783 97.9375C79.7411 97.9375 80.2904 97.7623 80.726 97.4119C81.1616 97.0616 81.4836 96.5952 81.6919 96.0128C81.905 95.4304 82.0115 94.7888 82.0115 94.0881C82.0115 93.392 81.905 92.7528 81.6919 92.1705C81.4836 91.5833 81.1616 91.1122 80.726 90.7571C80.2904 90.402 79.7411 90.2244 79.0783 90.2244C78.4107 90.2244 77.8567 90.402 77.4163 90.7571C76.9807 91.1122 76.6564 91.5833 76.4433 92.1705C76.235 92.7528 76.1308 93.392 76.1308 94.0881C76.1308 94.7888 76.235 95.4304 76.4433 96.0128C76.6564 96.5952 76.9807 97.0616 77.4163 97.4119C77.8567 97.7623 78.4107 97.9375 79.0783 97.9375ZM88.0504 93.0227V99.5H85.9268V88.5909H87.9651V90.3665H88.1001C88.351 89.7888 88.744 89.3248 89.2791 88.9744C89.8188 88.6241 90.4983 88.4489 91.3174 88.4489C92.0608 88.4489 92.7118 88.6051 93.2705 88.9176C93.8292 89.2254 94.2625 89.6847 94.5702 90.2955C94.878 90.9062 95.0319 91.6615 95.0319 92.5611V99.5H92.9083V92.8168C92.9083 92.026 92.7023 91.4081 92.2904 90.9631C91.8785 90.5133 91.3127 90.2884 90.593 90.2884C90.1005 90.2884 89.6626 90.3949 89.2791 90.608C88.9003 90.821 88.5996 91.1335 88.3771 91.5455C88.1593 91.9527 88.0504 92.4451 88.0504 93.0227Z" fill="white"/>
</svg>
