<svg width="18" height="19" viewBox="0 0 18 19" fill="none" xmlns="http://www.w3.org/2000/svg">
<path d="M6 2.375H3.375C2.54657 2.375 1.875 3.04657 1.875 3.875V6.5M12 2.375H14.625C15.4534 2.375 16.125 3.04657 16.125 3.875V6.5M12 16.625H14.625C15.4534 16.625 16.125 15.9534 16.125 15.125V12.5M6 16.625H3.375C2.54657 16.625 1.875 15.9534 1.875 15.125V12.5" stroke="white" stroke-width="1.25" stroke-linecap="round" stroke-linejoin="round"/>
<path d="M7.28572 8.75H6V13.25H12V8.75H10.7143M7.28572 8.75V7.41667C7.28572 6.49619 8.0532 5.75 9 5.75C9.9468 5.75 10.7143 6.49619 10.7143 7.41667V8.75M7.28572 8.75H10.7143" stroke="white" stroke-width="1.25" stroke-linejoin="round"/>
</svg>
