<svg width="21" height="20" viewBox="0 0 21 20" fill="none" xmlns="http://www.w3.org/2000/svg">
<path d="M0.839844 1.43266C0.839844 0.641875 1.50187 0 2.31797 0H19.3617C20.1781 0 20.8398 0.641875 20.8398 1.43266V18.5676C20.8398 19.3586 20.1781 20 19.3617 20H2.31797C1.50195 20 0.839844 19.3587 0.839844 18.5678V1.43242V1.43266Z" fill="white"/>
<path d="M6.91727 16.7369V7.7328H3.92445V16.7369H6.91758H6.91727ZM5.42148 6.50366C6.46492 6.50366 7.11453 5.81226 7.11453 4.94819C7.095 4.06444 6.46492 3.39233 5.44133 3.39233C4.41703 3.39233 3.74805 4.06444 3.74805 4.94812C3.74805 5.81218 4.39742 6.50358 5.40187 6.50358H5.42125L5.42148 6.50366ZM8.57383 16.7369H11.5664V11.7091C11.5664 11.4404 11.5859 11.1709 11.665 10.979C11.8813 10.4411 12.3737 9.88429 13.2006 9.88429C14.2833 9.88429 14.7166 10.7099 14.7166 11.9205V16.7369H17.7091V11.5742C17.7091 8.80866 16.2329 7.52171 14.2639 7.52171C12.6496 7.52171 11.9406 8.42397 11.5467 9.03851H11.5666V7.73312H8.57398C8.61305 8.5778 8.57375 16.7372 8.57375 16.7372L8.57383 16.7369Z" fill="black"/>
</svg>
