<svg width="18" height="19" viewBox="0 0 18 19" fill="none" xmlns="http://www.w3.org/2000/svg">
<path d="M12 8C11.5858 8 11.25 8.33578 11.25 8.75V13.25C11.25 13.6642 11.5858 14 12 14H12.75C14.4068 14 15.75 12.6568 15.75 11C15.75 9.34317 14.4068 8 12.75 8H12Z" stroke="white" stroke-width="1.25" stroke-linejoin="round"/>
<path d="M6 8C6.41421 8 6.75 8.33578 6.75 8.75V13.25C6.75 13.6642 6.41421 14 6 14H5.25C3.59314 14 2.25 12.6568 2.25 11C2.25 9.34317 3.59314 8 5.25 8H6Z" stroke="white" stroke-width="1.25" stroke-linejoin="round"/>
<path d="M2.25 11V8.75C2.25 5.02208 5.27208 2 9 2C12.728 2 15.75 5.02208 15.75 8.75V14C15.75 15.6568 14.4068 17 12.75 17H9" stroke="white" stroke-width="1.25" stroke-linecap="round"/>
</svg>
