<svg width="126" height="30" viewBox="0 0 126 30" fill="none" xmlns="http://www.w3.org/2000/svg">
<g clip-path="url(#clip0_288_155106)">
<path d="M60.3167 0C59.6138 3.09493 59.3365 4.31668 55.1436 4.69878C59.3365 4.31668 59.0591 5.53843 58.3563 8.6334C59.0549 5.55682 59.3365 4.31668 63.4634 3.94057C59.3365 4.31668 59.618 3.07654 60.3167 0Z" fill="#4F5552"/>
<path d="M62.1288 8.21096C60.9498 8.95526 59.5183 9.13219 58.1335 9.29531C56.6166 9.47396 55.115 9.65914 53.6307 9.85031C54.0239 8.12029 54.2069 7.41928 56.5568 7.20513C54.1823 7.42152 54.3443 6.70799 54.7462 4.93785C54.3419 6.71858 54.1823 7.42152 51.7699 7.64134C54.1574 7.42379 54.0257 8.11001 53.6307 9.85031C49.1996 10.4211 44.9216 11.0458 40.8464 11.7112C45.5681 11.1355 52.1307 10.5746 57.7631 10.0932C59.5914 9.93694 62.0441 9.74374 62.5651 11.5032C62.7299 12.0599 62.7328 12.7458 62.6332 13.5652H60.141L58.0838 23.2435H63.5588L65.616 13.5652H62.8379C63.263 12.2718 63.7941 11.2628 64.6646 10.4847C65.7727 9.49436 67.3392 9.28706 68.8215 9.18011C98.9483 7.00645 122.668 8.59481 123.058 13.0262C123.17 14.2879 121.378 15.6534 118.065 17.0334V17.0384L118.054 17.0429V17.0334C119.282 16.5141 121.752 15.2273 121.904 13.5652H116.659L114.586 18.3528C114.584 18.3613 114.578 18.3699 114.567 18.3786H114.554L114.56 18.3528C114.55 17.8194 114.536 17.286 114.517 16.7526C114.507 16.2192 114.497 15.6901 114.485 15.1653C114.475 14.6319 114.461 14.0986 114.443 13.5652H107.411L105.353 23.2435H110.169L111.302 17.914L111.305 17.9011H111.317C111.32 17.9011 111.322 17.9013 111.323 17.9019C111.326 17.903 111.329 17.9053 111.329 17.9089C111.329 17.9099 111.329 17.911 111.329 17.9122L111.328 17.914C111.359 18.8001 111.387 19.6862 111.41 20.5723C111.432 21.4584 111.458 22.3488 111.488 23.2435H114.852L117.287 17.8753L117.289 17.8624H117.302C117.308 17.8624 117.311 17.8639 117.312 17.8669C117.313 17.8674 117.313 17.8681 117.313 17.8688V17.8698C117.313 17.8714 117.313 17.8732 117.313 17.8753L116.171 23.2435H121.251L123.067 14.7002C124.914 13.5766 125.859 12.4903 125.749 11.4814C125.222 6.64171 100.6 5.2853 69.3479 8.12486C69.2891 8.13026 69.2295 8.13574 69.1696 8.14129L69.1615 8.14204C67.6894 8.27824 65.9216 8.44174 65.1723 7.19977C64.4528 6.00712 64.9119 3.98501 65.5717 1.07947C64.7625 4.64313 64.2575 6.8673 62.1288 8.21096Z" fill="#4F5552"/>
<path fill-rule="evenodd" clip-rule="evenodd" d="M41.4479 13.7458C40.5081 13.3673 39.2554 13.178 37.6899 13.178C36.9423 13.178 36.2463 13.2253 35.6016 13.32C34.9659 13.4145 34.3781 13.5522 33.8384 13.7329C33.2987 13.9136 32.8088 14.1286 32.3688 14.3781C31.9394 14.619 31.551 14.8943 31.2038 15.204C30.8583 15.5051 30.5558 15.832 30.2961 16.1847C30.0471 16.5288 29.8383 16.8902 29.6699 17.2687C29.5122 17.6386 29.3912 18.0215 29.307 18.4172C29.2047 18.899 29.163 19.3635 29.1823 19.8109C29.2035 20.2497 29.2827 20.6626 29.4204 21.0497C29.5686 21.4282 29.7768 21.7724 30.0453 22.0821C30.3225 22.3918 30.6615 22.6584 31.0625 22.8822C31.4654 23.0972 31.9311 23.265 32.4595 23.3854C32.9968 23.5059 33.5997 23.5661 34.2681 23.5661C34.5759 23.5661 34.8426 23.5532 35.0679 23.5274C35.3002 23.5101 35.5397 23.4801 35.7863 23.437C36.0349 22.9295 36.2844 22.4176 36.5349 21.9014C36.7959 21.3766 37.0518 20.8561 37.3021 20.34C37.3735 20.1928 37.4448 20.046 37.5161 19.8996C37.5823 19.7634 37.6485 19.6275 37.7146 19.4919C37.8269 19.2619 37.9389 19.0327 38.0507 18.8043L37.1072 23.2434H42.7009L43.6445 18.8043H38.0507L44.0298 17.4881C44.0628 16.6708 43.8752 15.9396 43.467 15.2943C43.0607 14.6405 42.3876 14.1243 41.4479 13.7458ZM38.0507 18.8043C37.9068 18.985 37.7007 19.1269 37.4325 19.2302C37.1661 19.3248 36.8087 19.3722 36.3601 19.3722C36.0699 19.3722 35.8256 19.342 35.6274 19.2818C35.4291 19.2216 35.2749 19.1399 35.1649 19.0366C35.055 18.9334 34.982 18.8215 34.946 18.7011C34.9119 18.5721 34.9094 18.4387 34.9386 18.3011C34.9789 18.1118 35.0648 17.9355 35.1963 17.772C35.3384 17.5999 35.5401 17.4579 35.8013 17.3461C36.0714 17.2343 36.413 17.1784 36.8264 17.1784C37.2661 17.1784 37.6033 17.2472 37.8379 17.3848C38.0725 17.5225 38.2082 17.7117 38.2449 17.9526C38.2817 18.1935 38.217 18.4774 38.0507 18.8043Z" fill="#4F5552"/>
<path d="M53.4789 13.2039C53.1854 13.1866 52.8796 13.178 52.5614 13.178C51.7523 13.178 50.9962 13.2382 50.2934 13.3587C49.6012 13.4705 48.9631 13.6383 48.3791 13.8619C47.7968 14.077 47.2705 14.3394 46.8001 14.6491C46.3403 14.9502 45.933 15.2943 45.578 15.6815C45.2319 16.0686 44.94 16.4901 44.7023 16.9461C44.4735 17.4021 44.3051 17.8838 44.1973 18.3914C44.1871 18.4391 44.1776 18.4867 44.1687 18.5343C50.4304 18.4059 51.9336 16.8805 53.4789 13.2039Z" fill="#4F5552"/>
<path d="M44.1687 18.5343C44.1053 18.8727 44.073 19.2081 44.0719 19.5399C44.0794 19.9185 44.1345 20.2798 44.2373 20.6239C44.3488 20.968 44.508 21.2949 44.7148 21.6046C44.9323 21.9058 45.2036 22.181 45.5287 22.4305C45.8627 22.68 46.2611 22.8951 46.724 23.0758C47.1888 23.2478 47.7189 23.3812 48.3145 23.4757C48.6799 23.5384 49.072 23.582 49.4907 23.6066C50.764 19.9327 50.4195 18.4391 44.1687 18.5343Z" fill="#4F5552"/>
<path d="M49.5364 23.6092C49.7942 23.6234 50.0619 23.6306 50.3396 23.6306C51.3863 23.6306 52.3255 23.5359 53.1573 23.3467C53.996 23.166 54.736 22.9122 55.3771 22.5853C56.0202 22.2498 56.5686 21.8627 57.0224 21.4239C57.4781 20.9765 57.8435 20.4991 58.1185 19.9916C58.3953 19.4753 58.5923 18.9419 58.7093 18.3914C58.7176 18.3521 58.7255 18.3131 58.733 18.2743C52.5722 18.4013 51.0742 19.9479 49.5364 23.6092Z" fill="#4F5552"/>
<path d="M58.7329 18.2744C52.5912 18.3672 52.2613 16.8558 53.525 13.2068C54.7033 13.2802 55.6802 13.4943 56.4557 13.8491C57.4336 14.2965 58.1077 14.9115 58.4778 15.6945C58.8335 16.447 58.9186 17.3072 58.7329 18.2744Z" fill="#4F5552"/>
<path fill-rule="evenodd" clip-rule="evenodd" d="M87.0533 17.4294L92.3963 17.1913C92.658 16.5804 92.7135 16.0299 92.5628 15.5395C92.412 15.0492 92.0798 14.6276 91.5653 14.2749C91.0598 13.9221 90.396 13.6512 89.574 13.4619C88.7618 13.2726 87.8138 13.178 86.7323 13.178C85.9673 13.178 85.2225 13.2253 84.4988 13.32C83.784 13.4145 83.1128 13.5522 82.485 13.7329C81.8663 13.9136 81.3075 14.1415 80.8095 14.4168C80.3213 14.6835 79.9208 14.9976 79.6065 15.3588C79.2938 15.7116 79.0913 16.1073 78.9975 16.5461C78.9098 16.959 78.936 17.3332 79.0755 17.6688C79.2173 17.9956 79.5135 18.2796 79.9635 18.5205C80.4135 18.7613 81.0548 18.9506 81.8873 19.0882C82.4385 19.1735 83.0918 19.2306 83.847 19.2595L78.3848 19.6173C78.1733 20.3228 78.1628 20.9292 78.354 21.4368C78.5543 21.9444 78.927 22.3617 79.473 22.6886C80.0213 23.0069 80.7188 23.2434 81.5648 23.3983C82.4115 23.5532 83.3715 23.6306 84.4448 23.6306C85.4123 23.6306 86.3288 23.5575 87.1958 23.4112C88.0695 23.2736 88.8518 23.0671 89.544 22.7918C90.246 22.5079 90.8168 22.1595 91.257 21.7466C91.707 21.325 91.9898 20.8432 92.1045 20.3013C92.211 19.8023 92.1878 19.3722 92.0363 19.0108C91.8863 18.6408 91.572 18.3398 91.0935 18.1075C90.6173 17.8666 89.9468 17.6902 89.082 17.5784C88.5068 17.504 87.8303 17.4543 87.0533 17.4294ZM86.9025 17.4249C86.5568 17.4154 86.1908 17.4107 85.806 17.4107H85.4768C85.239 17.4107 85.0485 17.3977 84.9038 17.3719C84.7688 17.3461 84.6728 17.3031 84.615 17.2429C84.5595 17.1741 84.5423 17.088 84.564 16.9848C84.5828 16.8988 84.6263 16.8171 84.6953 16.7396C84.7733 16.6622 84.8663 16.5977 84.9743 16.5461C85.0928 16.4859 85.2248 16.4428 85.371 16.417C85.5188 16.3826 85.6808 16.3654 85.857 16.3654C86.1383 16.3654 86.3805 16.4041 86.5845 16.4815C86.7983 16.5504 86.9408 16.6665 87.0113 16.83C87.0833 16.9824 87.0465 17.1807 86.9025 17.4249ZM84.0855 19.2676C83.9708 19.5148 83.946 19.7217 84.0128 19.8883C84.0908 20.0604 84.2393 20.1894 84.4583 20.2755C84.678 20.3615 84.9323 20.4045 85.2225 20.4045C85.3988 20.4045 85.5593 20.3916 85.7055 20.3658C85.8608 20.34 86.001 20.3013 86.1263 20.2497C86.2515 20.198 86.3535 20.1335 86.4315 20.0561C86.511 19.9701 86.562 19.8754 86.5838 19.7721C86.628 19.5657 86.5463 19.4323 86.3393 19.3722C86.1413 19.3119 85.8353 19.2818 85.422 19.2818H85.092C84.7395 19.2818 84.4043 19.2771 84.0855 19.2676Z" fill="#4F5552"/>
<path d="M99.435 13.5652H93.96L92.6625 19.669C92.5515 20.1938 92.5688 20.6712 92.7143 21.1014C92.8628 21.5229 93.1095 21.8928 93.4553 22.2112C93.8115 22.5209 94.239 22.7833 94.7393 22.9983C95.247 23.2134 95.8027 23.3726 96.405 23.4758C97.0162 23.579 97.6433 23.6306 98.2853 23.6306C99.0945 23.6306 99.8993 23.5489 100.699 23.3855C101.507 23.222 102.254 22.9768 102.94 22.6499C103.627 22.3144 104.203 21.9014 104.668 21.4111C105.143 20.9121 105.451 20.3314 105.592 19.669L106.889 13.5652H101.414L100.331 18.6624C100.278 18.9119 100.136 19.1012 99.9068 19.2302C99.6773 19.3592 99.4343 19.4238 99.1793 19.4238C99.0563 19.4238 98.937 19.4066 98.8208 19.3722C98.7143 19.3378 98.6183 19.2905 98.5343 19.2302C98.4615 19.1614 98.4037 19.0796 98.3625 18.9851C98.3295 18.8904 98.3273 18.7786 98.3543 18.6495L99.435 13.5652Z" fill="#4F5552"/>
<path fill-rule="evenodd" clip-rule="evenodd" d="M74.4958 13.5652C75.3135 13.5652 76.0027 13.677 76.5615 13.9007C77.1315 14.1158 77.574 14.4125 77.8897 14.7911C78.2152 15.161 78.4297 15.5825 78.531 16.0557C78.633 16.5289 78.63 17.0192 78.522 17.5268C78.4065 18.0688 78.1912 18.585 77.8762 19.0754C77.5717 19.5572 77.172 19.9873 76.6785 20.3658C76.1932 20.7443 75.6232 21.0455 74.9692 21.2691C74.3166 21.4842 73.5901 21.5918 72.7897 21.5918H69.9533L69.9374 21.6047H69.9242L69.9214 21.6176L69.5758 23.2435H64.0876L66.1448 13.5652H74.4958ZM71.7622 18.7915C72.0262 18.7915 72.2551 18.7484 72.4493 18.6624C72.6541 18.5678 72.8152 18.4517 72.9324 18.314C73.0514 18.1678 73.1265 18.0215 73.1575 17.8753C73.1905 17.7204 73.1767 17.5784 73.1161 17.4494C73.0575 17.3117 72.9493 17.1999 72.7917 17.1139C72.634 17.0279 72.4189 16.9849 72.1463 16.9849H70.9326C70.9237 16.9849 70.914 16.9892 70.9034 16.9978L70.9006 17.0107L70.5249 18.7786C70.5337 18.7786 70.5372 18.7829 70.5353 18.7915H71.7622Z" fill="#4F5552"/>
<path fill-rule="evenodd" clip-rule="evenodd" d="M8.8371 19.4496L8.84258 19.4238L10.0879 13.5652H4.61288L2.84993 21.8591C0.898237 23.0166 -0.10437 24.136 0.00860205 25.1734C0.577108 30.3942 29.186 31.5615 63.9082 27.7806C70.4871 27.0642 76.8135 26.2216 82.743 25.2908C79.6005 25.5719 76.2525 25.8563 72.8209 26.1479L72.8168 26.1482L72.8104 26.1488L72.8062 26.1491L72.8018 26.1494L72.7925 26.1503C69.7781 26.4063 66.6991 26.6678 63.6374 26.9375C30.4013 29.8653 3.11867 28.3838 2.69974 23.6286C2.58925 22.374 4.3596 21.017 7.63643 19.645C5.30154 20.6723 4.30513 22.0163 4.02542 23.2435H13.2023L14.0086 19.4496H8.8371ZM7.47299 19.6955C7.42004 19.7165 7.36741 19.7375 7.31513 19.7585C7.50645 19.6834 7.7013 19.6082 7.89938 19.533C7.93043 19.5202 7.9617 19.5074 7.99313 19.4948C7.90395 19.5284 7.81568 19.562 7.7283 19.5958C7.6824 19.6135 7.63673 19.6312 7.59128 19.649C7.55168 19.6645 7.51223 19.68 7.47299 19.6955Z" fill="#4F5552"/>
<path d="M23.8168 13.2039C23.5233 13.1866 23.2175 13.178 22.8993 13.178C22.0901 13.178 21.3341 13.2382 20.6313 13.3587C19.9391 13.4705 19.301 13.6383 18.7169 13.8619C18.1347 14.077 17.6084 14.3394 17.138 14.6491C16.6782 14.9502 16.2709 15.2943 15.9159 15.6815C15.5698 16.0686 15.2779 16.4901 15.0402 16.9461C14.8114 17.4021 14.643 17.8838 14.5352 18.3914C14.5299 18.416 14.5249 18.4405 14.5199 18.465C14.5154 18.4881 14.5109 18.5112 14.5066 18.5343C20.7683 18.4059 22.2715 16.8805 23.8168 13.2039Z" fill="#4F5552"/>
<path d="M14.5066 18.5343C14.4432 18.8727 14.4109 19.2081 14.4098 19.5399C14.4173 19.9185 14.4724 20.2798 14.5752 20.6239C14.6867 20.968 14.8459 21.2949 15.0527 21.6046C15.2702 21.9058 15.5415 22.181 15.8666 22.4305C16.2006 22.68 16.599 22.8951 17.0619 23.0758C17.5267 23.2478 18.0569 23.3812 18.6524 23.4757C19.0178 23.5384 19.4099 23.582 19.8286 23.6066C21.1019 19.9327 20.7573 18.4391 14.5066 18.5343Z" fill="#4F5552"/>
<path d="M19.8743 23.6092C20.132 23.6234 20.3998 23.6306 20.6775 23.6306C21.7241 23.6306 22.6634 23.5359 23.4952 23.3467C24.3339 23.166 25.0739 22.9122 25.7151 22.5853C26.3581 22.2498 26.9065 21.8627 27.3604 21.4239C27.816 20.9765 28.1814 20.4991 28.4564 19.9916C28.7332 19.4753 28.9301 18.9419 29.0471 18.3914C29.0555 18.3521 29.0634 18.3131 29.0708 18.2743C22.9101 18.4013 21.4121 19.9479 19.8743 23.6092Z" fill="#4F5552"/>
<path d="M29.071 18.2744C22.9292 18.3672 22.5994 16.8558 23.8631 13.2068C25.0414 13.2802 26.0182 13.4943 26.7938 13.8491C27.7717 14.2965 28.4457 14.9115 28.8158 15.6945C29.1716 16.447 29.2566 17.3072 29.071 18.2744Z" fill="#4F5552"/>
<path d="M123.471 23.2435C123.959 23.2435 124.355 22.8476 124.355 22.3591C124.355 21.8707 123.959 21.4747 123.471 21.4747C122.982 21.4747 122.587 21.8707 122.587 22.3591C122.587 22.8476 122.982 23.2435 123.471 23.2435Z" fill="#4F5552"/>
</g>
<defs>
<clipPath id="clip0_288_155106">
<rect width="126" height="30" fill="white"/>
</clipPath>
</defs>
</svg>
