<svg width="24" height="24" viewBox="0 0 24 24" fill="none" xmlns="http://www.w3.org/2000/svg">
<path fill-rule="evenodd" clip-rule="evenodd" d="M24 7.55212C24 11.723 20.6049 15.1042 16.4169 15.1042C15.6527 15.1042 13.9127 14.9286 13.0662 14.2261L12.0081 15.2799C11.3859 15.8995 11.554 16.0819 11.8307 16.3824C11.9462 16.5078 12.0806 16.6537 12.1844 16.8606C12.1844 16.8606 13.0662 18.09 12.1844 19.3194C11.6554 20.0219 10.174 21.0054 8.48105 19.3194L8.12835 19.6706C8.12835 19.6706 9.18645 20.9001 8.3047 22.1295C7.77564 22.832 6.36483 23.5345 5.13037 22.3051L3.89592 23.5345C3.04943 24.3775 2.01487 23.8858 1.60339 23.5345L0.545287 22.4807C-0.44228 21.4972 0.133801 20.4317 0.545287 20.0219L9.71555 10.8891C9.71555 10.8891 8.83379 9.48406 8.83379 7.55212C8.83379 3.3812 12.2289 0 16.4169 0C20.6049 0 24 3.3812 24 7.55212ZM16.4171 10.1867C17.8781 10.1867 19.0624 9.00721 19.0624 7.55224C19.0624 6.09726 17.8781 4.91777 16.4171 4.91777C14.9562 4.91777 13.7719 6.09726 13.7719 7.55224C13.7719 9.00721 14.9562 10.1867 16.4171 10.1867Z" fill="url(#paint0_linear_88_76475)"/>
<defs>
<linearGradient id="paint0_linear_88_76475" x1="12" y1="0" x2="12" y2="24" gradientUnits="userSpaceOnUse">
<stop stop-color="#7DD4A2"/>
<stop offset="1" stop-color="#004F22"/>
</linearGradient>
</defs>
</svg>
