<svg width="24" height="24" viewBox="0 0 24 24" fill="none" xmlns="http://www.w3.org/2000/svg">
<path fill-rule="evenodd" clip-rule="evenodd" d="M14.4 24H9.6C5.07452 24 2.81178 24 1.40589 22.5941C0 21.1882 0 18.9255 0 14.4V9.6C0 5.07452 0 2.81178 1.40589 1.40589C2.81178 0 5.08643 0 9.63575 0C10.363 0 10.9457 -5.11855e-07 11.436 0.0199934C11.4199 0.115911 11.4114 0.213753 11.4111 0.312679L11.4 3.71396C11.3999 5.03049 11.3998 6.19397 11.5259 7.13179C11.6626 8.14833 11.9764 9.16472 12.8059 9.99424C13.6354 10.8238 14.6518 11.1376 15.6683 11.2742C16.6062 11.4003 17.7696 11.4002 19.0862 11.4001L19.2 11.4001H23.9489C24 12.0412 24 12.8281 24 13.8755V14.4C24 18.9255 24 21.1882 22.5941 22.5941C21.1882 24 18.9255 24 14.4 24Z" fill="url(#paint0_linear_88_76489)"/>
<path d="M20.8221 6.73998L16.0715 2.4645C14.7181 1.24642 14.0414 0.637372 13.2111 0.31875L13.2 3.60013C13.2 6.42856 13.2 7.84277 14.0787 8.72145C14.9574 9.60013 16.3716 9.60013 19.2 9.60013H23.4961C23.061 8.75506 22.282 8.05397 20.8221 6.73998Z" fill="url(#paint1_linear_88_76489)"/>
<defs>
<linearGradient id="paint0_linear_88_76489" x1="12" y1="0" x2="12" y2="24" gradientUnits="userSpaceOnUse">
<stop stop-color="#7DD4A2"/>
<stop offset="1" stop-color="#004F22"/>
</linearGradient>
<linearGradient id="paint1_linear_88_76489" x1="12" y1="0" x2="12" y2="24" gradientUnits="userSpaceOnUse">
<stop stop-color="#7DD4A2"/>
<stop offset="1" stop-color="#004F22"/>
</linearGradient>
</defs>
</svg>
