<svg width="22" height="22" viewBox="0 0 22 22" fill="none" xmlns="http://www.w3.org/2000/svg">
<path d="M17.875 3.4375H4.125C3.76033 3.4375 3.41059 3.58237 3.15273 3.84023C2.89487 4.09809 2.75 4.44783 2.75 4.8125V9.625C2.75 14.1556 4.94313 16.9013 6.78305 18.407C8.76477 20.0277 10.7362 20.5786 10.8221 20.6009C10.9403 20.6331 11.0649 20.6331 11.183 20.6009C11.269 20.5786 13.2378 20.0277 15.2221 18.407C17.0569 16.9013 19.25 14.1556 19.25 9.625V4.8125C19.25 4.44783 19.1051 4.09809 18.8473 3.84023C18.5894 3.58237 18.2397 3.4375 17.875 3.4375ZM17.875 9.625C17.875 12.8107 16.7011 15.3966 14.3859 17.3095C13.3781 18.1394 12.232 18.7853 11 19.2173C9.78416 18.7928 8.65214 18.1584 7.65531 17.343C5.31266 15.4266 4.125 12.8305 4.125 9.625V4.8125H17.875V9.625Z" fill="white"/>
</svg>
