<svg width="256" height="256" viewBox="0 0 256 256" fill="none" xmlns="http://www.w3.org/2000/svg">
<rect width="256" height="256" fill="black"/>
<rect x="56.0321" y="106.12" width="43.761" height="43.761" rx="7.81446" fill="#05B651"/>
<g clip-path="url(#clip0_150_156056)">
<path fill-rule="evenodd" clip-rule="evenodd" d="M74.0124 114.88C72.4951 114.88 71.04 115.453 69.9672 116.475L64.7903 121.402V123.657C64.7903 125.251 65.5094 126.685 66.6556 127.68C65.5094 128.676 64.7903 130.11 64.7903 131.703V133.959L69.9672 138.886C71.04 139.907 72.4951 140.481 74.0124 140.481C75.6865 140.481 77.1927 139.796 78.2389 138.705C79.285 139.796 80.7912 140.481 82.4654 140.481C83.9826 140.481 85.4377 139.907 86.5106 138.886L91.6875 133.959V131.703C91.6875 130.11 90.9684 128.676 89.8221 127.68C90.9684 126.685 91.6875 125.251 91.6875 123.657V121.402L86.5106 116.475C85.4377 115.453 83.9826 114.88 82.4654 114.88C80.7912 114.88 79.285 115.564 78.2389 116.655C77.1927 115.564 75.6865 114.88 74.0124 114.88ZM82.1113 127.68C82.0468 127.624 81.9835 127.567 81.9215 127.508L78.2389 124.003L74.5562 127.508C74.4942 127.567 74.431 127.624 74.3665 127.68C74.431 127.736 74.4942 127.794 74.5562 127.853L78.2389 131.358L81.9215 127.853C81.9835 127.794 82.0468 127.736 82.1113 127.68ZM79.7331 133.959V135.036C79.7331 136.472 80.9564 137.636 82.4654 137.636C83.19 137.636 83.8849 137.362 84.3973 136.875L88.6989 132.78V131.703C88.6989 130.267 87.4756 129.103 85.9667 129.103C85.2421 129.103 84.5471 129.377 84.0347 129.864L79.7331 133.959ZM76.7446 133.959L72.443 129.864C71.9306 129.377 71.2357 129.103 70.5111 129.103C69.0021 129.103 67.7789 130.267 67.7789 131.703V132.78L72.0804 136.875C72.5928 137.362 73.2878 137.636 74.0124 137.636C75.5213 137.636 76.7446 136.472 76.7446 135.036V133.959ZM76.7446 120.325V121.402L72.443 125.496C71.9306 125.984 71.2357 126.258 70.5111 126.258C69.0021 126.258 67.7789 125.094 67.7789 123.657V122.58L72.0804 118.486C72.5928 117.998 73.2878 117.724 74.0124 117.724C75.5213 117.724 76.7446 118.889 76.7446 120.325ZM84.0347 125.496L79.7331 121.402V120.325C79.7331 118.889 80.9564 117.724 82.4654 117.724C83.19 117.724 83.8849 117.998 84.3973 118.486L88.6989 122.58V123.657C88.6989 125.094 87.4756 126.258 85.9667 126.258C85.2421 126.258 84.5471 125.984 84.0347 125.496Z" fill="white"/>
</g>
<path d="M114.603 120.246V137.5H112.102V120.246H114.603ZM120.104 120.246V122.396H106.626V120.246H120.104ZM121.932 125.297L122.233 127.648L122.458 127.998V137.5H120.057V125.297H121.932ZM127.909 124.997L127.659 127.247H126.884C126.2 127.247 125.5 127.381 124.783 127.648C124.083 127.914 123.224 128.298 122.208 128.798L122.032 127.322C122.916 126.589 123.808 126.022 124.708 125.622C125.625 125.205 126.509 124.997 127.359 124.997H127.909ZM134.824 124.997C136.708 124.997 138.066 125.339 138.9 126.022C139.75 126.689 140.175 127.681 140.175 128.998C140.192 130.098 139.95 130.948 139.45 131.549C138.967 132.149 138.175 132.449 137.075 132.449H130.023V130.723H136.449C136.999 130.723 137.358 130.548 137.525 130.198C137.691 129.848 137.775 129.448 137.775 128.998C137.758 128.248 137.533 127.714 137.1 127.397C136.683 127.081 135.958 126.922 134.924 126.922C134.074 126.922 133.407 127.047 132.923 127.297C132.44 127.548 132.098 127.981 131.898 128.598C131.715 129.215 131.623 130.081 131.623 131.198C131.623 132.449 131.74 133.407 131.973 134.074C132.223 134.724 132.615 135.174 133.149 135.424C133.699 135.675 134.424 135.8 135.324 135.8C135.958 135.8 136.666 135.775 137.45 135.725C138.25 135.658 138.975 135.583 139.625 135.499L139.875 137.075C139.475 137.242 138.992 137.383 138.425 137.5C137.858 137.6 137.275 137.675 136.674 137.725C136.074 137.775 135.524 137.8 135.024 137.8C133.59 137.8 132.44 137.583 131.573 137.15C130.706 136.716 130.073 136.033 129.673 135.099C129.273 134.149 129.073 132.907 129.073 131.373C129.073 129.773 129.273 128.506 129.673 127.573C130.073 126.639 130.698 125.98 131.548 125.597C132.398 125.197 133.49 124.997 134.824 124.997ZM147.927 124.997C149.244 124.997 150.286 125.13 151.053 125.397C151.836 125.647 152.395 126.064 152.728 126.647C153.062 127.214 153.228 127.956 153.228 128.873C153.228 129.756 153.062 130.49 152.728 131.073C152.395 131.64 151.836 132.065 151.053 132.349C150.269 132.615 149.219 132.749 147.902 132.749C146.568 132.749 145.51 132.615 144.726 132.349C143.959 132.065 143.409 131.64 143.076 131.073C142.742 130.507 142.576 129.781 142.576 128.898C142.576 127.964 142.742 127.214 143.076 126.647C143.409 126.064 143.968 125.647 144.751 125.397C145.535 125.13 146.593 124.997 147.927 124.997ZM147.902 126.722C146.735 126.722 145.927 126.889 145.476 127.222C145.026 127.539 144.801 128.089 144.801 128.873C144.801 129.64 145.026 130.19 145.476 130.523C145.927 130.857 146.735 131.023 147.902 131.023C149.069 131.023 149.869 130.857 150.303 130.523C150.753 130.19 150.978 129.64 150.978 128.873C150.978 128.089 150.753 127.539 150.303 127.222C149.869 126.889 149.069 126.722 147.902 126.722ZM154.654 125.297L154.529 126.547L151.378 126.822L150.503 125.297H154.654ZM144.426 131.974L145.751 132.149C145.485 132.382 145.301 132.674 145.201 133.024C145.101 133.374 145.126 133.691 145.276 133.974C145.426 134.258 145.76 134.441 146.277 134.524L150.828 135.224C151.995 135.374 152.812 135.733 153.278 136.3C153.745 136.85 153.979 137.642 153.979 138.675C153.979 139.659 153.787 140.426 153.403 140.976C153.037 141.526 152.42 141.918 151.553 142.151C150.686 142.385 149.519 142.501 148.052 142.501C146.902 142.501 145.943 142.435 145.176 142.301C144.409 142.185 143.793 141.976 143.326 141.676C142.876 141.393 142.551 141.018 142.351 140.551C142.151 140.084 142.051 139.509 142.051 138.825C142.051 138.292 142.126 137.842 142.276 137.475C142.442 137.108 142.709 136.783 143.076 136.5C143.443 136.216 143.918 135.941 144.501 135.675L146.077 134.899L147.127 135.274L145.927 136.15C145.576 136.4 145.285 136.65 145.051 136.9C144.835 137.133 144.668 137.375 144.551 137.625C144.434 137.892 144.376 138.209 144.376 138.575C144.376 139.109 144.476 139.517 144.676 139.801C144.893 140.084 145.268 140.276 145.802 140.376C146.335 140.476 147.077 140.526 148.027 140.526C148.977 140.526 149.711 140.467 150.228 140.351C150.744 140.251 151.103 140.059 151.303 139.776C151.52 139.509 151.628 139.117 151.628 138.6C151.628 138.2 151.57 137.892 151.453 137.675C151.353 137.475 151.153 137.325 150.853 137.225C150.553 137.108 150.119 137.008 149.552 136.925L145.276 136.375C144.726 136.308 144.293 136.141 143.976 135.875C143.659 135.591 143.434 135.266 143.301 134.899C143.184 134.516 143.151 134.141 143.201 133.774C143.268 133.391 143.401 133.032 143.601 132.699C143.818 132.365 144.093 132.124 144.426 131.974ZM161.946 124.997C163.38 124.997 164.522 125.205 165.372 125.622C166.239 126.039 166.856 126.722 167.222 127.673C167.606 128.606 167.797 129.848 167.797 131.398C167.797 132.966 167.606 134.224 167.222 135.174C166.856 136.108 166.239 136.783 165.372 137.2C164.522 137.617 163.38 137.825 161.946 137.825C160.529 137.825 159.387 137.617 158.52 137.2C157.67 136.783 157.053 136.108 156.67 135.174C156.286 134.224 156.095 132.966 156.095 131.398C156.095 129.848 156.286 128.606 156.67 127.673C157.053 126.722 157.67 126.039 158.52 125.622C159.387 125.205 160.529 124.997 161.946 124.997ZM161.946 126.947C161.112 126.947 160.454 127.081 159.97 127.347C159.487 127.614 159.145 128.073 158.945 128.723C158.745 129.356 158.645 130.248 158.645 131.398C158.645 132.549 158.745 133.449 158.945 134.099C159.145 134.749 159.487 135.208 159.97 135.474C160.454 135.725 161.112 135.85 161.946 135.85C162.78 135.85 163.438 135.725 163.921 135.474C164.422 135.208 164.772 134.749 164.972 134.099C165.172 133.449 165.272 132.549 165.272 131.398C165.272 130.248 165.172 129.356 164.972 128.723C164.772 128.073 164.422 127.614 163.921 127.347C163.438 127.081 162.78 126.947 161.946 126.947ZM172.105 134.399C172.439 134.399 172.672 134.466 172.805 134.599C172.939 134.716 173.005 134.941 173.005 135.274V136.6C173.005 136.933 172.939 137.167 172.805 137.3C172.672 137.433 172.439 137.5 172.105 137.5H171.38C171.047 137.5 170.813 137.433 170.68 137.3C170.546 137.167 170.48 136.933 170.48 136.6V135.274C170.48 134.941 170.546 134.716 170.68 134.599C170.813 134.466 171.047 134.399 171.38 134.399H172.105ZM181.593 124.997C181.977 124.997 182.393 125.014 182.843 125.047C183.31 125.08 183.785 125.139 184.269 125.222C184.769 125.305 185.227 125.43 185.644 125.597L185.344 127.147C184.761 127.097 184.16 127.064 183.544 127.047C182.943 127.014 182.427 126.997 181.993 126.997C181.06 126.997 180.318 127.131 179.768 127.397C179.234 127.648 178.851 128.089 178.617 128.723C178.384 129.356 178.267 130.24 178.267 131.373C178.267 132.507 178.384 133.399 178.617 134.049C178.851 134.699 179.234 135.149 179.768 135.399C180.318 135.65 181.06 135.775 181.993 135.775C182.243 135.775 182.568 135.766 182.968 135.75C183.369 135.733 183.802 135.708 184.269 135.675C184.736 135.641 185.186 135.591 185.619 135.525L185.844 137.125C185.227 137.358 184.544 137.525 183.794 137.625C183.043 137.742 182.302 137.8 181.568 137.8C180.134 137.8 178.984 137.592 178.117 137.175C177.267 136.758 176.65 136.083 176.267 135.149C175.883 134.216 175.692 132.957 175.692 131.373C175.692 129.806 175.883 128.556 176.267 127.623C176.667 126.689 177.292 126.022 178.142 125.622C179.009 125.205 180.159 124.997 181.593 124.997ZM193.455 124.997C194.889 124.997 196.03 125.205 196.881 125.622C197.748 126.039 198.364 126.722 198.731 127.673C199.115 128.606 199.306 129.848 199.306 131.398C199.306 132.966 199.115 134.224 198.731 135.174C198.364 136.108 197.748 136.783 196.881 137.2C196.03 137.617 194.889 137.825 193.455 137.825C192.038 137.825 190.896 137.617 190.029 137.2C189.179 136.783 188.562 136.108 188.179 135.174C187.795 134.224 187.603 132.966 187.603 131.398C187.603 129.848 187.795 128.606 188.179 127.673C188.562 126.722 189.179 126.039 190.029 125.622C190.896 125.205 192.038 124.997 193.455 124.997ZM193.455 126.947C192.621 126.947 191.963 127.081 191.479 127.347C190.996 127.614 190.654 128.073 190.454 128.723C190.254 129.356 190.154 130.248 190.154 131.398C190.154 132.549 190.254 133.449 190.454 134.099C190.654 134.749 190.996 135.208 191.479 135.474C191.963 135.725 192.621 135.85 193.455 135.85C194.288 135.85 194.947 135.725 195.43 135.474C195.93 135.208 196.281 134.749 196.481 134.099C196.681 133.449 196.781 132.549 196.781 131.398C196.781 130.248 196.681 129.356 196.481 128.723C196.281 128.073 195.93 127.614 195.43 127.347C194.947 127.081 194.288 126.947 193.455 126.947Z" fill="white"/>
<defs>
<clipPath id="clip0_150_156056">
<rect width="26.2451" height="26.9013" fill="white" transform="translate(64.79 114.549)"/>
</clipPath>
</defs>
</svg>
