<svg width="30" height="30" viewBox="0 0 30 30" fill="none" xmlns="http://www.w3.org/2000/svg">
<path d="M11.5912 6.5625V3.75M11.5912 6.5625H10.2275M11.5912 6.5625H17.045M10.2275 6.5625H7.5M10.2275 6.5625V15M17.045 6.5625V3.75M17.045 6.5625C19.305 6.5625 21.1363 8.45125 21.1363 10.7812C21.1363 13.1112 19.305 15 17.045 15H10.2275M11.5912 26.25V23.4375M11.5912 23.4375H10.2275M11.5912 23.4375H17.045M10.2275 23.4375H7.5M10.2275 23.4375V15M17.045 23.4375V26.25M17.045 23.4375H18.4088C20.6688 23.4375 22.5 21.5487 22.5 19.2188C22.5 16.8888 20.6688 15 18.4088 15H17.0463" stroke="#C7DDD0" stroke-width="1.25" stroke-linecap="round" stroke-linejoin="round"/>
</svg>
