<svg width="30" height="30" viewBox="0 0 30 30" fill="none" xmlns="http://www.w3.org/2000/svg">
<path d="M26.75 19.8999L27.1875 18.5749L26.375 17.0437L25.675 16.8749L24.0375 14.6062C24.0375 12.8999 23.0375 12.5062 21.7438 12.5437V15.6249L24.1937 17.5437L23.7 18.0999L23.8625 19.9312L25.0688 20.4374M24.2625 17.5312L25.7437 16.8499M17.0375 23.4999C17.125 24.4249 17.3 25.3749 17.4937 25.3749H21.7625C23.1562 25.3749 23.175 19.8249 21.8625 19.8249H21.1313M3.25 19.8999L2.8125 18.5749L3.625 17.0437L4.325 16.8749L5.9625 14.6062C5.9625 12.8999 6.9625 12.5062 8.25625 12.5437V15.6249L5.80625 17.5312M5.80625 17.5312L6.3 18.0874L6.1375 19.9187L4.93125 20.4249M5.80625 17.5312L4.325 16.8499M13.0375 23.4999C12.95 24.4249 12.775 25.3749 12.575 25.3749H8.30625C6.91875 25.3749 6.89375 19.8249 8.20625 19.8249H8.94375M15 14.3124C15.358 14.3128 15.7043 14.4401 15.9773 14.6719C16.2502 14.9036 16.4321 15.2246 16.4906 15.5778C16.5491 15.931 16.4804 16.2935 16.2967 16.6009C16.113 16.9082 15.8263 17.1404 15.4875 17.2562L16.15 20.4562L15 20.7749L13.8375 20.4562L14.5 17.2562C14.1602 17.1401 13.8727 16.9068 13.6891 16.5982C13.5055 16.2896 13.4377 15.9257 13.4978 15.5716C13.5579 15.2175 13.7421 14.8964 14.0173 14.6657C14.2925 14.435 14.6409 14.3098 15 14.3124ZM18.7063 9.90616H16.8313V9.43116C16.8677 9.2088 16.982 9.00662 17.1537 8.86074C17.3254 8.71486 17.5434 8.63477 17.7688 8.63477C17.9941 8.63477 18.2121 8.71486 18.3838 8.86074C18.5555 9.00662 18.6698 9.2088 18.7063 9.43116V9.90616ZM13.2 9.90616H11.325V9.43116C11.3614 9.2088 11.4757 9.00662 11.6474 8.86074C11.8192 8.71486 12.0372 8.63477 12.2625 8.63477C12.4878 8.63477 12.7058 8.71486 12.8776 8.86074C13.0493 9.00662 13.1636 9.2088 13.2 9.43116V9.90616Z" stroke="#C7DDD0" stroke-width="0.85" stroke-linecap="round" stroke-linejoin="round"/>
<path d="M9.18125 12.2439H20.8188C21.0641 12.2439 21.2994 12.3413 21.4728 12.5148C21.6463 12.6882 21.7438 12.9235 21.7438 13.1689V17.0689C21.7438 18.8574 21.0332 20.5727 19.7686 21.8374C18.5039 23.1021 16.7886 23.8126 15 23.8126C13.2114 23.8126 11.4961 23.1021 10.2314 21.8374C8.96675 20.5727 8.25625 18.8574 8.25625 17.0689V13.1689C8.25625 12.9235 8.35371 12.6882 8.52718 12.5148C8.70065 12.3413 8.93592 12.2439 9.18125 12.2439ZM9.18125 12.2439H20.8125C20.9348 12.2439 21.0559 12.2198 21.1689 12.173C21.2819 12.1262 21.3845 12.0576 21.471 11.9711C21.5575 11.8846 21.6261 11.782 21.6729 11.669C21.7197 11.556 21.7438 11.4349 21.7438 11.3126C21.7438 9.52405 21.0332 7.80875 19.7686 6.54405C18.5039 5.27935 16.7886 4.56885 15 4.56885C14.1139 4.56803 13.2363 4.74186 12.4174 5.08039C11.5984 5.41893 10.8543 5.91554 10.2274 6.54184C9.60053 7.16813 9.10323 7.91184 8.76394 8.73043C8.42464 9.54903 8.25 10.4265 8.25 11.3126C8.25 11.5596 8.34811 11.7965 8.52276 11.9711C8.6974 12.1457 8.93427 12.2439 9.18125 12.2439Z" stroke="#C7DDD0" stroke-width="0.85" stroke-linecap="round" stroke-linejoin="round"/>
</svg>
