<svg width="30" height="30" viewBox="0 0 30 30" fill="none" xmlns="http://www.w3.org/2000/svg">
<path d="M6.25 5H23.75M15 5V12.5M15 25V17.5M10 11.25C8.09358 11.6215 6.60363 12.1949 5.76121 12.8813C4.91879 13.5677 4.771 14.3287 5.34075 15.0463C5.91049 15.764 7.16595 16.3981 8.91239 16.8504C10.6588 17.3027 12.7987 17.5478 15 17.5478C17.2013 17.5478 19.3412 17.3027 21.0876 16.8504C22.8341 16.3981 24.0895 15.764 24.6593 15.0463C25.229 14.3287 25.0812 13.5677 24.2388 12.8813C23.3964 12.1949 21.9064 11.6215 20 11.25" stroke="#C7DDD0" stroke-width="1.25" stroke-linecap="round" stroke-linejoin="round"/>
</svg>
