<svg width="81" height="28" viewBox="0 0 81 28" fill="none" xmlns="http://www.w3.org/2000/svg">
<rect width="28" height="28" rx="5" fill="#05B651"/>
<g clip-path="url(#clip0_0_2974)">
<path fill-rule="evenodd" clip-rule="evenodd" d="M11.4007 5.7114C10.4299 5.7114 9.49891 6.07846 8.81246 6.73184L5.50007 9.8846V11.3277C5.50007 12.3473 5.96019 13.2646 6.69358 13.9017C5.96019 14.5388 5.50007 15.4561 5.50007 16.4757V17.9188L8.81246 21.0716C9.49891 21.7249 10.4299 22.092 11.4007 22.092C12.4719 22.092 13.4356 21.6541 14.105 20.956C14.7744 21.6541 15.7381 22.092 16.8093 22.092C17.7801 22.092 18.7111 21.7249 19.3976 21.0716L22.7099 17.9188V16.4757C22.7099 15.4561 22.2498 14.5388 21.5164 13.9017C22.2498 13.2646 22.7099 12.3473 22.7099 11.3277V9.8846L19.3976 6.73184C18.7111 6.07846 17.7801 5.7114 16.8093 5.7114C15.7381 5.7114 14.7744 6.14935 14.105 6.84739C13.4356 6.14935 12.4719 5.7114 11.4007 5.7114ZM16.5827 13.9017C16.5415 13.8659 16.501 13.829 16.4613 13.7913L14.105 11.5485L11.7487 13.7913C11.709 13.829 11.6686 13.8659 11.6273 13.9017C11.6686 13.9375 11.709 13.9743 11.7487 14.0121L14.105 16.2549L16.4613 14.0121C16.501 13.9743 16.5415 13.9375 16.5827 13.9017ZM15.0611 17.9188V18.608C15.0611 19.527 15.8438 20.2719 16.8093 20.2719C17.2729 20.2719 17.7176 20.0966 18.0454 19.7846L20.7978 17.1649V16.4757C20.7978 15.5567 20.0151 14.8117 19.0496 14.8117C18.5859 14.8117 18.1413 14.987 17.8134 15.2991L15.0611 17.9188ZM13.1489 17.9188L10.3966 15.2991C10.0687 14.987 9.62409 14.8117 9.16045 14.8117C8.19496 14.8117 7.41227 15.5567 7.41227 16.4757V17.1649L10.1646 19.7846C10.4924 20.0966 10.9371 20.2719 11.4007 20.2719C12.3662 20.2719 13.1489 19.527 13.1489 18.608V17.9188ZM13.1489 9.19539V9.8846L10.3966 12.5043C10.0687 12.8164 9.62409 12.9917 9.16045 12.9917C8.19496 12.9917 7.41227 12.2467 7.41227 11.3277V10.6385L10.1646 8.01882C10.4924 7.70677 10.9371 7.53146 11.4007 7.53146C12.3662 7.53146 13.1489 8.27643 13.1489 9.19539ZM17.8134 12.5043L15.0611 9.8846V9.19539C15.0611 8.27643 15.8438 7.53146 16.8093 7.53146C17.2729 7.53146 17.7176 7.70677 18.0454 8.01882L20.7978 10.6385V11.3277C20.7978 12.2467 20.0151 12.9917 19.0496 12.9917C18.5859 12.9917 18.1413 12.8164 17.8134 12.5043Z" fill="white"/>
</g>
<path d="M41.3962 9.46L38.5162 14.788L41.6042 20.5H39.8922L36.9162 14.788L39.7002 9.46H41.3962ZM34.3402 9.46L37.1242 14.788L34.1482 20.5H32.4362L35.5082 14.788L32.6442 9.46H34.3402ZM37.9242 14.196V15.364H36.0842V14.196H37.9242ZM46.1077 12.5C47.313 12.5 48.1823 12.7187 48.7157 13.156C49.2597 13.5827 49.5317 14.2173 49.5317 15.06C49.5423 15.764 49.3877 16.308 49.0677 16.692C48.7583 17.076 48.2517 17.268 47.5477 17.268H43.0357V16.164H47.1477C47.4997 16.164 47.729 16.052 47.8357 15.828C47.9423 15.604 47.9957 15.348 47.9957 15.06C47.985 14.58 47.841 14.2387 47.5637 14.036C47.297 13.8333 46.833 13.732 46.1717 13.732C45.6277 13.732 45.201 13.812 44.8917 13.972C44.5823 14.132 44.3637 14.4093 44.2357 14.804C44.1183 15.1987 44.0597 15.7533 44.0597 16.468C44.0597 17.268 44.1343 17.8813 44.2837 18.308C44.4437 18.724 44.6943 19.012 45.0357 19.172C45.3877 19.332 45.8517 19.412 46.4277 19.412C46.833 19.412 47.2863 19.396 47.7877 19.364C48.2997 19.3213 48.7637 19.2733 49.1797 19.22L49.3397 20.228C49.0837 20.3347 48.7743 20.4253 48.4117 20.5C48.049 20.564 47.6757 20.612 47.2917 20.644C46.9077 20.676 46.5557 20.692 46.2357 20.692C45.3183 20.692 44.5823 20.5533 44.0277 20.276C43.473 19.9987 43.0677 19.5613 42.8117 18.964C42.5557 18.356 42.4277 17.5613 42.4277 16.58C42.4277 15.556 42.5557 14.7453 42.8117 14.148C43.0677 13.5507 43.4677 13.1293 44.0117 12.884C44.5557 12.628 45.2543 12.5 46.1077 12.5ZM56.2035 12.5C57.6222 12.5 58.3315 13.2147 58.3315 14.644V20.5H56.7795V15.092C56.7795 14.6013 56.6995 14.2653 56.5395 14.084C56.3795 13.892 56.1075 13.796 55.7235 13.796C55.2649 13.796 54.8062 13.908 54.3475 14.132C53.8889 14.3453 53.3395 14.644 52.6995 15.028L52.6355 13.988C53.2329 13.508 53.8302 13.14 54.4275 12.884C55.0249 12.628 55.6169 12.5 56.2035 12.5ZM52.6035 12.692L52.7475 14.196L52.8595 14.42V20.5H51.3235V12.692H52.6035ZM62.6829 10.404V18.276C62.6829 18.6387 62.7576 18.9 62.9069 19.06C63.0669 19.2093 63.3336 19.284 63.7069 19.284H64.8589L65.0349 20.42C64.8536 20.4733 64.6456 20.516 64.4109 20.548C64.1869 20.58 63.9576 20.6013 63.7229 20.612C63.4989 20.6333 63.3176 20.644 63.1789 20.644C62.5176 20.644 62.0109 20.4627 61.6589 20.1C61.3069 19.7373 61.1309 19.2147 61.1309 18.532V10.404H62.6829ZM65.1149 12.692V13.844H59.7229V12.772L61.2589 12.692H65.1149ZM67.7348 12.692L67.9268 14.196L68.0708 14.42V20.5H66.5348V12.692H67.7348ZM71.5588 12.5L71.3988 13.94H70.9028C70.4655 13.94 70.0175 14.0253 69.5588 14.196C69.1108 14.3667 68.5615 14.612 67.9108 14.932L67.7988 13.988C68.3641 13.5187 68.9348 13.156 69.5108 12.9C70.0975 12.6333 70.6628 12.5 71.2068 12.5H71.5588ZM76.0633 12.5C76.9806 12.5 77.7113 12.6333 78.2553 12.9C78.81 13.1667 79.2046 13.604 79.4393 14.212C79.6846 14.8093 79.8073 15.604 79.8073 16.596C79.8073 17.5987 79.6846 18.404 79.4393 19.012C79.2046 19.6093 78.81 20.0413 78.2553 20.308C77.7113 20.5747 76.9806 20.708 76.0633 20.708C75.1566 20.708 74.426 20.5747 73.8713 20.308C73.3273 20.0413 72.9326 19.6093 72.6873 19.012C72.442 18.404 72.3193 17.5987 72.3193 16.596C72.3193 15.604 72.442 14.8093 72.6873 14.212C72.9326 13.604 73.3273 13.1667 73.8713 12.9C74.426 12.6333 75.1566 12.5 76.0633 12.5ZM76.0633 13.748C75.53 13.748 75.1086 13.8333 74.7993 14.004C74.49 14.1747 74.2713 14.468 74.1433 14.884C74.0153 15.2893 73.9513 15.86 73.9513 16.596C73.9513 17.332 74.0153 17.908 74.1433 18.324C74.2713 18.74 74.49 19.0333 74.7993 19.204C75.1086 19.364 75.53 19.444 76.0633 19.444C76.5966 19.444 77.018 19.364 77.3273 19.204C77.6473 19.0333 77.8713 18.74 77.9993 18.324C78.1273 17.908 78.1913 17.332 78.1913 16.596C78.1913 15.86 78.1273 15.2893 77.9993 14.884C77.8713 14.468 77.6473 14.1747 77.3273 14.004C77.018 13.8333 76.5966 13.748 76.0633 13.748Z" fill="white"/>
<defs>
<clipPath id="clip0_0_2974">
<rect width="17" height="17" fill="white" transform="translate(5.5 5.5)"/>
</clipPath>
</defs>
</svg>
