<svg width="16" height="16" viewBox="0 0 16 16" fill="none" xmlns="http://www.w3.org/2000/svg">
<path d="M13.1885 5.16248V5.22107C13.1885 5.84267 12.9415 6.43881 12.502 6.87835C12.0625 7.31789 11.4663 7.56482 10.8447 7.56482H8.50098V12.2523H8.96973C9.15967 12.2524 9.34516 12.1948 9.50163 12.0871C9.65811 11.9795 9.77819 11.8268 9.84597 11.6494C9.91376 11.472 9.92605 11.2781 9.88122 11.0935C9.83638 10.909 9.73655 10.7424 9.59492 10.6158C9.50697 10.5318 9.45513 10.4168 9.45035 10.2953C9.44558 10.1737 9.48824 10.0551 9.56933 9.9644C9.65042 9.87372 9.76359 9.81812 9.88491 9.80935C10.0062 9.80057 10.1262 9.8393 10.2195 9.91736C10.5025 10.1705 10.702 10.5036 10.7915 10.8726C10.8811 11.2416 10.8565 11.6291 10.721 11.9838C10.5856 12.3385 10.3456 12.6437 10.0329 12.8591C9.72016 13.0744 9.34943 13.1898 8.96973 13.1898H8.50098V14.1273C8.50098 14.2516 8.45159 14.3709 8.36368 14.4588C8.27578 14.5467 8.15655 14.5961 8.03223 14.5961C7.90791 14.5961 7.78868 14.5467 7.70077 14.4588C7.61286 14.3709 7.56348 14.2516 7.56348 14.1273V13.1898H6.15723C6.03291 13.1898 5.91368 13.1404 5.82577 13.0525C5.73786 12.9646 5.68848 12.8454 5.68848 12.7211C5.68848 12.5967 5.73786 12.4775 5.82577 12.3896C5.91368 12.3017 6.03291 12.2523 6.15723 12.2523H7.56348V7.56482H6.15723C5.90859 7.56482 5.67013 7.66359 5.49431 7.83941C5.3185 8.01522 5.21973 8.25368 5.21973 8.50232C5.21973 8.75096 5.3185 8.98942 5.49431 9.16523C5.67013 9.34105 5.90859 9.43982 6.15723 9.43982C6.28155 9.43982 6.40077 9.48921 6.48868 9.57711C6.57659 9.66502 6.62598 9.78425 6.62598 9.90857C6.62598 10.0329 6.57659 10.1521 6.48868 10.24C6.40077 10.3279 6.28155 10.3773 6.15723 10.3773C5.65995 10.3773 5.18303 10.1798 4.8314 9.82814C4.47977 9.47651 4.28223 8.9996 4.28223 8.50232C4.28223 8.00504 4.47977 7.52812 4.8314 7.17649C5.18303 6.82486 5.65995 6.62732 6.15723 6.62732H7.56348V1.93982C7.56348 1.8155 7.61286 1.69627 7.70077 1.60836C7.78868 1.52046 7.90791 1.47107 8.03223 1.47107C8.15655 1.47107 8.27578 1.52046 8.36368 1.60836C8.45159 1.69627 8.50098 1.8155 8.50098 1.93982V6.62732H10.8447C11.2177 6.62732 11.5754 6.47916 11.8391 6.21544C12.1028 5.95172 12.251 5.59403 12.251 5.22107V5.16248C12.251 4.80505 12.109 4.46227 11.8563 4.20954C11.6035 3.9568 11.2607 3.81482 10.9033 3.81482H9.90723C9.78291 3.81482 9.66368 3.76543 9.57577 3.67753C9.48786 3.58962 9.43848 3.47039 9.43848 3.34607C9.43848 3.22175 9.48786 3.10252 9.57577 3.01461C9.66368 2.92671 9.78291 2.87732 9.90723 2.87732H10.9033C11.5094 2.87732 12.0906 3.11808 12.5192 3.54663C12.9477 3.97518 13.1885 4.55641 13.1885 5.16248ZM3.81348 6.15857H2.40723C2.28291 6.15857 2.16368 6.10918 2.07577 6.02128C1.98786 5.93337 1.93848 5.81414 1.93848 5.68982V5.22107C1.93848 4.59947 2.18541 4.00333 2.62495 3.56379C3.06448 3.12425 3.66063 2.87732 4.28223 2.87732H6.15723C6.28155 2.87732 6.40077 2.92671 6.48868 3.01461C6.57659 3.10252 6.62598 3.22175 6.62598 3.34607C6.62598 3.47039 6.57659 3.58962 6.48868 3.67753C6.40077 3.76543 6.28155 3.81482 6.15723 3.81482C6.15723 4.12261 6.0966 4.42738 5.97882 4.71173C5.86103 4.99609 5.6884 5.25446 5.47076 5.4721C5.25312 5.68974 4.99475 5.86238 4.71039 5.98016C4.42603 6.09795 4.12126 6.15857 3.81348 6.15857ZM5.21973 3.81482H4.28223C3.90927 3.81482 3.55158 3.96298 3.28786 4.2267C3.02413 4.49042 2.87598 4.84811 2.87598 5.22107H3.81348C4.18644 5.22107 4.54412 5.07291 4.80785 4.80919C5.07157 4.54547 5.21973 4.18778 5.21973 3.81482Z" fill="url(#paint0_linear_115_1108)"/>
<defs>
<linearGradient id="paint0_linear_115_1108" x1="7.56348" y1="1.47107" x2="7.56348" y2="14.5961" gradientUnits="userSpaceOnUse">
<stop stop-color="#7DD4A2"/>
<stop offset="1" stop-color="#004F22"/>
</linearGradient>
</defs>
</svg>
