<svg width="120" height="105" viewBox="0 0 120 105" fill="none" xmlns="http://www.w3.org/2000/svg">
<g clip-path="url(#clip0_100_40750)">
<path d="M59.776 12.4998L58.666 11.1665L30.666 53.8332H49.9994L58.6894 40.5898L59.776 38.2365V12.4998Z" fill="#FBBC04"/>
<path d="M58.666 11.1665H75.9993V53.8332H58.666V11.1665Z" fill="#1A73E8"/>
<path d="M40 27.1665C44.4183 27.1665 48 23.5848 48 19.1665C48 14.7482 44.4183 11.1665 40 11.1665C35.5817 11.1665 32 14.7482 32 19.1665C32 23.5848 35.5817 27.1665 40 27.1665Z" fill="#E33817"/>
<path d="M77.3333 41.8335L76 53.8335C69.3733 53.8335 64 48.4602 64 41.8335C64 35.2068 69.3733 29.8335 76 29.8335L77.3333 41.8335Z" fill="#0D652D"/>
<path d="M66.666 20.4998C66.666 15.3465 70.846 11.1665 75.9993 11.1665L77.666 20.4998L75.9993 29.8332C70.846 29.8332 66.666 25.6532 66.666 20.4998Z" fill="#174EA6"/>
<path d="M76 11.1665C81.1533 11.1665 85.3333 15.3465 85.3333 20.4998C85.3333 25.6532 81.1533 29.8332 76 29.8332" fill="#1A73E8"/>
<path d="M76 29.8335C82.6267 29.8335 88 35.2068 88 41.8335C88 48.4602 82.6267 53.8335 76 53.8335" fill="#34A853"/>
</g>
<path d="M11.4418 89.5497C11.3045 89.1188 11.1198 88.733 10.8878 88.392C10.6605 88.0464 10.3883 87.7528 10.071 87.5114C9.75379 87.2652 9.39157 87.0781 8.98438 86.9503C8.58191 86.8224 8.1392 86.7585 7.65625 86.7585C6.83712 86.7585 6.09848 86.9692 5.44034 87.3906C4.7822 87.812 4.26136 88.4299 3.87784 89.2443C3.49905 90.054 3.30966 91.0459 3.30966 92.2202C3.30966 93.3991 3.50142 94.3958 3.88494 95.2102C4.26847 96.0246 4.79403 96.6425 5.46165 97.0639C6.12926 97.4853 6.8892 97.696 7.74148 97.696C8.5322 97.696 9.22112 97.535 9.80824 97.2131C10.4001 96.8911 10.857 96.4366 11.179 95.8494C11.5057 95.2576 11.669 94.5616 11.669 93.7614L12.2372 93.8679H8.07528V92.0568H13.7926V93.7116C13.7926 94.9332 13.5322 95.9938 13.0114 96.8935C12.4953 97.7884 11.7803 98.4796 10.8665 98.9673C9.95739 99.455 8.91572 99.6989 7.74148 99.6989C6.42519 99.6989 5.26989 99.3958 4.27557 98.7898C3.28598 98.1837 2.5142 97.3243 1.96023 96.2116C1.40625 95.0942 1.12926 93.7685 1.12926 92.2344C1.12926 91.0743 1.29025 90.0327 1.61222 89.1094C1.93419 88.1861 2.38636 87.4025 2.96875 86.7585C3.55587 86.1098 4.24479 85.6151 5.03551 85.2741C5.83097 84.9285 6.69981 84.7557 7.64205 84.7557C8.42803 84.7557 9.15956 84.8717 9.83665 85.1037C10.5185 85.3357 11.1245 85.6648 11.6548 86.0909C12.1899 86.517 12.6326 87.0237 12.983 87.6108C13.3333 88.1932 13.5701 88.8395 13.6932 89.5497H11.4418ZM20.4032 99.7202C19.3805 99.7202 18.4879 99.4858 17.7256 99.017C16.9633 98.5483 16.3715 97.8925 15.9501 97.0497C15.5287 96.2069 15.318 95.2221 15.318 94.0952C15.318 92.9635 15.5287 91.974 15.9501 91.1264C16.3715 90.2789 16.9633 89.6207 17.7256 89.152C18.4879 88.6832 19.3805 88.4489 20.4032 88.4489C21.4259 88.4489 22.3184 88.6832 23.0808 89.152C23.8431 89.6207 24.4349 90.2789 24.8563 91.1264C25.2777 91.974 25.4884 92.9635 25.4884 94.0952C25.4884 95.2221 25.2777 96.2069 24.8563 97.0497C24.4349 97.8925 23.8431 98.5483 23.0808 99.017C22.3184 99.4858 21.4259 99.7202 20.4032 99.7202ZM20.4103 97.9375C21.0732 97.9375 21.6224 97.7623 22.058 97.4119C22.4936 97.0616 22.8156 96.5952 23.0239 96.0128C23.237 95.4304 23.3435 94.7888 23.3435 94.0881C23.3435 93.392 23.237 92.7528 23.0239 92.1705C22.8156 91.5833 22.4936 91.1122 22.058 90.7571C21.6224 90.402 21.0732 90.2244 20.4103 90.2244C19.7427 90.2244 19.1887 90.402 18.7484 90.7571C18.3128 91.1122 17.9884 91.5833 17.7754 92.1705C17.567 92.7528 17.4629 93.392 17.4629 94.0881C17.4629 94.7888 17.567 95.4304 17.7754 96.0128C17.9884 96.5952 18.3128 97.0616 18.7484 97.4119C19.1887 97.7623 19.7427 97.9375 20.4103 97.9375ZM31.854 99.7202C30.8312 99.7202 29.9387 99.4858 29.1764 99.017C28.4141 98.5483 27.8223 97.8925 27.4009 97.0497C26.9795 96.2069 26.7687 95.2221 26.7687 94.0952C26.7687 92.9635 26.9795 91.974 27.4009 91.1264C27.8223 90.2789 28.4141 89.6207 29.1764 89.152C29.9387 88.6832 30.8312 88.4489 31.854 88.4489C32.8767 88.4489 33.7692 88.6832 34.5315 89.152C35.2938 89.6207 35.8857 90.2789 36.3071 91.1264C36.7285 91.974 36.9392 92.9635 36.9392 94.0952C36.9392 95.2221 36.7285 96.2069 36.3071 97.0497C35.8857 97.8925 35.2938 98.5483 34.5315 99.017C33.7692 99.4858 32.8767 99.7202 31.854 99.7202ZM31.8611 97.9375C32.524 97.9375 33.0732 97.7623 33.5088 97.4119C33.9444 97.0616 34.2664 96.5952 34.4747 96.0128C34.6878 95.4304 34.7943 94.7888 34.7943 94.0881C34.7943 93.392 34.6878 92.7528 34.4747 92.1705C34.2664 91.5833 33.9444 91.1122 33.5088 90.7571C33.0732 90.402 32.524 90.2244 31.8611 90.2244C31.1935 90.2244 30.6395 90.402 30.1991 90.7571C29.7635 91.1122 29.4392 91.5833 29.2261 92.1705C29.0178 92.7528 28.9136 93.392 28.9136 94.0881C28.9136 94.7888 29.0178 95.4304 29.2261 96.0128C29.4392 96.5952 29.7635 97.0616 30.1991 97.4119C30.6395 97.7623 31.1935 97.9375 31.8611 97.9375ZM43.2835 103.818C42.417 103.818 41.6712 103.705 41.0462 103.477C40.426 103.25 39.9193 102.949 39.5264 102.575C39.1334 102.201 38.8398 101.792 38.6457 101.347L40.471 100.594C40.5988 100.802 40.7692 101.022 40.9823 101.254C41.2001 101.491 41.4937 101.692 41.863 101.858C42.2371 102.024 42.7176 102.107 43.3048 102.107C44.1097 102.107 44.7749 101.91 45.3005 101.517C45.8261 101.129 46.0889 100.509 46.0889 99.6562V97.5114H45.9539C45.8261 97.7434 45.6414 98.0014 45.3999 98.2855C45.1632 98.5696 44.8365 98.8158 44.4198 99.0241C44.0031 99.2325 43.461 99.3366 42.7934 99.3366C41.9317 99.3366 41.1551 99.1354 40.4639 98.733C39.7773 98.3258 39.2328 97.7268 38.8303 96.9361C38.4326 96.1406 38.2337 95.1629 38.2337 94.0028C38.2337 92.8428 38.4302 91.8485 38.8232 91.0199C39.221 90.1913 39.7655 89.5568 40.4567 89.1165C41.148 88.6714 41.9317 88.4489 42.8076 88.4489C43.4847 88.4489 44.0316 88.5625 44.4482 88.7898C44.8649 89.0123 45.1892 89.2727 45.4212 89.571C45.658 89.8693 45.8403 90.1321 45.9681 90.3594H46.1244V88.5909H48.2053V99.7415C48.2053 100.679 47.9875 101.448 47.5519 102.05C47.1163 102.651 46.5268 103.096 45.7835 103.385C45.0448 103.674 44.2115 103.818 43.2835 103.818ZM43.2621 97.5753C43.8729 97.5753 44.389 97.4332 44.8104 97.1491C45.2366 96.8603 45.5585 96.4484 45.7764 95.9134C45.9989 95.3736 46.1102 94.7273 46.1102 93.9744C46.1102 93.2405 46.0013 92.5942 45.7835 92.0355C45.5656 91.4768 45.246 91.0412 44.8246 90.7287C44.4032 90.4115 43.8824 90.2528 43.2621 90.2528C42.6229 90.2528 42.0903 90.4186 41.6641 90.75C41.238 91.0767 40.916 91.5218 40.6982 92.0852C40.4852 92.6487 40.3786 93.2784 40.3786 93.9744C40.3786 94.6894 40.4875 95.3168 40.7053 95.8565C40.9231 96.3963 41.2451 96.8177 41.6712 97.1207C42.1021 97.4238 42.6324 97.5753 43.2621 97.5753ZM52.5769 84.9545V99.5H50.4533V84.9545H52.5769ZM59.5355 99.7202C58.4607 99.7202 57.535 99.4905 56.7585 99.0312C55.9867 98.5672 55.3902 97.9162 54.9688 97.0781C54.5521 96.2353 54.3438 95.2481 54.3438 94.1165C54.3438 92.9991 54.5521 92.0142 54.9688 91.1619C55.3902 90.3097 55.9773 89.6444 56.7301 89.1662C57.4877 88.688 58.3731 88.4489 59.3864 88.4489C60.0019 88.4489 60.5985 88.5507 61.1761 88.7543C61.7538 88.9579 62.2723 89.2775 62.7315 89.7131C63.1908 90.1487 63.553 90.7145 63.8182 91.4105C64.0833 92.1018 64.2159 92.9422 64.2159 93.9318V94.6847H55.544V93.0938H62.1349C62.1349 92.535 62.0213 92.0402 61.794 91.6094C61.5668 91.1738 61.2472 90.8305 60.8352 90.5795C60.428 90.3286 59.9498 90.2031 59.4006 90.2031C58.804 90.2031 58.2831 90.3499 57.8381 90.6435C57.3977 90.9323 57.0568 91.3111 56.8153 91.7798C56.5786 92.2438 56.4602 92.7481 56.4602 93.2926V94.5355C56.4602 95.2647 56.5881 95.8849 56.8438 96.3963C57.1042 96.9077 57.4664 97.2983 57.9304 97.5682C58.3944 97.8333 58.9366 97.9659 59.5568 97.9659C59.9593 97.9659 60.3262 97.9091 60.6577 97.7955C60.9891 97.6771 61.2756 97.5019 61.517 97.2699C61.7585 97.0379 61.9432 96.7514 62.071 96.4105L64.081 96.7727C63.92 97.3646 63.6312 97.883 63.2145 98.3281C62.8026 98.7685 62.2841 99.1117 61.6591 99.358C61.0388 99.5994 60.331 99.7202 59.5355 99.7202ZM70.8355 99.5V84.9545H79.8554V86.8438H73.0301V91.2756H79.2091V93.1577H73.0301V99.5H70.8355ZM85.5782 99.7202C84.5555 99.7202 83.6629 99.4858 82.9006 99.017C82.1383 98.5483 81.5465 97.8925 81.1251 97.0497C80.7037 96.2069 80.493 95.2221 80.493 94.0952C80.493 92.9635 80.7037 91.974 81.1251 91.1264C81.5465 90.2789 82.1383 89.6207 82.9006 89.152C83.6629 88.6832 84.5555 88.4489 85.5782 88.4489C86.6009 88.4489 87.4934 88.6832 88.2558 89.152C89.0181 89.6207 89.6099 90.2789 90.0313 91.1264C90.4527 91.974 90.6634 92.9635 90.6634 94.0952C90.6634 95.2221 90.4527 96.2069 90.0313 97.0497C89.6099 97.8925 89.0181 98.5483 88.2558 99.017C87.4934 99.4858 86.6009 99.7202 85.5782 99.7202ZM85.5853 97.9375C86.2482 97.9375 86.7974 97.7623 87.233 97.4119C87.6686 97.0616 87.9906 96.5952 88.1989 96.0128C88.412 95.4304 88.5185 94.7888 88.5185 94.0881C88.5185 93.392 88.412 92.7528 88.1989 92.1705C87.9906 91.5833 87.6686 91.1122 87.233 90.7571C86.7974 90.402 86.2482 90.2244 85.5853 90.2244C84.9177 90.2244 84.3637 90.402 83.9234 90.7571C83.4878 91.1122 83.1634 91.5833 82.9504 92.1705C82.742 92.7528 82.6379 93.392 82.6379 94.0881C82.6379 94.7888 82.742 95.4304 82.9504 96.0128C83.1634 96.5952 83.4878 97.0616 83.9234 97.4119C84.3637 97.7623 84.9177 97.9375 85.5853 97.9375ZM94.5574 93.0227V99.5H92.4338V88.5909H94.4722V90.3665H94.6071C94.858 89.7888 95.251 89.3248 95.7861 88.9744C96.3259 88.6241 97.0053 88.4489 97.8244 88.4489C98.5678 88.4489 99.2188 88.6051 99.7776 88.9176C100.336 89.2254 100.77 89.6847 101.077 90.2955C101.385 90.9062 101.539 91.6615 101.539 92.5611V99.5H99.4153V92.8168C99.4153 92.026 99.2094 91.4081 98.7974 90.9631C98.3855 90.5133 97.8197 90.2884 97.1 90.2884C96.6076 90.2884 96.1696 90.3949 95.7861 90.608C95.4073 90.821 95.1066 91.1335 94.8841 91.5455C94.6663 91.9527 94.5574 92.4451 94.5574 93.0227ZM108.879 88.5909V90.2955H102.92V88.5909H108.879ZM104.518 85.9773H106.642V96.2969C106.642 96.7088 106.704 97.0189 106.827 97.2273C106.95 97.4309 107.108 97.5705 107.303 97.6463C107.501 97.7173 107.717 97.7528 107.949 97.7528C108.119 97.7528 108.268 97.741 108.396 97.7173C108.524 97.6937 108.624 97.6747 108.695 97.6605L109.078 99.4148C108.955 99.4621 108.78 99.5095 108.553 99.5568C108.325 99.6089 108.041 99.6373 107.7 99.642C107.142 99.6515 106.621 99.5521 106.138 99.3438C105.655 99.1354 105.264 98.8134 104.966 98.3778C104.668 97.9422 104.518 97.3954 104.518 96.7372V85.9773ZM118.627 91.2543L116.703 91.5952C116.622 91.349 116.494 91.1146 116.319 90.892C116.149 90.6695 115.917 90.4872 115.623 90.3452C115.329 90.2031 114.963 90.1321 114.522 90.1321C113.921 90.1321 113.419 90.267 113.016 90.5369C112.614 90.8021 112.413 91.1454 112.413 91.5668C112.413 91.9313 112.548 92.2249 112.818 92.4474C113.088 92.67 113.523 92.8523 114.124 92.9943L115.857 93.392C116.861 93.6241 117.609 93.9815 118.102 94.4645C118.594 94.9474 118.84 95.5748 118.84 96.3466C118.84 97 118.651 97.5824 118.272 98.0938C117.898 98.6004 117.375 98.9981 116.703 99.2869C116.035 99.5758 115.261 99.7202 114.38 99.7202C113.159 99.7202 112.162 99.4598 111.39 98.9389C110.618 98.4134 110.145 97.6676 109.97 96.7017L112.022 96.3892C112.15 96.9242 112.413 97.3291 112.811 97.6037C113.208 97.8736 113.727 98.0085 114.366 98.0085C115.062 98.0085 115.618 97.8641 116.035 97.5753C116.452 97.2817 116.66 96.9242 116.66 96.5028C116.66 96.1619 116.532 95.8755 116.276 95.6435C116.025 95.4115 115.64 95.2363 115.119 95.1179L113.272 94.7131C112.254 94.4811 111.501 94.1117 111.014 93.6051C110.531 93.0985 110.289 92.4569 110.289 91.6804C110.289 91.0365 110.469 90.473 110.829 89.9901C111.189 89.5071 111.686 89.1307 112.32 88.8608C112.955 88.5862 113.682 88.4489 114.501 88.4489C115.68 88.4489 116.608 88.7045 117.285 89.2159C117.962 89.7225 118.409 90.402 118.627 91.2543Z" fill="white"/>
<defs>
<clipPath id="clip0_100_40750">
<rect width="64" height="64" fill="white" transform="translate(28 0.5)"/>
</clipPath>
</defs>
</svg>
