<svg width="64" height="64" viewBox="0 0 64 64" fill="none" xmlns="http://www.w3.org/2000/svg">
<rect width="64" height="64" rx="12" fill="#05B651"/>
<g clip-path="url(#clip0_159_155412)">
<path fill-rule="evenodd" clip-rule="evenodd" d="M26.5368 12.4974C24.3097 12.4974 22.1738 13.3611 20.599 14.8984L13 22.3167V25.7123C13 28.1113 14.0556 30.2696 15.7381 31.7687C14.0556 33.2678 13 35.4261 13 37.8251V41.2207L20.599 48.639C22.1738 50.1764 24.3097 51.04 26.5368 51.04C28.9942 51.04 31.2051 50.0096 32.7407 48.3671C34.2764 50.0096 36.4872 51.04 38.9447 51.04C41.1718 51.04 43.3077 50.1764 44.8825 48.639L52.4815 41.2207V37.8251C52.4815 35.4261 51.426 33.2678 49.7434 31.7687C51.426 30.2696 52.4815 28.1113 52.4815 25.7123V22.3167L44.8825 14.8984C43.3077 13.3611 41.1718 12.4974 38.9447 12.4974C36.4872 12.4974 34.2764 13.5279 32.7407 15.1703C31.2051 13.5279 28.9942 12.4974 26.5368 12.4974ZM38.4249 31.7687C38.3302 31.6844 38.2374 31.5978 38.1464 31.5089L32.7407 26.2319L27.3351 31.5089C27.2441 31.5978 27.1513 31.6844 27.0566 31.7687C27.1513 31.853 27.2441 31.9396 27.3351 32.0285L32.7407 37.3055L38.1464 32.0285C38.2374 31.9396 38.3302 31.853 38.4249 31.7687ZM34.9341 41.2207V42.8424C34.9341 45.0046 36.7298 46.7575 38.9447 46.7575C40.0083 46.7575 41.0284 46.345 41.7805 45.6108L48.0947 39.4468V37.8251C48.0947 35.6629 46.2991 33.9099 44.0842 33.9099C43.0205 33.9099 42.0004 34.3224 41.2483 35.0567L34.9341 41.2207ZM30.5473 41.2207L24.2332 35.0567C23.4811 34.3224 22.461 33.9099 21.3973 33.9099C19.1824 33.9099 17.3868 35.6629 17.3868 37.8251V39.4468L23.701 45.6108C24.4531 46.345 25.4732 46.7575 26.5368 46.7575C28.7517 46.7575 30.5473 45.0046 30.5473 42.8424V41.2207ZM30.5473 20.6951V22.3167L24.2332 28.4807C23.4811 29.215 22.461 29.6275 21.3973 29.6275C19.1824 29.6275 17.3868 27.8745 17.3868 25.7123V24.0906L23.701 17.9266C24.4531 17.1924 25.4732 16.7799 26.5368 16.7799C28.7517 16.7799 30.5473 18.5328 30.5473 20.6951ZM41.2483 28.4807L34.9341 22.3167V20.6951C34.9341 18.5328 36.7298 16.7799 38.9447 16.7799C40.0083 16.7799 41.0284 17.1924 41.7805 17.9266L48.0947 24.0906V25.7123C48.0947 27.8745 46.2991 29.6275 44.0842 29.6275C43.0205 29.6275 42.0004 29.215 41.2483 28.4807Z" fill="white"/>
</g>
<defs>
<clipPath id="clip0_159_155412">
<rect width="39" height="40" fill="white" transform="translate(13 12)"/>
</clipPath>
</defs>
</svg>
