<svg width="18" height="18" viewBox="0 0 18 18" fill="none" xmlns="http://www.w3.org/2000/svg">
<path d="M13.1524 16.0043C12.3472 16.8081 11.4681 16.6811 10.6218 16.3004C9.72623 15.9112 8.90461 15.8943 7.95975 16.3004C6.77662 16.825 6.15219 16.6727 5.4456 16.0043C1.43611 11.7487 2.02767 5.26797 6.57944 5.03108C7.68862 5.0903 8.46094 5.65715 9.11002 5.70791C10.0795 5.50486 11.008 4.92109 12.0432 4.99723C13.2838 5.09876 14.2205 5.60639 14.8367 6.52012C12.2732 8.10223 12.8812 11.5795 15.2311 12.5524C14.7627 13.8215 14.1548 15.0821 13.1442 16.0128L13.1524 16.0043ZM9.02786 4.98031C8.90461 3.09363 10.3917 1.5369 12.1007 1.38461C12.339 3.56741 10.1781 5.19182 9.02786 4.98031Z" fill="black"/>
</svg>
