<svg width="25" height="24" viewBox="0 0 25 24" fill="none" xmlns="http://www.w3.org/2000/svg">
<g clip-path="url(#clip0_88_76376)">
<path d="M21.7308 2H3.26923C2.53479 2 1.83042 2.30027 1.31109 2.83475C0.791757 3.36922 0.5 4.09413 0.5 4.85V18.15C0.5 18.9059 0.791757 19.6308 1.31109 20.1653C1.83042 20.6997 2.53479 21 3.26923 21H21.7308C22.4652 21 23.1696 20.6997 23.6889 20.1653C24.2082 19.6308 24.5 18.9059 24.5 18.15V4.85C24.5 4.09413 24.2082 3.36922 23.6889 2.83475C23.1696 2.30027 22.4652 2 21.7308 2ZM15.2692 10.55C15.2692 11.3059 14.9775 12.0308 14.4581 12.5653C13.9388 13.0997 13.2344 13.4 12.5 13.4C11.7656 13.4 11.0612 13.0997 10.5419 12.5653C10.0225 12.0308 9.73077 11.3059 9.73077 10.55C9.73077 10.298 9.63352 10.0564 9.46041 9.87825C9.2873 9.70009 9.05251 9.6 8.80769 9.6H2.34615V7.7H22.6538V9.6H16.1923C15.9475 9.6 15.7127 9.70009 15.5396 9.87825C15.3665 10.0564 15.2692 10.298 15.2692 10.55ZM3.26923 3.9H21.7308C21.9756 3.9 22.2104 4.00009 22.3835 4.17825C22.5566 4.35641 22.6538 4.59804 22.6538 4.85V5.8H2.34615V4.85C2.34615 4.59804 2.44341 4.35641 2.61652 4.17825C2.78963 4.00009 3.02442 3.9 3.26923 3.9Z" fill="url(#paint0_linear_88_76376)"/>
</g>
<defs>
<linearGradient id="paint0_linear_88_76376" x1="12.5" y1="2" x2="12.5" y2="21" gradientUnits="userSpaceOnUse">
<stop stop-color="#7DD4A2"/>
<stop offset="1" stop-color="#004F22"/>
</linearGradient>
<clipPath id="clip0_88_76376">
<rect width="24" height="24" fill="white" transform="translate(0.5)"/>
</clipPath>
</defs>
</svg>
