<svg width="83" height="83" viewBox="0 0 83 83" fill="none" xmlns="http://www.w3.org/2000/svg">
<path d="M53.4177 27.5752H29.4796C28.4635 27.5752 27.6305 28.409 27.6305 29.4262V53.3893C27.6305 54.4065 28.4635 55.2403 29.4796 55.2403H53.4177C54.4338 55.2403 55.2668 54.4065 55.2668 53.3893V29.4262C55.2668 28.409 54.4338 27.5752 53.4177 27.5752Z" fill="white"/>
<path d="M25.7872 0H1.84912C0.832991 0 0 0.833861 0 1.85105V25.8141C0 26.8313 0.832991 27.6652 1.84912 27.6652H25.7872C26.8033 27.6652 27.6363 26.8313 27.6363 25.8141V1.85105C27.6304 0.833861 26.8033 0 25.7872 0Z" fill="white"/>
<path d="M80.9597 0H57.0216C56.0055 0 55.1725 0.833861 55.1725 1.85105V25.8141C55.1725 26.8313 56.0055 27.6652 57.0216 27.6652H80.9597C81.9758 27.6652 82.8088 26.8313 82.8088 25.8141V1.85105C82.8088 0.833861 81.9758 0 80.9597 0Z" fill="white"/>
<path d="M25.7872 55.1448H1.84912C0.832991 55.1448 0 55.9787 0 56.9959V80.959C0 81.9761 0.832991 82.81 1.84912 82.81H25.7872C26.8033 82.81 27.6363 81.9761 27.6363 80.959V56.9959C27.6304 55.9787 26.8033 55.1448 25.7872 55.1448Z" fill="white"/>
<path d="M80.9597 55.1448H57.0216C56.0055 55.1448 55.1725 55.9787 55.1725 56.9959V80.959C55.1725 81.9761 56.0055 82.81 57.0216 82.81H80.9597C81.9758 82.81 82.8088 81.9761 82.8088 80.959V56.9959C82.8088 55.9787 81.9758 55.1448 80.9597 55.1448Z" fill="white"/>
</svg>
