<svg width="100" height="100" viewBox="0 0 100 100" fill="none" xmlns="http://www.w3.org/2000/svg">
<g clip-path="url(#clip0_433_378460)">
<rect width="100" height="100" rx="16" fill="url(#paint0_linear_433_378460)"/>
<mask id="mask0_433_378460" style="mask-type:alpha" maskUnits="userSpaceOnUse" x="-45" y="-41" width="191" height="182">
<line x1="15.486" y1="-41" x2="15.486" y2="140.524" stroke="white" stroke-width="2.30405"/>
<line x1="50.1813" y1="-41" x2="50.1813" y2="140.524" stroke="white" stroke-width="2.30405"/>
<line x1="84.8786" y1="-41" x2="84.8786" y2="140.524" stroke="white" stroke-width="2.30405"/>
<line x1="-45" y1="9.13704" x2="145.072" y2="9.13704" stroke="white" stroke-width="2.30405"/>
<line x1="-45" y1="44.8392" x2="145.072" y2="44.8392" stroke="white" stroke-width="2.30405"/>
<line x1="-45" y1="80.5384" x2="145.072" y2="80.5384" stroke="white" stroke-width="2.30405"/>
</mask>
<g mask="url(#mask0_433_378460)">
</g>
<g clip-path="url(#clip1_433_378460)">
<path fill-rule="evenodd" clip-rule="evenodd" d="M43.7146 29.5161C41.4582 29.5161 39.2943 30.4125 37.6988 32.0079L30 39.7067V43.2307C30 45.7204 31.0694 47.9603 32.774 49.5161C31.0694 51.0719 30 53.3118 30 55.8015V59.3255L37.6988 67.0243C39.2943 68.6198 41.4582 69.5161 43.7146 69.5161C46.2043 69.5161 48.4442 68.4467 50 66.7421C51.5558 68.4467 53.7957 69.5161 56.2854 69.5161C58.5418 69.5161 60.7057 68.6198 62.3012 67.0243L70 59.3255V55.8015C70 53.3118 68.9306 51.0719 67.226 49.5161C68.9306 47.9603 70 45.7204 70 43.2307V39.7067L62.3012 32.0079C60.7057 30.4125 58.5418 29.5161 56.2854 29.5161C53.7957 29.5161 51.5558 30.5856 50 32.2901C48.4442 30.5856 46.2043 29.5161 43.7146 29.5161ZM55.7588 49.5161C55.6629 49.4286 55.5688 49.3387 55.4766 49.2465L50 43.7699L44.5234 49.2465C44.4312 49.3387 44.3371 49.4286 44.2412 49.5161C44.3371 49.6036 44.4312 49.6935 44.5234 49.7857L50 55.2623L55.4766 49.7857C55.5688 49.6935 55.6629 49.6036 55.7588 49.5161ZM52.2222 59.3255V61.0085C52.2222 63.2525 54.0414 65.0717 56.2854 65.0717C57.363 65.0717 58.3965 64.6436 59.1585 63.8816L65.5556 57.4845V55.8015C65.5556 53.5575 63.7364 51.7383 61.4924 51.7383C60.4148 51.7383 59.3813 52.1664 58.6193 52.9284L52.2222 59.3255ZM47.7778 59.3255L41.3807 52.9284C40.6187 52.1664 39.5852 51.7383 38.5076 51.7383C36.2636 51.7383 34.4444 53.5575 34.4444 55.8015V57.4845L40.8415 63.8816C41.6035 64.6436 42.637 65.0717 43.7146 65.0717C45.9586 65.0717 47.7778 63.2525 47.7778 61.0085V59.3255ZM47.7778 38.0237V39.7067L41.3807 46.1038C40.6187 46.8658 39.5852 47.2939 38.5076 47.2939C36.2636 47.2939 34.4444 45.4747 34.4444 43.2307V41.5477L40.8415 35.1506C41.6035 34.3886 42.637 33.9606 43.7146 33.9606C45.9586 33.9606 47.7778 35.7797 47.7778 38.0237ZM58.6193 46.1038L52.2222 39.7067V38.0237C52.2222 35.7797 54.0414 33.9606 56.2854 33.9606C57.363 33.9606 58.3965 34.3886 59.1585 35.1506L65.5556 41.5477V43.2307C65.5556 45.4747 63.7364 47.2939 61.4924 47.2939C60.4148 47.2939 59.3813 46.8658 58.6193 46.1038Z" fill="#FF630B"/>
</g>
</g>
<rect x="0.5" y="0.5" width="99" height="99" rx="15.5" stroke="#1B1B1B"/>
<defs>
<linearGradient id="paint0_linear_433_378460" x1="50" y1="100" x2="50" y2="-49.096" gradientUnits="userSpaceOnUse">
<stop/>
<stop offset="1" stop-color="#001F0D"/>
</linearGradient>
<clipPath id="clip0_433_378460">
<rect width="100" height="100" rx="16" fill="white"/>
</clipPath>
<clipPath id="clip1_433_378460">
<rect width="40" height="41" fill="white" transform="translate(30 29)"/>
</clipPath>
</defs>
</svg>
