<svg width="100" height="100" viewBox="0 0 100 100" fill="none" xmlns="http://www.w3.org/2000/svg">
<g clip-path="url(#clip0_433_378060)">
<rect width="100" height="100" rx="16" fill="url(#paint0_linear_433_378060)"/>
<g clip-path="url(#clip1_433_378060)">
<path fill-rule="evenodd" clip-rule="evenodd" d="M66.4387 26.3478V23H74.0625V53.8478C74.0625 67.1867 63.2894 78 50 78C37.2712 78 26.8509 68.0798 25.9944 55.5218H25.9375V23H33.5613V26.3478H46.4264V23H54.0501V26.3478H66.4387ZM66.4387 53.8478V49.1528C65.5812 50.0402 64.662 50.8829 63.6866 51.6767C60.4666 54.2971 56.6841 56.3442 52.5699 57.731C48.455 59.1181 44.0645 59.8261 39.6435 59.8261H34.6735C37.0592 65.9836 43.0219 70.3478 50 70.3478C59.0788 70.3478 66.4387 62.9605 66.4387 53.8478ZM47.1495 48.0848C45.6971 49.6302 44.06 50.9701 42.2796 52.0709C44.9874 51.8588 47.6387 51.321 50.1427 50.477C53.4554 49.3604 56.421 47.738 58.8854 45.7327C61.3486 43.7281 63.2495 41.3916 64.5262 38.8833C65.3322 37.2997 65.8837 35.66 66.1802 34H53.8048C53.5256 36.0346 53.01 38.0314 52.2653 39.9443C51.0853 42.9752 49.3503 45.7432 47.1495 48.0848ZM33.5613 47.4951V34H46.0789C45.8678 35.08 45.562 36.1379 45.1644 37.1591C44.3331 39.2946 43.1198 41.2211 41.604 42.8338C40.0887 44.446 38.3019 45.7122 36.3518 46.5716C35.4461 46.9708 34.512 47.2792 33.5613 47.4951Z" fill="#3CEB23"/>
</g>
</g>
<rect x="0.5" y="0.5" width="99" height="99" rx="15.5" stroke="#1B1B1B"/>
<defs>
<linearGradient id="paint0_linear_433_378060" x1="50" y1="100" x2="50" y2="-49.096" gradientUnits="userSpaceOnUse">
<stop/>
<stop offset="1" stop-color="#001F0D"/>
</linearGradient>
<clipPath id="clip0_433_378060">
<rect width="100" height="100" rx="16" fill="white"/>
</clipPath>
<clipPath id="clip1_433_378060">
<rect width="48.125" height="55" fill="white" transform="translate(25.9375 23)"/>
</clipPath>
</defs>
</svg>
