<svg width="100" height="100" viewBox="0 0 100 100" fill="none" xmlns="http://www.w3.org/2000/svg">
<g clip-path="url(#clip0_433_377960)">
<rect width="100" height="100" rx="16" fill="url(#paint0_linear_433_377960)"/>
<g clip-path="url(#clip1_433_377960)">
<path d="M50.0008 23C64.9129 23 77.0008 35.0879 77.0008 50V68.9C77.0008 71.0483 76.1474 73.1085 74.6284 74.6276C73.1093 76.1466 71.0491 77 68.9008 77H51.3508V65.1551C51.3508 62.4524 51.5155 59.6525 52.933 57.3521C53.9479 55.7035 55.3054 54.2925 56.9135 53.2147C58.5217 52.137 60.3428 51.4177 62.2534 51.1056L62.7705 51.0219C62.9836 50.9491 63.1687 50.8114 63.2997 50.6281C63.4307 50.4449 63.5011 50.2253 63.5011 50C63.5011 49.7747 63.4307 49.5551 63.2997 49.3719C63.1687 49.1886 62.9836 49.0509 62.7705 48.9781L62.2534 48.8944C59.4618 48.4383 56.884 47.117 54.8839 45.1169C52.8838 43.1168 51.5625 40.539 51.1065 37.7474L51.0228 37.2304C50.9499 37.0172 50.8122 36.8321 50.629 36.7011C50.4457 36.5701 50.2261 36.4997 50.0008 36.4997C49.7755 36.4997 49.5559 36.5701 49.3727 36.7011C49.1894 36.8321 49.0517 37.0172 48.9789 37.2304L48.8952 37.7474C48.5832 39.658 47.864 41.4792 46.7862 43.0873C45.7084 44.6955 44.2973 46.053 42.6487 47.0678C40.3483 48.4853 37.5484 48.65 34.8457 48.65H23.0332C23.7393 34.3657 35.5423 23 50.0008 23Z" fill="#F06225"/>
<path d="M23 51.35H34.8449C37.5476 51.35 40.3475 51.5147 42.6479 52.9322C44.4461 54.0402 45.9598 55.5539 47.0678 57.3521C48.4853 59.6525 48.65 62.4524 48.65 65.1551V77H31.1C28.9517 77 26.8915 76.1466 25.3724 74.6276C23.8534 73.1085 23 71.0483 23 68.9V51.35ZM77 25.7C77 26.4161 76.7155 27.1028 76.2092 27.6092C75.7028 28.1155 75.0161 28.4 74.3 28.4C73.5839 28.4 72.8972 28.1155 72.3908 27.6092C71.8845 27.1028 71.6 26.4161 71.6 25.7C71.6 24.9839 71.8845 24.2972 72.3908 23.7908C72.8972 23.2845 73.5839 23 74.3 23C75.0161 23 75.7028 23.2845 76.2092 23.7908C76.7155 24.2972 77 24.9839 77 25.7Z" fill="#F06225"/>
</g>
</g>
<rect x="0.5" y="0.5" width="99" height="99" rx="15.5" stroke="#1B1B1B"/>
<defs>
<linearGradient id="paint0_linear_433_377960" x1="50" y1="100" x2="50" y2="-49.096" gradientUnits="userSpaceOnUse">
<stop/>
<stop offset="1" stop-color="#001F0D"/>
</linearGradient>
<clipPath id="clip0_433_377960">
<rect width="100" height="100" rx="16" fill="white"/>
</clipPath>
<clipPath id="clip1_433_377960">
<rect width="54" height="54" fill="white" transform="translate(23 23)"/>
</clipPath>
</defs>
</svg>
