<svg width="136" height="66" viewBox="0 0 136 66" fill="none" xmlns="http://www.w3.org/2000/svg">
<g clip-path="url(#clip0_434_365223)">
<path d="M112.938 50.391C102.478 50.391 94.4951 42.3109 94.4951 32.4522C94.4951 22.6611 102.547 14.5827 112.938 14.5827C123.468 14.5827 131.451 22.7304 131.451 32.4522C131.451 42.3109 123.398 50.3893 112.938 50.3893V50.391ZM112.938 41.283C117.963 41.283 121.679 37.3131 121.679 32.5215C121.679 27.7282 117.963 23.7567 112.938 23.7567C107.914 23.7567 104.267 27.7282 104.267 32.5198C104.267 37.3131 107.914 41.283 112.938 41.283ZM71.4498 66C63.4672 66 57.3422 62.5086 54.2458 56.2089L62.366 51.8281C63.8802 54.7717 66.7014 57.0999 71.3121 57.0999C77.0938 57.0999 81.0145 53.0607 81.0145 46.4194V45.8023C79.157 48.1305 75.8548 49.9109 71.0368 49.9109C61.4703 49.9109 53.8328 42.5172 53.8328 32.4522C53.8328 22.6611 61.8153 14.652 72.2757 14.652C82.9418 14.652 90.7883 22.2502 90.7883 32.4522V46.1455C90.7883 58.1955 82.5288 66 71.4498 66ZM72.138 40.7368C77.0241 40.7368 80.8785 37.1068 80.8785 32.2476C80.8785 27.385 77.0241 23.826 72.138 23.826C67.32 23.826 63.4672 27.3867 63.4672 32.2476C63.4672 37.1085 67.32 40.7368 72.138 40.7368ZM33.2935 50.391C22.8331 50.391 14.8505 42.3109 14.8505 32.4522C14.8505 22.6611 22.9011 14.5827 33.2935 14.5827C43.8219 14.5827 51.806 22.7304 51.806 32.4522C51.806 42.3109 43.7539 50.3893 33.2935 50.3893V50.391ZM33.2935 41.283C38.3172 41.283 42.034 37.3131 42.034 32.5215C42.034 27.7282 38.3172 23.7567 33.2935 23.7567C28.2681 23.7567 24.6226 27.7282 24.6226 32.5198C24.6226 37.3131 28.2698 41.283 33.2935 41.283ZM0 0H9.7721V49.5H0V0ZM136 10.725C136 11.819 135.563 12.8682 134.786 13.6418C134.008 14.4154 132.953 14.85 131.854 14.85C130.754 14.85 129.699 14.4154 128.922 13.6418C128.144 12.8682 127.707 11.819 127.707 10.725C127.707 9.63098 128.144 8.58177 128.922 7.80818C129.699 7.0346 130.754 6.6 131.854 6.6C132.953 6.6 134.008 7.0346 134.786 7.80818C135.563 8.58177 136 9.63098 136 10.725Z" fill="white"/>
</g>
<defs>
<clipPath id="clip0_434_365223">
<rect width="136" height="66" fill="white"/>
</clipPath>
</defs>
</svg>
