<svg width="31" height="21" viewBox="0 0 31 21" fill="none" xmlns="http://www.w3.org/2000/svg">
<path d="M19.9025 10.2856C19.9025 15.6112 15.6247 19.9284 10.3477 19.9284C5.07082 19.9284 0.792969 15.6112 0.792969 10.2856C0.792969 4.95996 5.07082 0.6427 10.3477 0.6427C15.6247 0.6427 19.9025 4.95996 19.9025 10.2856Z" fill="#68DBFF"/>
<path d="M30.2074 10.2857C30.2074 15.6113 25.9715 19.9286 20.7463 19.9286C15.5211 19.9286 11.2852 15.6113 11.2852 10.2857C11.2852 4.96014 15.5211 0.642883 20.7463 0.642883C25.9715 0.642883 30.2074 4.96014 30.2074 10.2857Z" fill="#FF7917"/>
<path d="M15.5729 18.3607C18.1805 16.6388 19.9032 13.6654 19.9032 10.2857C19.9032 6.90618 18.1805 3.93264 15.5729 2.21082C12.991 3.93264 11.2852 6.90618 11.2852 10.2857C11.2852 13.6654 12.991 16.6388 15.5729 18.3607Z" fill="#5D2C02"/>
</svg>
