<svg width="31" height="18" viewBox="0 0 31 18" fill="none" xmlns="http://www.w3.org/2000/svg">
<g clip-path="url(#clip0_159_221643)">
<path d="M16.4996 0.726972C16.9094 0.293858 17.4658 0.0505371 18.0453 0.0505371C20.6522 0.0505371 23.1089 0.0505385 25.5283 0.0505434C30.3943 0.0505538 32.831 6.26964 29.3902 9.90686L21.8953 17.8296C21.5513 18.1933 20.9629 17.9357 20.9629 17.4213V10.4433L21.8291 9.52764C22.5172 8.80021 22.0299 7.55637 21.0566 7.55637H10.0391L16.4996 0.726972Z" fill="#3A04FF"/>
<path d="M14.5013 17.2729C14.0916 17.706 13.5352 17.9493 12.9557 17.9493C10.3488 17.9493 7.89207 17.9493 5.47269 17.9493C0.606638 17.9493 -1.83005 11.7302 1.61076 8.09298L9.10567 0.170266C9.44973 -0.193459 10.0381 0.0641462 10.0381 0.578529L10.0381 7.55653L9.17192 8.4722C8.48377 9.19967 8.97113 10.4435 9.94436 10.4435L20.962 10.4434L14.5013 17.2729Z" fill="#3A04FF"/>
</g>
<defs>
<clipPath id="clip0_159_221643">
<rect width="31" height="18" fill="white"/>
</clipPath>
</defs>
</svg>
